{
.appVersion = "1075";
copyright = "Original Fonts are © Bitstream. OpenDyslexic changes and additional glyphs by Abelardo Gonzalez are licensed under a Creative Commons Attribution 3.0 Unported License.\012Based on a work at http://dyslexicfonts.com. ♡2012 by Abelardo Gonzalez. Copying is an act of love. Please copy.\012Bitstream license available here: http://opendyslexic.org/legal/";
customParameters = (
{
name = glyphOrder;
value = (
.notdef,
uni0000,
uni000D,
NULL,
space,
exclam,
quotedbl,
numbersign,
dollar,
percent,
ampersand,
quotesingle,
parenleft,
parenright,
asterisk,
plus,
comma,
hyphen,
period,
slash,
zero,
one,
two,
three,
four,
five,
six,
seven,
eight,
nine,
colon,
semicolon,
less,
equal,
greater,
question,
at,
A,
B,
C,
D,
E,
F,
G,
H,
I,
J,
K,
L,
M,
N,
O,
P,
Q,
R,
S,
T,
U,
V,
W,
X,
Y,
Z,
bracketleft,
backslash,
bracketright,
asciicircum,
underscore,
grave,
a,
b,
c,
d,
e,
f,
g,
h,
i,
j,
k,
l,
m,
n,
o,
p,
q,
r,
s,
t,
u,
v,
w,
x,
y,
z,
braceleft,
bar,
braceright,
asciitilde,
uni00A0,
exclamdown,
cent,
sterling,
currency,
yen,
brokenbar,
section,
dieresis,
copyright,
ordfeminine,
guillemotleft,
logicalnot,
sfthyphen,
registered,
macron,
degree,
plusminus,
twosuperior,
threesuperior,
acute,
mu,
paragraph,
periodcentered,
cedilla,
onesuperior,
ordmasculine,
guillemotright,
onequarter,
onehalf,
threequarters,
questiondown,
Agrave,
Aacute,
Acircumflex,
Atilde,
Adieresis,
Aring,
AE,
Ccedilla,
Egrave,
Eacute,
Ecircumflex,
Edieresis,
Igrave,
Iacute,
Icircumflex,
Idieresis,
Eth,
Ntilde,
Ograve,
Oacute,
Ocircumflex,
Otilde,
Odieresis,
multiply,
Oslash,
Ugrave,
Uacute,
Ucircumflex,
Udieresis,
Yacute,
Thorn,
germandbls,
agrave,
aacute,
acircumflex,
atilde,
adieresis,
aring,
ae,
ccedilla,
egrave,
eacute,
ecircumflex,
edieresis,
igrave,
iacute,
icircumflex,
idieresis,
eth,
ntilde,
ograve,
oacute,
ocircumflex,
otilde,
odieresis,
divide,
oslash,
ugrave,
uacute,
ucircumflex,
udieresis,
yacute,
thorn,
ydieresis,
Cacute,
cacute,
Ccaron,
ccaron,
dcroat,
Gbreve,
gbreve,

glyphs = (
{
glyphname = .notdef;
lastChange = "2017-12-05 02:44:33 +0000";
layers = (
{
associatedMasterId = "6B6936E6-7670-4A82-900D-EAF583C971AF";
layerId = "8653827A-FA6E-47E7-A71B-C601C42A6CF2";
name = "Regular Jun 13 13, 18:56";
paths = (
{
closed = 1;
nodes = (
"116 -177 LINE",
"116 705 LINE",
"616 705 LINE",
"616 -177 LINE"
);
},
{
closed = 1;
nodes = (
"172 -33 LINE",
"561 -33 LINE",
"561 649 LINE",
"172 649 LINE"
);
}
);
width = 732;
},
{
layerId = "6B6936E6-7670-4A82-900D-EAF583C971AF";
paths = (
{
closed = 1;
nodes = (
"116 -177 LINE",
"116 705 LINE",
"616 705 LINE",
"616 -177 LINE"
);
},
{
closed = 1;
nodes = (
"172 -33 LINE",
"561 -33 LINE",
"561 649 LINE",
"172 649 LINE"
);
}
);
width = 732;
}
);
},
{
glyphname = exclam;
lastChange = "2017-12-05 02:44:33 +0000";
layers = (
{
layerId = "6B6936E6-7670-4A82-900D-EAF583C971AF";
paths = (
{
closed = 1;
nodes = (
"312 101 LINE SMOOTH",
"313 116 OFFCURVE",
"321 124 OFFCURVE",
"337 124 CURVE SMOOTH",
"394 124 LINE SMOOTH",
"410 124 OFFCURVE",
"418 116 OFFCURVE",
"419 101 CURVE SMOOTH",
"425 25 LINE SMOOTH",
"427 9 OFFCURVE",
"418 0 OFFCURVE",
"402 0 CURVE SMOOTH",
"329 0 LINE SMOOTH",
"313 0 OFFCURVE",
"304 9 OFFCURVE",
"306 25 CURVE SMOOTH"
);
},
{
closed = 1;
nodes = (
"317 705 LINE SMOOTH",
"318 721 OFFCURVE",
"327 729 OFFCURVE",
"342 729 CURVE SMOOTH",
"388 729 LINE SMOOTH",
"404 729 OFFCURVE",
"413 721 OFFCURVE",
"413 705 CURVE SMOOTH",
"417 409 LINE",
"430 260 LINE SMOOTH",
"431 244 OFFCURVE",
"423 235 OFFCURVE",
"407 235 CURVE SMOOTH",
"324 235 LINE SMOOTH",
"308 235 OFFCURVE",
"300 244 OFFCURVE",
"301 260 CURVE SMOOTH",
"309 409 LINE"
);
}
);
width = 732;
}
);
unicode = 0021;
},
{
glyphname = quotedbl;
lastChange = "2017-12-05 02:44:33 +0000";
layers = (
{
layerId = "6B6936E6-7670-4A82-900D-EAF583C971AF";
paths = (
{
closed = 1;
nodes = (
"287 729 LINE SMOOTH",
"303 729 OFFCURVE",
"312 721 OFFCURVE",
"312 705 CURVE SMOOTH",
"316 467 LINE SMOOTH",
"317 451 OFFCURVE",
"308 442 OFFCURVE",
"292 442 CURVE SMOOTH",
"243 442 LINE SMOOTH",
"228 442 OFFCURVE",
"219 451 OFFCURVE",
"219 467 CURVE SMOOTH",
"224 705 LINE SMOOTH",
"224 721 OFFCURVE",
"232 729 OFFCURVE",
"249 729 CURVE SMOOTH"
);
},
{
closed = 1;
nodes = (
"482 729 LINE SMOOTH",
"499 729 OFFCURVE",
"507 721 OFFCURVE",
"507 705 CURVE SMOOTH",
"512 467 LINE SMOOTH",
"512 451 OFFCURVE",
"503 442 OFFCURVE",
"488 442 CURVE SMOOTH",
"438 442 LINE SMOOTH",
"423 442 OFFCURVE",
"414 451 OFFCURVE",
"415 467 CURVE SMOOTH",
"418 705 LINE SMOOTH",
"419 721 OFFCURVE",
"427 729 OFFCURVE",
"443 729 CURVE SMOOTH"
);
}
);
width = 732;
}
);
unicode = 0022;
},
{
glyphname = numbersign;
lastChange = "2017-12-05 02:44:33 +0000";
layers = (
{
layerId = "6B6936E6-7670-4A82-900D-EAF583C971AF";
paths = (
{
closed = 1;
nodes = (
"464 413 LINE SMOOTH",
"468 430 OFFCURVE",
"460 440 OFFCURVE",
"443 440 CURVE SMOOTH",
"326 440 LINE SMOOTH",
"312 440 OFFCURVE",
"302 433 OFFCURVE",
"299 419 CURVE SMOOTH",
"270 304 LINE SMOOTH",
"266 287 OFFCURVE",
"274 277 OFFCURVE",
"291 277 CURVE SMOOTH",
"409 277 LINE SMOOTH",
"423 277 OFFCURVE",
"432 284 OFFCURVE",
"436 298 CURVE SMOOTH"
);
},
{
closed = 1;
nodes = (
"345 718 LINE SMOOTH",
"362 718 OFFCURVE",
"371 708 OFFCURVE",
"366 690 CURVE SMOOTH",
"329 542 LINE SMOOTH",
"325 525 OFFCURVE",
"333 515 OFFCURVE",
"350 515 CURVE SMOOTH",
"468 515 LINE SMOOTH",
"482 515 OFFCURVE",
"491 522 OFFCURVE",
"495 536 CURVE SMOOTH",
"535 697 LINE SMOOTH",
"539 711 OFFCURVE",
"548 718 OFFCURVE",
"562 718 CURVE SMOOTH",
"591 718 LINE SMOOTH",
"608 718 OFFCURVE",
"616 708 OFFCURVE",
"612 690 CURVE SMOOTH",
"575 542 LINE SMOOTH",
"571 525 OFFCURVE",
"579 515 OFFCURVE",
"596 515 CURVE SMOOTH",
"721 515 LINE SMOOTH",
"737 515 OFFCURVE",
"745 507 OFFCURVE",
"745 491 CURVE SMOOTH",
"745 464 LINE SMOOTH",
"745 449 OFFCURVE",
"736 440 OFFCURVE",
"721 440 CURVE SMOOTH",
"571 440 LINE SMOOTH",
"557 440 OFFCURVE",
"548 433 OFFCURVE",
"544 419 CURVE SMOOTH",
"516 304 LINE SMOOTH",
"512 287 OFFCURVE",
"520 277 OFFCURVE",
"537 277 CURVE SMOOTH",
"665 277 LINE SMOOTH",
"681 277 OFFCURVE",
"689 269 OFFCURVE",
"689 252 CURVE SMOOTH",
"689 227 LINE SMOOTH",
"689 211 OFFCURVE",
"680 202 OFFCURVE",
"665 202 CURVE SMOOTH",
"512 202 LINE SMOOTH",
"498 202 OFFCURVE",
"488 195 OFFCURVE",
"485 181 CURVE SMOOTH",
"445 21 LINE SMOOTH",
"441 7 OFFCURVE",
"432 0 OFFCURVE",
"417 0 CURVE SMOOTH",
"389 0 LINE SMOOTH",
"372 0 OFFCURVE",
"364 10 OFFCURVE",
"368 27 CURVE SMOOTH",
"405 175 LINE SMOOTH",
"409 192 OFFCURVE",
"401 202 OFFCURVE",
"384 202 CURVE SMOOTH",
"266 202 LINE SMOOTH",
"251 202 OFFCURVE",
"242 195 OFFCURVE",
"239 181 CURVE SMOOTH",
"199 21 LINE SMOOTH",
"196 7 OFFCURVE",
"187 0 OFFCURVE",
"172 0 CURVE SMOOTH",
"143 0 LINE SMOOTH",
"126 0 OFFCURVE",
"118 10 OFFCURVE",
"122 27 CURVE SMOOTH",
"159 175 LINE SMOOTH",
"164 192 OFFCURVE",
"155 202 OFFCURVE",
"138 202 CURVE SMOOTH",
"12 202 LINE SMOOTH",
"-4 202 OFFCURVE",
"-13 210 OFFCURVE",
"-13 227 CURVE SMOOTH",
"-13 252 LINE SMOOTH",
"-13 269 OFFCURVE",
"-4 277 OFFCURVE",
"12 277 CURVE SMOOTH",
"163 277 LINE SMOOTH",
"177 277 OFFCURVE",
"186 284 OFFCURVE",
"189 298 CURVE SMOOTH",
"218 413 LINE SMOOTH",
"223 430 OFFCURVE",
"214 440 OFFCURVE",
"197 440 CURVE SMOOTH",
"67 440 LINE SMOOTH",
"52 440 OFFCURVE",
"43 448 OFFCURVE",
"43 464 CURVE SMOOTH",
"43 491 LINE SMOOTH",
"43 507 OFFCURVE",
"51 515 OFFCURVE",
"67 515 CURVE SMOOTH",
"222 515 LINE SMOOTH",
"237 515 OFFCURVE",
"246 522 OFFCURVE",
"250 536 CURVE SMOOTH",
"289 697 LINE SMOOTH",
"292 711 OFFCURVE",
"301 718 OFFCURVE",
"316 718 CURVE SMOOTH"
);
}
);
width = 732;
}
);
unicode = 0023;
},
{
glyphname = dollar;
lastChange = "2017-12-05 02:44:33 +0000";
layers = (
{
layerId = "6B6936E6-7670-4A82-900D-EAF583C971AF";
paths = (
{
closed = 1;
nodes = (
"403 -118 LINE SMOOTH",
"404 -135 OFFCURVE",
"396 -144 OFFCURVE",
"379 -143 CURVE SMOOTH",
"342 -143 LINE SMOOTH",
"326 -142 OFFCURVE",
"317 -133 OFFCURVE",
"319 -117 CURVE SMOOTH",
"327 -20 LINE SMOOTH",
"328 -4 OFFCURVE",
"320 5 OFFCURVE",
"304 6 CURVE SMOOTH",
"254 11 OFFCURVE",
"201 23 OFFCURVE",
"148 45 CURVE SMOOTH",
"135 50 OFFCURVE",
"129 60 OFFCURVE",
"129 74 CURVE SMOOTH",
"130 137 LINE SMOOTH",
"131 156 OFFCURVE",
"143 163 OFFCURVE",
"160 153 CURVE SMOOTH",
"208 126 OFFCURVE",
"258 110 OFFCURVE",
"306 105 CURVE SMOOTH",
"322 104 OFFCURVE",
"331 112 OFFCURVE",
"332 128 CURVE SMOOTH",
"334 274 LINE SMOOTH",
"334 289 OFFCURVE",
"327 298 OFFCURVE",
"312 301 CURVE SMOOTH",
"191 329 OFFCURVE",
"140 383 OFFCURVE",
"136 475 CURVE",
"138 575 OFFCURVE",
"204 635 OFFCURVE",
"321 647 CURVE SMOOTH",
"337 649 OFFCURVE",
"345 657 OFFCURVE",
"346 673 CURVE SMOOTH",
"347 740 LINE SMOOTH",
"347 755 OFFCURVE",
"356 764 OFFCURVE",
"372 764 CURVE SMOOTH",
"388 763 OFFCURVE",
"396 755 OFFCURVE",
"395 739 CURVE SMOOTH",
"395 674 LINE SMOOTH",
"394 658 OFFCURVE",
"402 649 OFFCURVE",
"418 648 CURVE SMOOTH",
"462 644 OFFCURVE",
"504 636 OFFCURVE",
"544 624 CURVE SMOOTH",
"558 619 OFFCURVE",
"564 610 OFFCURVE",
"564 596 CURVE SMOOTH",
"563 572 LINE SMOOTH",
"563 554 OFFCURVE",
"552 547 OFFCURVE",
"535 555 CURVE SMOOTH",
"498 572 OFFCURVE",
"459 582 OFFCURVE",
"418 587 CURVE SMOOTH",
"402 588 OFFCURVE",
"393 580 OFFCURVE",
"393 563 CURVE SMOOTH",
"390 384 LINE SMOOTH",
"389 369 OFFCURVE",
"397 360 OFFCURVE",
"412 357 CURVE SMOOTH",
"543 331 OFFCURVE",
"597 282 OFFCURVE",
"602 186 CURVE",
"600 83 OFFCURVE",
"529 21 OFFCURVE",
"421 7 CURVE SMOOTH",
"406 5 OFFCURVE",
"398 -4 OFFCURVE",
"398 -20 CURVE SMOOTH"
);
},
{
closed = 1;
nodes = (
"336 559 LINE SMOOTH",
"336 576 OFFCURVE",
"326 585 OFFCURVE",
"310 582 CURVE SMOOTH",
"244 567 OFFCURVE",
"206 525 OFFCURVE",
"206 475 CURVE SMOOTH",
"206 425 OFFCURVE",
"240 389 OFFCURVE",
"305 372 CURVE SMOOTH",
"321 368 OFFCURVE",
"332 376 OFFCURVE",
"332 393 CURVE SMOOTH"
);
},
{
closed = 1;
nodes = (
"390 126 LINE SMOOTH",
"390 110 OFFCURVE",
"400 102 OFFCURVE",
"416 104 CURVE SMOOTH",
"471 114 OFFCURVE",
"505 126 OFFCURVE",
"505 177 CURVE SMOOTH",
"505 227 OFFCURVE",
"475 258 OFFCURVE",
"414 275 CURVE SMOOTH",
"396 280 OFFCURVE",
"386 271 OFFCURVE",
"386 254 CURVE SMOOTH"
);
}
);
width = 732;
}
);
unicode = 0024;
},
{
glyphname = percent;
lastChange = "2017-12-05 02:44:33 +0000";
layers = (
{
layerId = "6B6936E6-7670-4A82-900D-EAF583C971AF";
paths = (
{
closed = 1;
nodes = (
"450 281 OFFCURVE",
"416 234 OFFCURVE",
"416 154 CURVE SMOOTH",
"416 76 OFFCURVE",
"450 56 OFFCURVE",
"506 56 CURVE SMOOTH",
"562 56 OFFCURVE",
"596 76 OFFCURVE",
"596 154 CURVE SMOOTH",
"596 233 OFFCURVE",
"562 281 OFFCURVE",
"506 281 CURVE SMOOTH"
);
},
{
closed = 1;
nodes = (
"609 343 OFFCURVE",
"674 266 OFFCURVE",
"674 145 CURVE SMOOTH",
"674 23 OFFCURVE",
"608 -54 OFFCURVE",
"506 -54 CURVE SMOOTH",
"402 -54 OFFCURVE",
"337 23 OFFCURVE",
"337 145 CURVE SMOOTH",
"337 267 OFFCURVE",
"403 343 OFFCURVE",
"506 343 CURVE SMOOTH"
);
},
{
closed = 1;
nodes = (
"170 796 OFFCURVE",
"136 746 OFFCURVE",
"136 663 CURVE SMOOTH",
"136 579 OFFCURVE",
"170 558 OFFCURVE",
"227 558 CURVE SMOOTH",
"283 558 OFFCURVE",
"317 579 OFFCURVE",
"317 663 CURVE SMOOTH",
"317 745 OFFCURVE",
"283 796 OFFCURVE",
"227 796 CURVE SMOOTH"
);
},
{
closed = 1;
nodes = (
"525 726 LINE SMOOTH",
"532 737 OFFCURVE",
"541 742 OFFCURVE",
"554 742 CURVE SMOOTH",
"579 742 LINE SMOOTH",
"599 742 OFFCURVE",
"605 729 OFFCURVE",
"595 713 CURVE SMOOTH",
"163 2 LINE SMOOTH",
"156 -9 OFFCURVE",
"147 -14 OFFCURVE",
"134 -14 CURVE SMOOTH",
"108 -14 LINE SMOOTH",
"88 -14 OFFCURVE",
"82 -1 OFFCURVE",
"92 15 CURVE SMOOTH"
);
},
{
closed = 1;
nodes = (
"330 858 OFFCURVE",
"396 782 OFFCURVE",
"396 660 CURVE SMOOTH",
"396 537 OFFCURVE",
"330 461 OFFCURVE",
"227 461 CURVE SMOOTH",
"123 461 OFFCURVE",
"58 538 OFFCURVE",
"58 660 CURVE SMOOTH",
"58 781 OFFCURVE",
"124 858 OFFCURVE",
"227 858 CURVE SMOOTH"
);
}
);
width = 732;
}
);
unicode = 0025;
},
{
glyphname = ampersand;
lastChange = "2017-12-05 02:44:33 +0000";
layers = (
{
layerId = "6B6936E6-7670-4A82-900D-EAF583C971AF";
paths = (
{
closed = 1;
nodes = (
"221 393 LINE SMOOTH",
"210 405 OFFCURVE",
"198 406 OFFCURVE",
"186 394 CURVE SMOOTH",
"139 347 OFFCURVE",
"118 301 OFFCURVE",
"118 249 CURVE SMOOTH",
"118 153 OFFCURVE",
"196 92 OFFCURVE",
"301 82 CURVE SMOOTH",
"329 79 OFFCURVE",
"374 94 OFFCURVE",
"416 125 CURVE SMOOTH",
"429 135 OFFCURVE",
"430 147 OFFCURVE",
"419 160 CURVE SMOOTH"
);
},
{
closed = 1;
nodes = (
"481 221 LINE SMOOTH",
"493 208 OFFCURVE",
"507 208 OFFCURVE",
"515 225 CURVE SMOOTH",
"538 268 OFFCURVE",
"544 312 OFFCURVE",
"548 364 CURVE SMOOTH",
"549 379 OFFCURVE",
"558 388 OFFCURVE",
"574 388 CURVE SMOOTH",
"615 388 LINE SMOOTH",
"631 388 OFFCURVE",
"640 378 OFFCURVE",
"638 362 CURVE SMOOTH",
"632 292 OFFCURVE",
"624 222 OFFCURVE",
"581 154 CURVE SMOOTH",
"573 142 OFFCURVE",
"573 130 OFFCURVE",
"583 120 CURVE SMOOTH",
"675 27 LINE SMOOTH",
"690 11 OFFCURVE",
"684 -3 OFFCURVE",
"662 -3 CURVE SMOOTH",
"599 -3 LINE SMOOTH",
"586 -3 OFFCURVE",
"578 0 OFFCURVE",
"569 9 CURVE SMOOTH",
"527 52 LINE SMOOTH",
"517 63 OFFCURVE",
"505 63 OFFCURVE",
"493 53 CURVE SMOOTH",
"431 5 OFFCURVE",
"366 -17 OFFCURVE",
"315 -14 CURVE SMOOTH",
"157 -4 OFFCURVE",
"48 85 OFFCURVE",
"48 225 CURVE SMOOTH",
"48 302 OFFCURVE",
"85 370 OFFCURVE",
"160 431 CURVE SMOOTH",
"172 441 OFFCURVE",
"173 452 OFFCURVE",
"165 465 CURVE SMOOTH",
"143 500 OFFCURVE",
"131 534 OFFCURVE",
"131 567 CURVE SMOOTH",
"131 672 OFFCURVE",
"212 759 OFFCURVE",
"329 742 CURVE SMOOTH",
"350 739 OFFCURVE",
"392 730 OFFCURVE",
"438 713 CURVE SMOOTH",
"454 708 OFFCURVE",
"458 695 OFFCURVE",
"451 681 CURVE SMOOTH",
"439 657 LINE SMOOTH",
"432 642 OFFCURVE",
"419 639 OFFCURVE",
"405 647 CURVE SMOOTH",
"364 670 OFFCURVE",
"343 685 OFFCURVE",
"305 685 CURVE SMOOTH",
"236 685 OFFCURVE",
"189 645 OFFCURVE",
"189 587 CURVE SMOOTH",
"189 571 OFFCURVE",
"194 554 OFFCURVE",
"204 538 CURVE SMOOTH",
"213 521 OFFCURVE",
"234 499 OFFCURVE",
"263 466 CURVE SMOOTH"
);
}
);
width = 732;
}
);
unicode = 0026;
},
{
glyphname = quotesingle;
lastChange = "2017-12-05 02:44:33 +0000";
layers = (
{
layerId = "6B6936E6-7670-4A82-900D-EAF583C971AF";
paths = (
{
closed = 1;
nodes = (
"406 729 LINE SMOOTH",
"422 729 OFFCURVE",
"430 720 OFFCURVE",
"430 705 CURVE SMOOTH",
"430 482 LINE SMOOTH",
"430 467 OFFCURVE",
"421 458 OFFCURVE",
"406 458 CURVE SMOOTH",
"325 458 LINE SMOOTH",
"308 458 OFFCURVE",
"300 468 OFFCURVE",
"303 484 CURVE SMOOTH",
"343 707 LINE SMOOTH",
"346 722 OFFCURVE",
"354 729 OFFCURVE",
"370 729 CURVE SMOOTH"
);
}
);
width = 732;
}
);
unicode = 0027;
},
{
glyphname = parenleft;
lastChange = "2017-12-05 02:44:33 +0000";
layers = (
{
layerId = "6B6936E6-7670-4A82-900D-EAF583C971AF";
paths = (
{
closed = 1;
nodes = (
"470 758 LINE SMOOTH",
"489 757 OFFCURVE",
"495 744 OFFCURVE",
"484 728 CURVE SMOOTH",
"396 596 OFFCURVE",
"347 464 OFFCURVE",
"341 324 CURVE",
"347 183 OFFCURVE",
"360 43 OFFCURVE",
"422 -102 CURVE SMOOTH",
"430 -120 OFFCURVE",
"422 -131 OFFCURVE",
"403 -130 CURVE SMOOTH",
"353 -126 LINE SMOOTH",
"339 -125 OFFCURVE",
"331 -119 OFFCURVE",
"326 -106 CURVE SMOOTH",
"267 47 OFFCURVE",
"241 192 OFFCURVE",
"241 332 CURVE",
"253 472 OFFCURVE",
"310 607 OFFCURVE",
"414 747 CURVE SMOOTH",
"422 758 OFFCURVE",
"431 762 OFFCURVE",
"444 761 CURVE SMOOTH"
);
}
);
width = 732;
}
);
unicode = 0028;
},
{
glyphname = parenright;
lastChange = "2017-12-05 02:44:33 +0000";
layers = (
{
layerId = "6B6936E6-7670-4A82-900D-EAF583C971AF";
paths = (
{
closed = 1;
nodes = (
"363 770 LINE SMOOTH",
"376 769 OFFCURVE",
"385 763 OFFCURVE",
"391 751 CURVE SMOOTH",
"468 596 OFFCURVE",
"489 452 OFFCURVE",
"489 313 CURVE SMOOTH",
"489 172 OFFCURVE",
"423 37 OFFCURVE",
"349 -102 CURVE SMOOTH",
"342 -114 OFFCURVE",
"332 -119 OFFCURVE",
"319 -118 CURVE SMOOTH",
"261 -114 LINE SMOOTH",
"242 -113 OFFCURVE",
"235 -101 OFFCURVE",
"246 -84 CURVE SMOOTH",
"333 48 OFFCURVE",
"382 181 OFFCURVE",
"395 321 CURVE",
"395 461 OFFCURVE",
"379 599 OFFCURVE",
"318 744 CURVE SMOOTH",
"311 762 OFFCURVE",
"318 774 OFFCURVE",
"338 772 CURVE SMOOTH"
);
}
);
width = 732;
}
);
unicode = 0029;
},
{
glyphname = asterisk;
lastChange = "2017-12-05 02:44:33 +0000";
layers = (
{
layerId = "6B6936E6-7670-4A82-900D-EAF583C971AF";
paths = (
{
closed = 1;
nodes = (
"581 629 LINE SMOOTH",
"582 615 OFFCURVE",
"578 606 OFFCURVE",
"565 599 CURVE SMOOTH",
"443 533 LINE SMOOTH",
"424 523 OFFCURVE",
"425 508 OFFCURVE",
"445 500 CURVE SMOOTH",
"577 449 LINE SMOOTH",
"593 442 OFFCURVE",
"597 430 OFFCURVE",
"587 416 CURVE SMOOTH",
"569 390 LINE SMOOTH",
"560 377 OFFCURVE",
"548 375 OFFCURVE",
"535 383 CURVE SMOOTH",
"423 451 LINE SMOOTH",
"406 461 OFFCURVE",
"393 453 OFFCURVE",
"395 433 CURVE SMOOTH",
"408 324 LINE SMOOTH",
"410 309 OFFCURVE",
"403 299 OFFCURVE",
"388 296 CURVE SMOOTH",
"362 292 LINE SMOOTH",
"345 288 OFFCURVE",
"335 296 OFFCURVE",
"335 313 CURVE SMOOTH",
"335 432 LINE SMOOTH",
"335 453 OFFCURVE",
"322 459 OFFCURVE",
"306 446 CURVE SMOOTH",
"210 368 LINE SMOOTH",
"198 357 OFFCURVE",
"186 359 OFFCURVE",
"176 372 CURVE SMOOTH",
"158 398 LINE SMOOTH",
"148 411 OFFCURVE",
"151 423 OFFCURVE",
"166 431 CURVE SMOOTH",
"284 496 LINE SMOOTH",
"303 505 OFFCURVE",
"302 521 OFFCURVE",
"282 528 CURVE SMOOTH",
"154 580 LINE SMOOTH",
"138 585 OFFCURVE",
"134 598 OFFCURVE",
"143 612 CURVE SMOOTH",
"159 637 LINE SMOOTH",
"167 650 OFFCURVE",
"179 653 OFFCURVE",
"192 645 CURVE SMOOTH",
"303 578 LINE SMOOTH",
"321 567 OFFCURVE",
"333 575 OFFCURVE",
"331 596 CURVE SMOOTH",
"319 700 LINE SMOOTH",
"317 715 OFFCURVE",
"323 725 OFFCURVE",
"338 729 CURVE SMOOTH",
"364 735 LINE SMOOTH",
"381 739 OFFCURVE",
"391 731 OFFCURVE",
"391 714 CURVE SMOOTH",
"391 593 LINE SMOOTH",
"391 573 OFFCURVE",
"404 566 OFFCURVE",
"420 577 CURVE SMOOTH",
"548 660 LINE SMOOTH",
"564 670 OFFCURVE",
"576 664 OFFCURVE",
"579 645 CURVE SMOOTH"
);
}
);
width = 732;
}
);
unicode = 002A;
},
{
glyphname = plus;
lastChange = "2017-12-05 02:44:33 +0000";
layers = (
{
layerId = "6B6936E6-7670-4A82-900D-EAF583C971AF";
paths = (
{
closed = 1;
nodes = (
"383 627 LINE SMOOTH",
"398 627 OFFCURVE",
"407 619 OFFCURVE",
"407 603 CURVE SMOOTH",
"407 379 LINE SMOOTH",
"407 364 OFFCURVE",
"416 355 OFFCURVE",
"432 355 CURVE SMOOTH",
"655 355 LINE SMOOTH",
"670 355 OFFCURVE",
"679 347 OFFCURVE",
"679 331 CURVE SMOOTH",
"679 296 LINE SMOOTH",
"679 281 OFFCURVE",
"671 272 OFFCURVE",
"655 272 CURVE SMOOTH",
"432 272 LINE SMOOTH",
"416 272 OFFCURVE",
"407 264 OFFCURVE",
"407 248 CURVE SMOOTH",
"407 24 LINE SMOOTH",
"407 9 OFFCURVE",
"398 0 OFFCURVE",
"383 0 CURVE SMOOTH",
"350 0 LINE SMOOTH",
"334 0 OFFCURVE",
"325 8 OFFCURVE",
"325 24 CURVE SMOOTH",
"325 248 LINE SMOOTH",
"325 264 OFFCURVE",
"317 272 OFFCURVE",
"301 272 CURVE SMOOTH",
"78 272 LINE SMOOTH",
"62 272 OFFCURVE",
"53 280 OFFCURVE",
"53 296 CURVE SMOOTH",
"53 331 LINE SMOOTH",
"53 347 OFFCURVE",
"62 355 OFFCURVE",
"78 355 CURVE SMOOTH",
"301 355 LINE SMOOTH",
"317 355 OFFCURVE",
"325 363 OFFCURVE",
"325 379 CURVE SMOOTH",
"325 603 LINE SMOOTH",
"325 618 OFFCURVE",
"333 627 OFFCURVE",
"350 627 CURVE SMOOTH"
);
}
);
width = 732;
}
);
unicode = 002B;
},
{
glyphname = comma;
lastChange = "2017-12-05 02:44:33 +0000";
layers = (
{
anchors = (
{
name = _comma;
position = "{388, 119}";
}
);
layerId = "6B6936E6-7670-4A82-900D-EAF583C971AF";
paths = (
{
closed = 1;
nodes = (
"325 95 LINE SMOOTH",
"325 111 OFFCURVE",
"333 119 OFFCURVE",
"350 119 CURVE SMOOTH",
"423 119 LINE SMOOTH",
"439 119 OFFCURVE",
"448 111 OFFCURVE",
"448 95 CURVE SMOOTH",
"448 32 LINE SMOOTH",
"448 21 OFFCURVE",
"445 12 OFFCURVE",
"438 2 CURVE SMOOTH",
"349 -125 LINE SMOOTH",
"342 -136 OFFCURVE",
"332 -141 OFFCURVE",
"320 -141 CURVE SMOOTH",
"305 -141 LINE SMOOTH",
"287 -141 OFFCURVE",
"279 -130 OFFCURVE",
"284 -113 CURVE SMOOTH",
"321 1 LINE SMOOTH",
"324 12 OFFCURVE",
"325 20 OFFCURVE",
"325 31 CURVE SMOOTH"
);
}
);
width = 732;
}
);
unicode = 002C;
},
{
glyphname = hyphen;
lastChange = "2017-12-05 02:44:33 +0000";
layers = (
{
anchors = (
{
name = _bottom;
position = "{374, 36}";
}
);
layerId = "6B6936E6-7670-4A82-900D-EAF583C971AF";
paths = (
{
closed = 1;
nodes = (
"229 244 OFFCURVE",
"238 234 OFFCURVE",
"255 234 CURVE SMOOTH",
"469 238 LINE SMOOTH",
"484 238 OFFCURVE",
"492 246 OFFCURVE",
"495 261 CURVE SMOOTH",
"500 297 LINE SMOOTH",
"503 314 OFFCURVE",
"495 324 OFFCURVE",
"478 323 CURVE SMOOTH",
"264 319 LINE SMOOTH",
"249 319 OFFCURVE",
"240 312 OFFCURVE",
"238 297 CURVE SMOOTH",
"232 260 LINE SMOOTH"
);
}
);
width = 732;
}
);
unicode = 002D;
},
{
glyphname = period;
lastChange = "2017-12-05 02:44:33 +0000";
layers = (
{
layerId = "6B6936E6-7670-4A82-900D-EAF583C971AF";
paths = (
{
closed = 1;
nodes = (
"295 139 LINE SMOOTH",
"296 154 OFFCURVE",
"305 162 OFFCURVE",
"321 162 CURVE SMOOTH",
"417 162 LINE SMOOTH",
"434 162 OFFCURVE",
"442 153 OFFCURVE",
"441 137 CURVE SMOOTH",
"435 23 LINE SMOOTH",
"434 8 OFFCURVE",
"425 0 OFFCURVE",
"409 0 CURVE SMOOTH",
"312 0 LINE SMOOTH",
"296 0 OFFCURVE",
"288 9 OFFCURVE",
"289 25 CURVE SMOOTH"
);
}
);
width = 732;
}
);
unicode = 002E;
},
{
glyphname = slash;
lastChange = "2017-12-05 02:44:33 +0000";
layers = (
{
layerId = "6B6936E6-7670-4A82-900D-EAF583C971AF";
paths = (
{
closed = 1;
nodes = (
"462 700 LINE SMOOTH",
"467 713 OFFCURVE",
"476 720 OFFCURVE",
"490 719 CURVE SMOOTH",
"514 718 LINE SMOOTH",
"532 718 OFFCURVE",
"540 707 OFFCURVE",
"535 690 CURVE SMOOTH",
"306 -76 LINE SMOOTH",
"301 -90 OFFCURVE",
"292 -96 OFFCURVE",
"278 -96 CURVE SMOOTH",
"216 -94 LINE SMOOTH",
"198 -93 OFFCURVE",
"191 -82 OFFCURVE",
"196 -65 CURVE SMOOTH"
);
}
);
width = 732;
}
);
unicode = 002F;
},
{
color = 6;
glyphname = zero;
lastChange = "2017-12-05 02:44:33 +0000";
layers = (
{
layerId = "6B6936E6-7670-4A82-900D-EAF583C971AF";
paths = (
{
closed = 1;
nodes = (
"270 703 OFFCURVE",
"218 614 OFFCURVE",
"218 435 CURVE SMOOTH",
"218 250 OFFCURVE",
"260 167 OFFCURVE",
"361 167 CURVE SMOOTH",
"463 167 OFFCURVE",
"511 256 OFFCURVE",
"524 435 CURVE",
"524 614 OFFCURVE",
"473 703 OFFCURVE",
"371 703 CURVE SMOOTH"
);
},
{
closed = 1;
nodes = (
"535 742 OFFCURVE",
"618 610 OFFCURVE",
"618 364 CURVE SMOOTH",
"612 118 OFFCURVE",
"525 -14 OFFCURVE",
"361 -14 CURVE SMOOTH",
"198 -14 OFFCURVE",
"114 118 OFFCURVE",
"114 364 CURVE SMOOTH",
"121 610 OFFCURVE",
"208 742 OFFCURVE",
"371 742 CURVE SMOOTH"
);
},
{
closed = 1;
nodes = (
"408 324 OFFCURVE",
"417 373 OFFCURVE",
"417 410 CURVE SMOOTH",
"417 480 OFFCURVE",
"408 523 OFFCURVE",
"366 523 CURVE SMOOTH",
"320 523 OFFCURVE",
"314 467 OFFCURVE",
"314 410 CURVE SMOOTH",
"314 373 OFFCURVE",
"325 324 OFFCURVE",
"366 324 CURVE SMOOTH"
);
}
);
width = 732;
}
);
unicode = 0030;
},
{
color = 6;
glyphname = one;
lastChange = "2017-12-05 02:44:33 +0000";
layers = (
{
layerId = "6B6936E6-7670-4A82-900D-EAF583C971AF";
paths = (
{
closed = 1;
nodes = (
"164 112 LINE SMOOTH",
"164 128 OFFCURVE",
"172 137 OFFCURVE",
"188 137 CURVE SMOOTH",
"300 137 LINE SMOOTH",
"316 137 OFFCURVE",
"325 146 OFFCURVE",
"325 161 CURVE SMOOTH",
"325 612 LINE SMOOTH",
"325 629 OFFCURVE",
"315 637 OFFCURVE",
"298 634 CURVE SMOOTH",
"176 609 LINE SMOOTH",
"159 606 OFFCURVE",
"149 614 OFFCURVE",
"149 631 CURVE SMOOTH",
"149 672 LINE SMOOTH",
"149 687 OFFCURVE",
"157 695 OFFCURVE",
"171 698 CURVE SMOOTH",
"309 726 LINE SMOOTH",
"320 728 OFFCURVE",
"328 729 OFFCURVE",
"338 729 CURVE SMOOTH",
"398 729 LINE SMOOTH",
"414 729 OFFCURVE",
"422 721 OFFCURVE",
"422 705 CURVE SMOOTH",
"422 161 LINE SMOOTH",
"422 146 OFFCURVE",
"431 137 OFFCURVE",
"447 137 CURVE SMOOTH",
"559 137 LINE SMOOTH",
"575 137 OFFCURVE",
"583 128 OFFCURVE",
"583 112 CURVE SMOOTH",
"583 24 LINE SMOOTH",
"583 9 OFFCURVE",
"575 0 OFFCURVE",
"559 0 CURVE SMOOTH",
"188 0 LINE SMOOTH",
"172 0 OFFCURVE",
"164 9 OFFCURVE",
"164 24 CURVE SMOOTH"
);
}
);
width = 732;
}
);
unicode = 0031;
},
{
color = 6;
glyphname = two;
lastChange = "2017-12-05 02:44:33 +0000";
layers = (
{
layerId = "6B6936E6-7670-4A82-900D-EAF583C971AF";
paths = (
{
closed = 1;
nodes = (
"572 142 LINE SMOOTH",
"588 142 OFFCURVE",
"597 133 OFFCURVE",
"597 117 CURVE SMOOTH",
"597 24 LINE SMOOTH",
"597 9 OFFCURVE",
"588 0 OFFCURVE",
"572 0 CURVE SMOOTH",
"158 0 LINE SMOOTH",
"143 0 OFFCURVE",
"134 8 OFFCURVE",
"134 24 CURVE SMOOTH",
"134 124 LINE SMOOTH",
"134 136 OFFCURVE",
"138 145 OFFCURVE",
"148 153 CURVE SMOOTH",
"195 192 OFFCURVE",
"245 231 OFFCURVE",
"297 271 CURVE SMOOTH",
"413 359 OFFCURVE",
"450 406 OFFCURVE",
"475 456 CURVE SMOOTH",
"487 480 OFFCURVE",
"494 504 OFFCURVE",
"494 528 CURVE SMOOTH",
"494 605 OFFCURVE",
"434 659 OFFCURVE",
"347 659 CURVE SMOOTH",
"292 659 OFFCURVE",
"234 643 OFFCURVE",
"168 610 CURVE SMOOTH",
"150 601 OFFCURVE",
"139 608 OFFCURVE",
"139 627 CURVE SMOOTH",
"139 673 LINE SMOOTH",
"139 688 OFFCURVE",
"145 696 OFFCURVE",
"158 701 CURVE SMOOTH",
"229 728 OFFCURVE",
"292 742 OFFCURVE",
"345 742 CURVE SMOOTH",
"496 742 OFFCURVE",
"593 661 OFFCURVE",
"593 534 CURVE SMOOTH",
"593 474 OFFCURVE",
"574 427 OFFCURVE",
"515 354 CURVE",
"506 345 OFFCURVE",
"480 317 OFFCURVE",
"437 272 CURVE SMOOTH",
"403 237 OFFCURVE",
"379 203 OFFCURVE",
"365 169 CURVE SMOOTH",
"357 153 OFFCURVE",
"367 142 OFFCURVE",
"385 142 CURVE SMOOTH"
);
}
);
width = 732;
}
);
unicode = 0032;
},
{
color = 6;
glyphname = three;
lastChange = "2017-12-05 02:44:33 +0000";
layers = (
{
layerId = "6B6936E6-7670-4A82-900D-EAF583C971AF";
paths = (
{
closed = 1;
nodes = (
"561 373 OFFCURVE",
"606 307 OFFCURVE",
"606 222 CURVE SMOOTH",
"606 65 OFFCURVE",
"503 -14 OFFCURVE",
"321 -14 CURVE SMOOTH",
"266 -14 OFFCURVE",
"208 -4 OFFCURVE",
"146 15 CURVE SMOOTH",
"133 20 OFFCURVE",
"126 29 OFFCURVE",
"126 43 CURVE SMOOTH",
"126 144 LINE SMOOTH",
"126 163 OFFCURVE",
"138 169 OFFCURVE",
"155 161 CURVE SMOOTH",
"204 139 OFFCURVE",
"259 127 OFFCURVE",
"318 127 CURVE SMOOTH",
"380 127 OFFCURVE",
"427 141 OFFCURVE",
"460 169 CURVE SMOOTH",
"492 197 OFFCURVE",
"508 219 OFFCURVE",
"508 236 CURVE SMOOTH",
"508 303 OFFCURVE",
"445 359 OFFCURVE",
"337 359 CURVE SMOOTH",
"277 359 LINE SMOOTH",
"261 359 OFFCURVE",
"252 367 OFFCURVE",
"252 383 CURVE SMOOTH",
"252 416 LINE SMOOTH",
"252 432 OFFCURVE",
"261 440 OFFCURVE",
"277 440 CURVE SMOOTH",
"341 440 LINE SMOOTH",
"438 440 OFFCURVE",
"491 480 OFFCURVE",
"491 553 CURVE SMOOTH",
"491 627 OFFCURVE",
"437 669 OFFCURVE",
"337 669 CURVE SMOOTH",
"290 669 OFFCURVE",
"238 661 OFFCURVE",
"176 642 CURVE SMOOTH",
"159 637 OFFCURVE",
"148 644 OFFCURVE",
"148 662 CURVE SMOOTH",
"148 689 LINE SMOOTH",
"148 704 OFFCURVE",
"155 713 OFFCURVE",
"169 717 CURVE SMOOTH",
"235 734 OFFCURVE",
"293 742 OFFCURVE",
"346 742 CURVE SMOOTH",
"496 742 OFFCURVE",
"589 669 OFFCURVE",
"589 553 CURVE SMOOTH",
"589 481 OFFCURVE",
"551 426 OFFCURVE",
"480 401 CURVE SMOOTH",
"465 395 OFFCURVE",
"465 393 OFFCURVE",
"481 389 CURVE SMOOTH"
);
}
);
width = 732;
}
);
unicode = 0033;
},
{
color = 6;
glyphname = four;
lastChange = "2017-12-05 02:44:33 +0000";
layers = (
{
layerId = "6B6936E6-7670-4A82-900D-EAF583C971AF";
paths = (
{
closed = 1;
nodes = (
"428 621 LINE SMOOTH",
"428 646 OFFCURVE",
"412 650 OFFCURVE",
"398 630 CURVE SMOOTH",
"199 317 LINE SMOOTH",
"188 301 OFFCURVE",
"195 288 OFFCURVE",
"215 288 CURVE SMOOTH",
"399 288 LINE SMOOTH",
"416 288 OFFCURVE",
"424 296 OFFCURVE",
"424 313 CURVE SMOOTH"
);
},
{
closed = 1;
nodes = (
"393 713 LINE SMOOTH",
"400 724 OFFCURVE",
"409 729 OFFCURVE",
"422 729 CURVE SMOOTH",
"502 729 LINE SMOOTH",
"519 729 OFFCURVE",
"527 721 OFFCURVE",
"527 705 CURVE SMOOTH",
"531 313 LINE SMOOTH",
"532 296 OFFCURVE",
"540 288 OFFCURVE",
"556 288 CURVE SMOOTH",
"606 288 LINE SMOOTH",
"623 288 OFFCURVE",
"631 279 OFFCURVE",
"631 264 CURVE SMOOTH",
"631 230 LINE SMOOTH",
"631 215 OFFCURVE",
"623 206 OFFCURVE",
"606 206 CURVE SMOOTH",
"557 206 LINE SMOOTH",
"541 206 OFFCURVE",
"532 197 OFFCURVE",
"533 181 CURVE SMOOTH",
"541 25 LINE SMOOTH",
"541 9 OFFCURVE",
"533 0 OFFCURVE",
"517 0 CURVE SMOOTH",
"434 0 LINE SMOOTH",
"418 0 OFFCURVE",
"410 9 OFFCURVE",
"410 25 CURVE SMOOTH",
"418 181 LINE SMOOTH",
"418 197 OFFCURVE",
"410 206 OFFCURVE",
"394 206 CURVE SMOOTH",
"124 206 LINE SMOOTH",
"108 206 OFFCURVE",
"100 215 OFFCURVE",
"100 230 CURVE SMOOTH",
"100 250 LINE SMOOTH",
"100 263 OFFCURVE",
"102 271 OFFCURVE",
"109 281 CURVE SMOOTH"
);
}
);
width = 732;
}
);
unicode = 0034;
},
{
color = 6;
glyphname = five;
lastChange = "2017-12-05 02:44:33 +0000";
layers = (
{
layerId = "6B6936E6-7670-4A82-900D-EAF583C971AF";
paths = (
{
closed = 1;
nodes = (
"161 705 LINE SMOOTH",
"161 721 OFFCURVE",
"170 729 OFFCURVE",
"186 729 CURVE SMOOTH",
"524 729 LINE SMOOTH",
"540 729 OFFCURVE",
"548 721 OFFCURVE",
"548 705 CURVE SMOOTH",
"548 680 LINE SMOOTH",
"548 665 OFFCURVE",
"540 656 OFFCURVE",
"524 656 CURVE SMOOTH",
"266 656 LINE SMOOTH",
"250 656 OFFCURVE",
"242 647 OFFCURVE",
"242 631 CURVE SMOOTH",
"242 495 LINE SMOOTH",
"242 478 OFFCURVE",
"252 470 OFFCURVE",
"269 474 CURVE SMOOTH",
"295 479 OFFCURVE",
"315 482 OFFCURVE",
"337 482 CURVE SMOOTH",
"500 482 OFFCURVE",
"602 386 OFFCURVE",
"602 234 CURVE SMOOTH",
"602 77 OFFCURVE",
"500 -14 OFFCURVE",
"322 -14 CURVE SMOOTH",
"268 -14 OFFCURVE",
"211 -6 OFFCURVE",
"151 11 CURVE SMOOTH",
"137 15 OFFCURVE",
"130 24 OFFCURVE",
"130 39 CURVE SMOOTH",
"130 138 LINE SMOOTH",
"130 157 OFFCURVE",
"142 164 OFFCURVE",
"159 156 CURVE SMOOTH",
"209 134 OFFCURVE",
"262 123 OFFCURVE",
"320 123 CURVE SMOOTH",
"433 123 OFFCURVE",
"499 199 OFFCURVE",
"499 249 CURVE SMOOTH",
"499 350 OFFCURVE",
"433 399 OFFCURVE",
"320 399 CURVE SMOOTH",
"277 399 OFFCURVE",
"234 391 OFFCURVE",
"189 375 CURVE SMOOTH",
"172 368 OFFCURVE",
"161 375 OFFCURVE",
"161 394 CURVE SMOOTH"
);
}
);
width = 732;
}
);
unicode = 0035;
},
{
color = 6;
glyphname = six;
lastChange = "2017-12-05 02:44:33 +0000";
layers = (
{
layerId = "6B6936E6-7670-4A82-900D-EAF583C971AF";
paths = (
{
closed = 1;
nodes = (
"287 404 OFFCURVE",
"231 339 OFFCURVE",
"231 234 CURVE SMOOTH",
"231 168 OFFCURVE",
"287 127 OFFCURVE",
"375 127 CURVE SMOOTH",
"463 127 OFFCURVE",
"519 168 OFFCURVE",
"519 234 CURVE SMOOTH",
"519 339 OFFCURVE",
"463 404 OFFCURVE",
"375 404 CURVE SMOOTH"
);
},
{
closed = 1;
nodes = (
"571 654 LINE SMOOTH",
"571 635 OFFCURVE",
"560 628 OFFCURVE",
"542 635 CURVE SMOOTH",
"502 651 OFFCURVE",
"461 659 OFFCURVE",
"421 659 CURVE SMOOTH",
"300 659 OFFCURVE",
"233 584 OFFCURVE",
"216 431 CURVE SMOOTH",
"214 410 OFFCURVE",
"222 407 OFFCURVE",
"236 422 CURVE SMOOTH",
"273 461 OFFCURVE",
"324 482 OFFCURVE",
"381 482 CURVE SMOOTH",
"527 482 OFFCURVE",
"618 387 OFFCURVE",
"618 234 CURVE SMOOTH",
"618 84 OFFCURVE",
"522 -14 OFFCURVE",
"375 -14 CURVE SMOOTH",
"207 -14 OFFCURVE",
"114 118 OFFCURVE",
"114 364 CURVE SMOOTH",
"114 594 OFFCURVE",
"233 742 OFFCURVE",
"417 742 CURVE SMOOTH",
"460 742 OFFCURVE",
"504 735 OFFCURVE",
"551 720 CURVE SMOOTH",
"564 715 OFFCURVE",
"571 706 OFFCURVE",
"571 692 CURVE SMOOTH"
);
}
);
width = 732;
}
);
unicode = 0036;
},
{
color = 6;
glyphname = seven;
lastChange = "2017-12-05 02:44:33 +0000";
layers = (
{
layerId = "6B6936E6-7670-4A82-900D-EAF583C971AF";
paths = (
{
closed = 1;
nodes = (
"134 705 LINE SMOOTH",
"134 721 OFFCURVE",
"143 729 OFFCURVE",
"159 729 CURVE SMOOTH",
"574 729 LINE SMOOTH",
"590 729 OFFCURVE",
"598 720 OFFCURVE",
"598 705 CURVE SMOOTH",
"598 702 LINE SMOOTH",
"598 691 OFFCURVE",
"598 683 OFFCURVE",
"594 672 CURVE SMOOTH",
"393 21 LINE SMOOTH",
"388 7 OFFCURVE",
"380 0 OFFCURVE",
"366 0 CURVE SMOOTH",
"242 0 LINE SMOOTH",
"223 0 OFFCURVE",
"215 11 OFFCURVE",
"223 28 CURVE SMOOTH",
"497 627 LINE SMOOTH",
"505 645 OFFCURVE",
"497 656 OFFCURVE",
"478 656 CURVE SMOOTH",
"159 656 LINE SMOOTH",
"143 656 OFFCURVE",
"134 665 OFFCURVE",
"134 680 CURVE SMOOTH"
);
}
);
width = 732;
}
);
unicode = 0037;
},
{
color = 6;
glyphname = eight;
lastChange = "2017-12-05 02:44:33 +0000";
layers = (
{
layerId = "6B6936E6-7670-4A82-900D-EAF583C971AF";
paths = (
{
closed = 1;
nodes = (
"272 356 OFFCURVE",
"215 303 OFFCURVE",
"215 215 CURVE SMOOTH",
"215 166 OFFCURVE",
"272 108 OFFCURVE",
"366 108 CURVE SMOOTH",
"460 108 OFFCURVE",
"518 167 OFFCURVE",
"518 215 CURVE SMOOTH",
"518 303 OFFCURVE",
"460 356 OFFCURVE",
"366 356 CURVE SMOOTH"
);
},
{
closed = 1;
nodes = (
"175 423 OFFCURVE",
"143 479 OFFCURVE",
"143 553 CURVE SMOOTH",
"143 657 OFFCURVE",
"222 732 OFFCURVE",
"366 732 CURVE SMOOTH",
"511 732 OFFCURVE",
"589 657 OFFCURVE",
"589 553 CURVE SMOOTH",
"589 479 OFFCURVE",
"558 423 OFFCURVE",
"491 396 CURVE SMOOTH",
"476 390 OFFCURVE",
"476 386 OFFCURVE",
"492 381 CURVE SMOOTH",
"572 353 OFFCURVE",
"626 290 OFFCURVE",
"626 205 CURVE SMOOTH",
"626 64 OFFCURVE",
"527 -14 OFFCURVE",
"366 -14 CURVE SMOOTH",
"206 -14 OFFCURVE",
"106 64 OFFCURVE",
"106 205 CURVE SMOOTH",
"106 290 OFFCURVE",
"160 353 OFFCURVE",
"241 380 CURVE SMOOTH",
"257 386 OFFCURVE",
"257 390 OFFCURVE",
"241 396 CURVE SMOOTH"
);
},
{
closed = 1;
nodes = (
"231 498 OFFCURVE",
"281 453 OFFCURVE",
"366 453 CURVE SMOOTH",
"451 453 OFFCURVE",
"501 498 OFFCURVE",
"501 573 CURVE SMOOTH",
"501 636 OFFCURVE",
"451 684 OFFCURVE",
"366 684 CURVE SMOOTH",
"281 684 OFFCURVE",
"231 636 OFFCURVE",
"231 573 CURVE SMOOTH"
);
}
);
width = 732;
}
);
unicode = 0038;
},
{
color = 6;
glyphname = nine;
lastChange = "2017-12-05 02:44:33 +0000";
layers = (
{
layerId = "6B6936E6-7670-4A82-900D-EAF583C971AF";
paths = (
{
closed = 1;
nodes = (
"177 93 LINE SMOOTH",
"177 111 OFFCURVE",
"187 125 OFFCURVE",
"205 125 CURVE SMOOTH",
"360 125 OFFCURVE",
"500 194 OFFCURVE",
"518 344 CURVE SMOOTH",
"520 365 OFFCURVE",
"515 366 OFFCURVE",
"498 353 CURVE SMOOTH",
"461 325 OFFCURVE",
"393 313 OFFCURVE",
"335 313 CURVE SMOOTH",
"220 313 OFFCURVE",
"129 341 OFFCURVE",
"129 494 CURVE SMOOTH",
"129 644 OFFCURVE",
"225 742 OFFCURVE",
"342 742 CURVE SMOOTH",
"511 742 OFFCURVE",
"602 612 OFFCURVE",
"602 364 CURVE SMOOTH",
"602 101 OFFCURVE",
"441 -17 OFFCURVE",
"197 -17 CURVE",
"183 -12 OFFCURVE",
"177 -3 OFFCURVE",
"177 11 CURVE SMOOTH"
);
},
{
closed = 1;
nodes = (
"441 425 OFFCURVE",
"509 441 OFFCURVE",
"509 510 CURVE SMOOTH",
"509 615 OFFCURVE",
"441 680 OFFCURVE",
"333 680 CURVE SMOOTH",
"226 680 OFFCURVE",
"188 615 OFFCURVE",
"188 510 CURVE SMOOTH",
"188 448 OFFCURVE",
"226 425 OFFCURVE",
"333 425 CURVE SMOOTH"
);
}
);
width = 732;
}
);
unicode = 0039;
},
{
glyphname = colon;
lastChange = "2017-12-05 02:44:33 +0000";
layers = (
{
layerId = "6B6936E6-7670-4A82-900D-EAF583C971AF";
paths = (
{
closed = 1;
nodes = (
"302 125 LINE SMOOTH",
"302 141 OFFCURVE",
"310 149 OFFCURVE",
"326 149 CURVE SMOOTH",
"405 149 LINE SMOOTH",
"421 149 OFFCURVE",
"429 141 OFFCURVE",
"429 125 CURVE SMOOTH",
"429 24 LINE SMOOTH",
"429 9 OFFCURVE",
"421 0 OFFCURVE",
"405 0 CURVE SMOOTH",
"326 0 LINE SMOOTH",
"311 0 OFFCURVE",
"302 9 OFFCURVE",
"302 24 CURVE SMOOTH"
);
},
{
closed = 1;
nodes = (
"302 513 LINE SMOOTH",
"302 529 OFFCURVE",
"310 538 OFFCURVE",
"326 538 CURVE SMOOTH",
"405 538 LINE SMOOTH",
"421 538 OFFCURVE",
"429 529 OFFCURVE",
"429 513 CURVE SMOOTH",
"429 423 LINE SMOOTH",
"429 407 OFFCURVE",
"421 398 OFFCURVE",
"405 398 CURVE SMOOTH",
"326 398 LINE SMOOTH",
"311 398 OFFCURVE",
"302 407 OFFCURVE",
"302 423 CURVE SMOOTH"
);
}
);
width = 732;
}
);
unicode = 003A;
},
{
glyphname = semicolon;
lastChange = "2017-12-05 02:44:33 +0000";
layers = (
{
layerId = "6B6936E6-7670-4A82-900D-EAF583C971AF";
paths = (
{
closed = 1;
nodes = (
"324 511 LINE SMOOTH",
"324 527 OFFCURVE",
"332 535 OFFCURVE",
"349 535 CURVE SMOOTH",
"418 535 LINE SMOOTH",
"435 535 OFFCURVE",
"443 527 OFFCURVE",
"443 511 CURVE SMOOTH",
"443 417 LINE SMOOTH",
"443 401 OFFCURVE",
"435 392 OFFCURVE",
"418 392 CURVE SMOOTH",
"349 392 LINE SMOOTH",
"333 392 OFFCURVE",
"324 401 OFFCURVE",
"324 417 CURVE SMOOTH"
);
},
{
closed = 1;
nodes = (
"327 82 LINE SMOOTH",
"327 98 OFFCURVE",
"335 106 OFFCURVE",
"351 106 CURVE SMOOTH",
"416 106 LINE SMOOTH",
"433 106 OFFCURVE",
"441 98 OFFCURVE",
"441 82 CURVE SMOOTH",
"441 29 LINE SMOOTH",
"441 18 OFFCURVE",
"439 9 OFFCURVE",
"434 -1 CURVE SMOOTH",
"361 -143 LINE SMOOTH",
"355 -155 OFFCURVE",
"346 -160 OFFCURVE",
"332 -160 CURVE SMOOTH",
"310 -160 LINE SMOOTH",
"293 -160 OFFCURVE",
"285 -150 OFFCURVE",
"289 -133 CURVE SMOOTH",
"323 -1 LINE SMOOTH",
"326 9 OFFCURVE",
"327 17 OFFCURVE",
"327 28 CURVE SMOOTH"
);
}
);
width = 732;
}
);
unicode = 003B;
},
{
glyphname = less;
lastChange = "2017-12-05 02:44:33 +0000";
layers = (
{
layerId = "6B6936E6-7670-4A82-900D-EAF583C971AF";
paths = (
{
closed = 1;
nodes = (
"686 502 LINE SMOOTH",
"685 489 OFFCURVE",
"678 480 OFFCURVE",
"664 477 CURVE SMOOTH",
"212 359 LINE SMOOTH",
"190 354 OFFCURVE",
"189 337 OFFCURVE",
"210 328 CURVE SMOOTH",
"634 135 LINE SMOOTH",
"647 129 OFFCURVE",
"653 119 OFFCURVE",
"651 105 CURVE SMOOTH",
"645 38 LINE SMOOTH",
"644 20 OFFCURVE",
"632 13 OFFCURVE",
"616 21 CURVE SMOOTH",
"58 280 LINE SMOOTH",
"45 286 OFFCURVE",
"40 295 OFFCURVE",
"41 309 CURVE SMOOTH",
"47 378 LINE SMOOTH",
"48 392 OFFCURVE",
"55 400 OFFCURVE",
"69 404 CURVE SMOOTH",
"663 563 LINE SMOOTH",
"681 567 OFFCURVE",
"691 559 OFFCURVE",
"689 541 CURVE SMOOTH"
);
}
);
width = 732;
}
);
unicode = 003C;
},
{
glyphname = equal;
lastChange = "2017-12-05 02:44:33 +0000";
layers = (
{
layerId = "6B6936E6-7670-4A82-900D-EAF583C971AF";
paths = (
{
closed = 1;
nodes = (
"53 430 LINE SMOOTH",
"53 445 OFFCURVE",
"62 454 OFFCURVE",
"78 454 CURVE SMOOTH",
"655 454 LINE SMOOTH",
"671 454 OFFCURVE",
"679 445 OFFCURVE",
"679 430 CURVE SMOOTH",
"679 396 LINE SMOOTH",
"679 381 OFFCURVE",
"671 372 OFFCURVE",
"655 372 CURVE SMOOTH",
"78 372 LINE SMOOTH",
"62 372 OFFCURVE",
"53 380 OFFCURVE",
"53 396 CURVE SMOOTH"
);
},
{
closed = 1;
nodes = (
"53 245 LINE SMOOTH",
"53 261 OFFCURVE",
"62 270 OFFCURVE",
"78 270 CURVE SMOOTH",
"655 270 LINE SMOOTH",
"671 270 OFFCURVE",
"679 261 OFFCURVE",
"679 245 CURVE SMOOTH",
"679 196 LINE SMOOTH",
"679 181 OFFCURVE",
"671 172 OFFCURVE",
"655 172 CURVE SMOOTH",
"78 172 LINE SMOOTH",
"62 172 OFFCURVE",
"53 181 OFFCURVE",
"53 196 CURVE SMOOTH"
);
}
);
width = 732;
}
);
unicode = 003D;
},
{
glyphname = greater;
lastChange = "2017-12-05 02:44:33 +0000";
layers = (
{
layerId = "6B6936E6-7670-4A82-900D-EAF583C971AF";
paths = (
{
closed = 1;
nodes = (
"99 532 LINE SMOOTH",
"86 538 OFFCURVE",
"81 547 OFFCURVE",
"82 562 CURVE SMOOTH",
"85 600 LINE SMOOTH",
"87 618 OFFCURVE",
"99 625 OFFCURVE",
"115 617 CURVE SMOOTH",
"672 357 LINE SMOOTH",
"686 352 OFFCURVE",
"691 342 OFFCURVE",
"690 328 CURVE SMOOTH",
"684 259 LINE SMOOTH",
"683 245 OFFCURVE",
"676 237 OFFCURVE",
"662 233 CURVE SMOOTH",
"67 75 LINE SMOOTH",
"50 70 OFFCURVE",
"40 79 OFFCURVE",
"41 97 CURVE SMOOTH",
"47 164 LINE SMOOTH",
"48 178 OFFCURVE",
"55 186 OFFCURVE",
"69 190 CURVE SMOOTH",
"520 307 LINE SMOOTH",
"541 312 OFFCURVE",
"543 329 OFFCURVE",
"522 338 CURVE SMOOTH"
);
}
);
width = 732;
}
);
unicode = 003E;
},
{
glyphname = question;
lastChange = "2017-12-05 02:44:33 +0000";
layers = (
{
layerId = "6B6936E6-7670-4A82-900D-EAF583C971AF";
paths = (
{
closed = 1;
nodes = (
"263 109 LINE SMOOTH",
"263 125 OFFCURVE",
"271 134 OFFCURVE",
"288 134 CURVE SMOOTH",
"367 134 LINE SMOOTH",
"383 134 OFFCURVE",
"392 125 OFFCURVE",
"392 109 CURVE SMOOTH",
"392 20 LINE SMOOTH",
"392 4 OFFCURVE",
"383 -5 OFFCURVE",
"367 -5 CURVE SMOOTH",
"288 -5 LINE SMOOTH",
"272 -5 OFFCURVE",
"263 4 OFFCURVE",
"263 20 CURVE SMOOTH"
);
},
{
closed = 1;
nodes = (
"394 220 LINE SMOOTH",
"394 205 OFFCURVE",
"385 196 OFFCURVE",
"369 196 CURVE SMOOTH",
"291 196 LINE SMOOTH",
"275 196 OFFCURVE",
"266 204 OFFCURVE",
"266 220 CURVE SMOOTH",
"266 271 LINE SMOOTH",
"266 337 OFFCURVE",
"279 375 OFFCURVE",
"337 431 CURVE",
"386 474 LINE",
"429 509 OFFCURVE",
"450 527 OFFCURVE",
"459 551 CURVE SMOOTH",
"463 561 OFFCURVE",
"464 569 OFFCURVE",
"462 580 CURVE SMOOTH",
"455 632 OFFCURVE",
"411 677 OFFCURVE",
"347 677 CURVE SMOOTH",
"304 677 OFFCURVE",
"255 660 OFFCURVE",
"203 629 CURVE SMOOTH",
"186 619 OFFCURVE",
"173 625 OFFCURVE",
"173 645 CURVE SMOOTH",
"173 667 LINE SMOOTH",
"173 681 OFFCURVE",
"178 690 OFFCURVE",
"190 697 CURVE SMOOTH",
"246 727 OFFCURVE",
"303 742 OFFCURVE",
"364 742 CURVE SMOOTH",
"483 742 OFFCURVE",
"558 673 OFFCURVE",
"558 570 CURVE SMOOTH",
"558 521 OFFCURVE",
"526 480 OFFCURVE",
"474 424 CURVE SMOOTH",
"445 393 LINE SMOOTH",
"438 385 OFFCURVE",
"434 378 OFFCURVE",
"428 369 CURVE SMOOTH",
"422 360 OFFCURVE",
"417 352 OFFCURVE",
"413 346 CURVE SMOOTH",
"400 329 OFFCURVE",
"397 315 OFFCURVE",
"395 296 CURVE SMOOTH",
"394 286 OFFCURVE",
"394 273 OFFCURVE",
"394 256 CURVE SMOOTH"
);
}
);
width = 732;
}
);
unicode = 003F;
},
{
glyphname = at;
lastChange = "2017-12-05 02:44:33 +0000";
layers = (
{
layerId = "6B6936E6-7670-4A82-900D-EAF583C971AF";
paths = (
{
closed = 1;
nodes = (
"226 219 OFFCURVE",
"275 168 OFFCURVE",
"355 168 CURVE SMOOTH",
"436 168 OFFCURVE",
"484 220 OFFCURVE",
"484 302 CURVE SMOOTH",
"484 384 OFFCURVE",
"434 436 OFFCURVE",
"354 436 CURVE SMOOTH",
"276 436 OFFCURVE",
"226 384 OFFCURVE",
"226 302 CURVE SMOOTH"
);
},
{
closed = 1;
nodes = (
"506 76 LINE SMOOTH",
"506 97 OFFCURVE",
"495 101 OFFCURVE",
"479 86 CURVE SMOOTH",
"444 57 OFFCURVE",
"403 43 OFFCURVE",
"351 43 CURVE SMOOTH",
"239 43 OFFCURVE",
"162 132 OFFCURVE",
"162 262 CURVE SMOOTH",
"162 393 OFFCURVE",
"240 482 OFFCURVE",
"351 482 CURVE SMOOTH",
"403 482 OFFCURVE",
"444 467 OFFCURVE",
"479 438 CURVE SMOOTH",
"495 423 OFFCURVE",
"506 427 OFFCURVE",
"506 449 CURVE SMOOTH",
"506 460 LINE SMOOTH",
"506 468 OFFCURVE",
"515 472 OFFCURVE",
"531 472 CURVE SMOOTH",
"552 472 LINE SMOOTH",
"568 472 OFFCURVE",
"576 463 OFFCURVE",
"576 448 CURVE SMOOTH",
"576 140 LINE SMOOTH",
"576 123 OFFCURVE",
"586 114 OFFCURVE",
"603 119 CURVE SMOOTH",
"682 143 OFFCURVE",
"728 215 OFFCURVE",
"728 319 CURVE SMOOTH",
"728 389 OFFCURVE",
"708 450 OFFCURVE",
"666 502 CURVE SMOOTH",
"598 587 OFFCURVE",
"498 634 OFFCURVE",
"383 634 CURVE SMOOTH",
"303 634 OFFCURVE",
"229 612 OFFCURVE",
"166 571 CURVE SMOOTH",
"64 504 OFFCURVE",
"3 391 OFFCURVE",
"3 265 CURVE SMOOTH",
"3 162 OFFCURVE",
"38 113 OFFCURVE",
"122 24 CURVE SMOOTH",
"190 -43 OFFCURVE",
"273 -65 OFFCURVE",
"375 -65 CURVE SMOOTH",
"450 -65 OFFCURVE",
"525 -45 OFFCURVE",
"589 -3 CURVE SMOOTH",
"603 6 OFFCURVE",
"615 3 OFFCURVE",
"622 -12 CURVE SMOOTH",
"645 -56 LINE SMOOTH",
"651 -69 OFFCURVE",
"648 -81 OFFCURVE",
"636 -89 CURVE SMOOTH",
"559 -144 OFFCURVE",
"467 -174 OFFCURVE",
"375 -174 CURVE SMOOTH",
"254 -174 OFFCURVE",
"146 -130 OFFCURVE",
"62 -49 CURVE SMOOTH",
"-21 33 OFFCURVE",
"-66 142 OFFCURVE",
"-66 265 CURVE SMOOTH",
"-66 384 OFFCURVE",
"-20 495 OFFCURVE",
"62 576 CURVE SMOOTH",
"146 659 OFFCURVE",
"259 704 OFFCURVE",
"382 704 CURVE SMOOTH",
"521 704 OFFCURVE",
"643 645 OFFCURVE",
"723 541 CURVE SMOOTH",
"772 477 OFFCURVE",
"798 401 OFFCURVE",
"798 321 CURVE SMOOTH",
"798 158 OFFCURVE",
"699 55 OFFCURVE",
"532 42 CURVE SMOOTH",
"515 41 OFFCURVE",
"506 47 OFFCURVE",
"506 59 CURVE SMOOTH"
);
}
);
width = 732;
}
);
unicode = 0040;
},
{
color = 6;
glyphname = A;
lastChange = "2017-12-05 02:44:33 +0000";
layers = (
{
anchors = (
{
name = dotbelowcomb;
position = "{372, 7}";
},
{
name = ogonek;
position = "{594, 0}";
},
{
name = top;
position = "{371, 681}";
}
);
layerId = "6B6936E6-7670-4A82-900D-EAF583C971AF";
paths = (
{
closed = 1;
nodes = (
"381 592 LINE SMOOTH",
"374 614 OFFCURVE",
"357 614 OFFCURVE",
"350 592 CURVE SMOOTH",
"241 263 LINE SMOOTH",
"235 246 OFFCURVE",
"243 235 OFFCURVE",
"261 235 CURVE SMOOTH",
"470 235 LINE SMOOTH",
"488 235 OFFCURVE",
"496 246 OFFCURVE",
"490 263 CURVE SMOOTH"
);
},
{
closed = 1;
nodes = (
"312 710 LINE SMOOTH",
"317 723 OFFCURVE",
"326 729 OFFCURVE",
"340 729 CURVE SMOOTH",
"391 729 LINE SMOOTH",
"405 729 OFFCURVE",
"414 723 OFFCURVE",
"419 710 CURVE SMOOTH",
"688 28 LINE SMOOTH",
"695 11 OFFCURVE",
"687 0 OFFCURVE",
"669 0 CURVE SMOOTH",
"580 0 LINE SMOOTH",
"565 0 OFFCURVE",
"556 7 OFFCURVE",
"553 21 CURVE SMOOTH",
"535 97 LINE SMOOTH",
"532 112 OFFCURVE",
"523 119 OFFCURVE",
"508 119 CURVE SMOOTH",
"223 119 LINE SMOOTH",
"208 119 OFFCURVE",
"200 112 OFFCURVE",
"195 99 CURVE SMOOTH",
"171 20 LINE SMOOTH",
"166 6 OFFCURVE",
"158 0 OFFCURVE",
"144 0 CURVE SMOOTH",
"62 0 LINE SMOOTH",
"43 0 OFFCURVE",
"36 11 OFFCURVE",
"42 28 CURVE SMOOTH"
);
}
);
width = 732;
}
);
unicode = 0041;
},
{
color = 6;
glyphname = B;
lastChange = "2017-12-05 02:44:33 +0000";
layers = (
{
anchors = (
{
name = bottom;
position = "{338, -32}";
}
);
layerId = "6B6936E6-7670-4A82-900D-EAF583C971AF";
paths = (
{
closed = 1;
nodes = (
"225 348 LINE SMOOTH",
"209 348 OFFCURVE",
"201 340 OFFCURVE",
"201 324 CURVE SMOOTH",
"201 169 LINE SMOOTH",
"201 153 OFFCURVE",
"209 145 OFFCURVE",
"225 145 CURVE SMOOTH",
"359 145 LINE SMOOTH",
"465 145 OFFCURVE",
"515 168 OFFCURVE",
"515 259 CURVE SMOOTH",
"515 275 OFFCURVE",
"502 294 OFFCURVE",
"477 316 CURVE SMOOTH",
"451 337 OFFCURVE",
"412 348 OFFCURVE",
"359 348 CURVE SMOOTH"
);
},
{
closed = 1;
nodes = (
"225 663 LINE SMOOTH",
"209 663 OFFCURVE",
"201 654 OFFCURVE",
"201 638 CURVE SMOOTH",
"201 453 LINE SMOOTH",
"201 437 OFFCURVE",
"209 428 OFFCURVE",
"225 428 CURVE SMOOTH",
"347 428 LINE SMOOTH",
"443 428 OFFCURVE",
"490 464 OFFCURVE",
"490 538 CURVE SMOOTH",
"490 612 OFFCURVE",
"443 663 OFFCURVE",
"347 663 CURVE SMOOTH"
);
},
{
closed = 1;
nodes = (
"102 705 LINE SMOOTH",
"102 721 OFFCURVE",
"110 729 OFFCURVE",
"126 729 CURVE SMOOTH",
"330 729 LINE SMOOTH",
"480 729 OFFCURVE",
"564 664 OFFCURVE",
"564 549 CURVE SMOOTH",
"564 469 OFFCURVE",
"531 418 OFFCURVE",
"467 399 CURVE SMOOTH",
"451 394 OFFCURVE",
"451 392 OFFCURVE",
"467 388 CURVE SMOOTH",
"579 362 OFFCURVE",
"629 296 OFFCURVE",
"629 204 CURVE SMOOTH",
"629 74 OFFCURVE",
"527 0 OFFCURVE",
"364 0 CURVE SMOOTH",
"126 0 LINE SMOOTH",
"110 0 OFFCURVE",
"102 9 OFFCURVE",
"102 24 CURVE SMOOTH"
);
}
);
width = 732;
}
);
unicode = 0042;
},
{
color = 6;
glyphname = C;
lastChange = "2017-12-05 02:44:33 +0000";
layers = (
{
anchors = (
{
name = bottom;
position = "{381, 0}";
},
{
name = top;
position = "{381, 729}";
}
);
layerId = "6B6936E6-7670-4A82-900D-EAF583C971AF";
paths = (
{
closed = 1;
nodes = (
"660 607 LINE SMOOTH",
"660 586 OFFCURVE",
"647 581 OFFCURVE",
"631 594 CURVE SMOOTH",
"572 639 OFFCURVE",
"506 661 OFFCURVE",
"434 661 CURVE SMOOTH",
"268 661 OFFCURVE",
"176 557 OFFCURVE",
"176 364 CURVE SMOOTH",
"179 193 OFFCURVE",
"268 135 OFFCURVE",
"434 135 CURVE SMOOTH",
"506 135 OFFCURVE",
"572 157 OFFCURVE",
"631 203 CURVE SMOOTH",
"647 215 OFFCURVE",
"660 210 OFFCURVE",
"660 189 CURVE SMOOTH",
"660 75 LINE SMOOTH",
"660 62 OFFCURVE",
"655 53 OFFCURVE",
"644 46 CURVE SMOOTH",
"580 6 OFFCURVE",
"508 -14 OFFCURVE",
"428 -14 CURVE SMOOTH",
"208 -14 OFFCURVE",
"72 130 OFFCURVE",
"72 364 CURVE SMOOTH",
"72 598 OFFCURVE",
"208 742 OFFCURVE",
"428 742 CURVE SMOOTH",
"509 742 OFFCURVE",
"581 723 OFFCURVE",
"644 683 CURVE SMOOTH",
"656 676 OFFCURVE",
"660 667 OFFCURVE",
"660 654 CURVE SMOOTH"
);
}
);
width = 732;
}
);
unicode = 0043;
},
{
color = 6;
glyphname = D;
lastChange = "2017-12-05 02:44:33 +0000";
layers = (
{
anchors = (
{
name = bottom;
position = "{327, -34}";
},
{
name = center;
position = "{365, 365}";
},
{
name = dotbelowcomb;
position = "{369, -42}";
},
{
name = top;
position = "{365, 729}";
}
);
layerId = "6B6936E6-7670-4A82-900D-EAF583C971AF";
paths = (
{
closed = 1;
nodes = (
"212 648 LINE SMOOTH",
"197 648 OFFCURVE",
"188 640 OFFCURVE",
"188 624 CURVE SMOOTH",
"188 208 LINE SMOOTH",
"188 192 OFFCURVE",
"196 184 OFFCURVE",
"212 184 CURVE SMOOTH",
"307 184 LINE SMOOTH",
"451 184 OFFCURVE",
"511 223 OFFCURVE",
"544 360 CURVE SMOOTH",
"547 371 OFFCURVE",
"548 379 OFFCURVE",
"548 390 CURVE SMOOTH",
"543 562 OFFCURVE",
"453 648 OFFCURVE",
"307 648 CURVE SMOOTH"
);
},
{
closed = 1;
nodes = (
"84 705 LINE SMOOTH",
"84 721 OFFCURVE",
"93 729 OFFCURVE",
"108 729 CURVE SMOOTH",
"287 729 LINE SMOOTH",
"520 729 OFFCURVE",
"647 615 OFFCURVE",
"647 365 CURVE SMOOTH",
"647 114 OFFCURVE",
"518 0 OFFCURVE",
"287 0 CURVE SMOOTH",
"108 0 LINE SMOOTH",
"93 0 OFFCURVE",
"84 9 OFFCURVE",
"84 24 CURVE SMOOTH"
);
}
);
width = 732;
}
);
unicode = 0044;
},
{
color = 6;
glyphname = E;
lastChange = "2017-12-05 02:44:33 +0000";
layers = (
{
anchors = (
{
name = bottom;
position = "{390, -17}";
},
{
name = ogonek;
position = "{389, 0}";
},
{
name = top;
position = "{351, 705}";
}
);
layerId = "6B6936E6-7670-4A82-900D-EAF583C971AF";
paths = (
{
closed = 1;
nodes = (
"131 705 LINE SMOOTH",
"131 721 OFFCURVE",
"140 729 OFFCURVE",
"156 729 CURVE SMOOTH",
"568 729 LINE SMOOTH",
"584 729 OFFCURVE",
"592 721 OFFCURVE",
"592 705 CURVE SMOOTH",
"592 670 LINE SMOOTH",
"592 655 OFFCURVE",
"583 646 OFFCURVE",
"568 646 CURVE SMOOTH",
"254 646 LINE SMOOTH",
"239 646 OFFCURVE",
"230 638 OFFCURVE",
"230 622 CURVE SMOOTH",
"230 455 LINE SMOOTH",
"230 439 OFFCURVE",
"239 430 OFFCURVE",
"254 430 CURVE SMOOTH",
"553 430 LINE SMOOTH",
"569 430 OFFCURVE",
"577 422 OFFCURVE",
"577 406 CURVE SMOOTH",
"577 372 LINE SMOOTH",
"577 356 OFFCURVE",
"568 347 OFFCURVE",
"553 347 CURVE SMOOTH",
"254 347 LINE SMOOTH",
"239 347 OFFCURVE",
"230 339 OFFCURVE",
"230 323 CURVE SMOOTH",
"230 176 LINE SMOOTH",
"230 160 OFFCURVE",
"239 151 OFFCURVE",
"254 151 CURVE SMOOTH",
"577 151 LINE SMOOTH",
"593 151 OFFCURVE",
"601 143 OFFCURVE",
"601 127 CURVE SMOOTH",
"601 24 LINE SMOOTH",
"601 9 OFFCURVE",
"593 0 OFFCURVE",
"577 0 CURVE SMOOTH",
"156 0 LINE SMOOTH",
"140 0 OFFCURVE",
"131 9 OFFCURVE",
"131 24 CURVE SMOOTH"
);
}
);
width = 732;
}
);
unicode = 0045;
},
{
color = 6;
glyphname = F;
lastChange = "2017-12-05 02:44:33 +0000";
layers = (
{
layerId = "6B6936E6-7670-4A82-900D-EAF583C971AF";
paths = (
{
closed = 1;
nodes = (
"175 705 LINE SMOOTH",
"175 721 OFFCURVE",
"184 729 OFFCURVE",
"199 729 CURVE SMOOTH",
"550 729 LINE SMOOTH",
"566 729 OFFCURVE",
"575 720 OFFCURVE",
"575 705 CURVE SMOOTH",
"575 666 LINE SMOOTH",
"575 650 OFFCURVE",
"566 641 OFFCURVE",
"550 641 CURVE SMOOTH",
"298 641 LINE SMOOTH",
"282 641 OFFCURVE",
"273 633 OFFCURVE",
"273 617 CURVE SMOOTH",
"265 456 LINE SMOOTH",
"265 440 OFFCURVE",
"273 431 OFFCURVE",
"289 431 CURVE SMOOTH",
"524 431 LINE SMOOTH",
"540 431 OFFCURVE",
"548 423 OFFCURVE",
"548 407 CURVE SMOOTH",
"548 353 LINE SMOOTH",
"548 337 OFFCURVE",
"540 329 OFFCURVE",
"524 329 CURVE SMOOTH",
"294 329 LINE SMOOTH",
"278 329 OFFCURVE",
"270 320 OFFCURVE",
"270 304 CURVE SMOOTH",
"278 25 LINE SMOOTH",
"278 9 OFFCURVE",
"270 0 OFFCURVE",
"254 0 CURVE SMOOTH",
"181 0 LINE SMOOTH",
"165 0 OFFCURVE",
"156 9 OFFCURVE",
"156 25 CURVE SMOOTH"
);
}
);
width = 732;
}
);
unicode = 0046;
},
{
color = 6;
glyphname = G;
lastChange = "2017-12-05 02:44:33 +0000";
layers = (
{
anchors = (
{
name = bottom;
position = "{354, 0}";
},
{
name = top;
position = "{354, 729}";
}
);
layerId = "6B6936E6-7670-4A82-900D-EAF583C971AF";
paths = (
{
closed = 1;
nodes = (
"548 236 LINE SMOOTH",
"548 252 OFFCURVE",
"540 261 OFFCURVE",
"523 261 CURVE SMOOTH",
"401 261 LINE SMOOTH",
"386 261 OFFCURVE",
"377 270 OFFCURVE",
"377 285 CURVE SMOOTH",
"377 342 LINE SMOOTH",
"377 358 OFFCURVE",
"386 366 OFFCURVE",
"401 366 CURVE SMOOTH",
"636 366 LINE SMOOTH",
"652 366 OFFCURVE",
"660 357 OFFCURVE",
"660 342 CURVE SMOOTH",
"660 87 LINE SMOOTH",
"660 74 OFFCURVE",
"656 64 OFFCURVE",
"645 57 CURVE SMOOTH",
"571 10 OFFCURVE",
"484 -20 OFFCURVE",
"387 -14 CURVE SMOOTH",
"138 0 OFFCURVE",
"72 126 OFFCURVE",
"72 364 CURVE SMOOTH",
"72 602 OFFCURVE",
"213 742 OFFCURVE",
"387 742 CURVE SMOOTH",
"475 742 OFFCURVE",
"556 722 OFFCURVE",
"625 683 CURVE SMOOTH",
"636 676 OFFCURVE",
"641 667 OFFCURVE",
"641 654 CURVE SMOOTH",
"641 615 LINE SMOOTH",
"641 594 OFFCURVE",
"628 588 OFFCURVE",
"612 601 CURVE SMOOTH",
"546 647 OFFCURVE",
"474 671 OFFCURVE",
"396 671 CURVE SMOOTH",
"271 671 OFFCURVE",
"176 571 OFFCURVE",
"176 374 CURVE",
"183 194 OFFCURVE",
"247 145 OFFCURVE",
"396 145 CURVE SMOOTH",
"454 145 OFFCURVE",
"505 153 OFFCURVE",
"534 171 CURVE SMOOTH",
"545 178 OFFCURVE",
"548 188 OFFCURVE",
"548 200 CURVE SMOOTH"
);
}
);
width = 732;
}
);
unicode = 0047;
},
{
color = 6;
glyphname = H;
lastChange = "2017-12-05 02:44:33 +0000";
layers = (
{
anchors = (
{
name = center;
position = "{365, 365}";
},
{
name = top;
position = "{365, 729}";
}
);
layerId = "6B6936E6-7670-4A82-900D-EAF583C971AF";
paths = (
{
closed = 1;
nodes = (
"92 705 LINE SMOOTH",
"92 721 OFFCURVE",
"101 729 OFFCURVE",
"117 729 CURVE SMOOTH",
"171 729 LINE SMOOTH",
"187 729 OFFCURVE",
"196 720 OFFCURVE",
"196 705 CURVE SMOOTH",
"196 406 LINE SMOOTH",
"196 390 OFFCURVE",
"204 381 OFFCURVE",
"220 381 CURVE SMOOTH",
"510 381 LINE SMOOTH",
"526 381 OFFCURVE",
"535 390 OFFCURVE",
"535 406 CURVE SMOOTH",
"535 705 LINE SMOOTH",
"535 720 OFFCURVE",
"543 729 OFFCURVE",
"559 729 CURVE SMOOTH",
"614 729 LINE SMOOTH",
"630 729 OFFCURVE",
"638 721 OFFCURVE",
"639 705 CURVE SMOOTH",
"647 24 LINE SMOOTH",
"648 9 OFFCURVE",
"639 0 OFFCURVE",
"624 0 CURVE SMOOTH",
"559 0 LINE SMOOTH",
"543 0 OFFCURVE",
"535 8 OFFCURVE",
"535 24 CURVE SMOOTH",
"535 220 LINE SMOOTH",
"535 236 OFFCURVE",
"526 245 OFFCURVE",
"510 245 CURVE SMOOTH",
"220 245 LINE SMOOTH",
"205 245 OFFCURVE",
"196 236 OFFCURVE",
"196 220 CURVE SMOOTH",
"196 24 LINE SMOOTH",
"196 8 OFFCURVE",
"187 0 OFFCURVE",
"171 0 CURVE SMOOTH",
"107 0 LINE SMOOTH",
"91 0 OFFCURVE",
"82 9 OFFCURVE",
"83 24 CURVE SMOOTH"
);
}
);
width = 732;
}
);
unicode = 0048;
},
{
color = 6;
glyphname = I;
lastChange = "2017-12-05 02:44:33 +0000";
layers = (
{
anchors = (
{
name = ogonek;
position = "{366, 0}";
},
{
name = top;
position = "{370, 729}";
}
);
layerId = "6B6936E6-7670-4A82-900D-EAF583C971AF";
paths = (
{
closed = 1;
nodes = (
"320 252 OFFCURVE",
"321 478 OFFCURVE",
"325 705 CURVE SMOOTH",
"326 721 OFFCURVE",
"334 729 OFFCURVE",
"350 729 CURVE SMOOTH",
"385 729 LINE SMOOTH",
"401 729 OFFCURVE",
"410 721 OFFCURVE",
"410 705 CURVE SMOOTH",
"413 478 OFFCURVE",
"412 251 OFFCURVE",
"423 25 CURVE SMOOTH",
"424 9 OFFCURVE",
"416 0 OFFCURVE",
"399 0 CURVE SMOOTH",
"332 0 LINE SMOOTH",
"315 0 OFFCURVE",
"307 9 OFFCURVE",
"308 25 CURVE SMOOTH"
);
}
);
width = 732;
}
);
unicode = 0049;
},
{
color = 6;
glyphname = J;
lastChange = "2017-12-05 02:44:33 +0000";
layers = (
{
anchors = (
{
name = top;
position = "{498, 729}";
}
);
layerId = "6B6936E6-7670-4A82-900D-EAF583C971AF";
paths = (
{
closed = 1;
nodes = (
"422 705 LINE SMOOTH",
"423 721 OFFCURVE",
"431 729 OFFCURVE",
"447 729 CURVE SMOOTH",
"502 725 LINE SMOOTH",
"518 724 OFFCURVE",
"526 715 OFFCURVE",
"525 699 CURVE SMOOTH",
"495 31 LINE SMOOTH",
"487 -145 OFFCURVE",
"419 -208 OFFCURVE",
"265 -211 CURVE",
"231 -208 LINE SMOOTH",
"215 -206 OFFCURVE",
"208 -197 OFFCURVE",
"207 -182 CURVE SMOOTH",
"206 -72 LINE SMOOTH",
"206 -54 OFFCURVE",
"216 -46 OFFCURVE",
"233 -50 CURVE SMOOTH",
"241 -52 LINE SMOOTH",
"252 -54 OFFCURVE",
"259 -55 OFFCURVE",
"271 -54 CURVE SMOOTH",
"347 -45 OFFCURVE",
"379 -2 OFFCURVE",
"382 37 CURVE SMOOTH"
);
}
);
width = 732;
}
);
unicode = 004A;
},
{
color = 6;
glyphname = K;
lastChange = "2017-12-05 02:44:33 +0000";
layers = (
{
anchors = (
{
name = bottom;
position = "{348, 0}";
},
{
name = top;
position = "{348, 729}";
}
);
layerId = "6B6936E6-7670-4A82-900D-EAF583C971AF";
paths = (
{
closed = 1;
nodes = (
"101 705 LINE SMOOTH",
"101 721 OFFCURVE",
"109 729 OFFCURVE",
"125 729 CURVE SMOOTH",
"175 729 LINE SMOOTH",
"191 729 OFFCURVE",
"199 720 OFFCURVE",
"199 704 CURVE SMOOTH",
"191 463 LINE SMOOTH",
"190 441 OFFCURVE",
"205 435 OFFCURVE",
"221 450 CURVE SMOOTH",
"504 717 LINE SMOOTH",
"514 726 OFFCURVE",
"522 729 OFFCURVE",
"535 729 CURVE SMOOTH",
"600 729 LINE SMOOTH",
"623 729 OFFCURVE",
"628 714 OFFCURVE",
"612 699 CURVE SMOOTH",
"300 406 LINE SMOOTH",
"289 395 OFFCURVE",
"289 383 OFFCURVE",
"300 372 CURVE SMOOTH",
"640 30 LINE SMOOTH",
"655 15 OFFCURVE",
"649 0 OFFCURVE",
"627 0 CURVE SMOOTH",
"456 0 LINE SMOOTH",
"443 0 OFFCURVE",
"434 4 OFFCURVE",
"427 15 CURVE SMOOTH",
"222 306 LINE SMOOTH",
"208 325 OFFCURVE",
"192 319 OFFCURVE",
"193 295 CURVE SMOOTH",
"208 25 LINE SMOOTH",
"209 9 OFFCURVE",
"201 0 OFFCURVE",
"185 0 CURVE SMOOTH",
"106 0 LINE SMOOTH",
"90 0 OFFCURVE",
"82 9 OFFCURVE",
"82 25 CURVE SMOOTH"
);
}
);
width = 732;
}
);
unicode = 004B;
},
{
color = 6;
glyphname = L;
lastChange = "2017-12-05 02:44:33 +0000";
layers = (
{
anchors = (
{
name = "_ circumflexbelowcomb";
position = "{353, 0}";
},
{
name = top;
position = "{213, 729}";
}
);
layerId = "6B6936E6-7670-4A82-900D-EAF583C971AF";
paths = (
{
closed = 1;
nodes = (
"145 705 LINE SMOOTH",
"146 721 OFFCURVE",
"154 729 OFFCURVE",
"170 729 CURVE SMOOTH",
"220 729 LINE SMOOTH",
"236 729 OFFCURVE",
"245 720 OFFCURVE",
"245 705 CURVE SMOOTH",
"240 176 LINE SMOOTH",
"240 160 OFFCURVE",
"249 151 OFFCURVE",
"264 151 CURVE SMOOTH",
"569 151 LINE SMOOTH",
"586 151 OFFCURVE",
"594 143 OFFCURVE",
"593 126 CURVE SMOOTH",
"586 23 LINE SMOOTH",
"585 8 OFFCURVE",
"577 0 OFFCURVE",
"562 0 CURVE SMOOTH",
"161 0 LINE SMOOTH",
"145 0 OFFCURVE",
"136 9 OFFCURVE",
"137 24 CURVE SMOOTH"
);
}
);
width = 732;
}
);
unicode = 004C;
},
{
color = 6;
glyphname = M;
lastChange = "2017-12-05 02:44:33 +0000";
layers = (
{
anchors = (
{
name = _top;
position = "{373, 690}";
}
);
layerId = "6B6936E6-7670-4A82-900D-EAF583C971AF";
paths = (
{
closed = 1;
nodes = (
"61 705 LINE SMOOTH",
"61 721 OFFCURVE",
"69 729 OFFCURVE",
"85 729 CURVE SMOOTH",
"187 729 LINE SMOOTH",
"202 729 OFFCURVE",
"211 723 OFFCURVE",
"216 710 CURVE SMOOTH",
"349 334 LINE SMOOTH",
"356 314 OFFCURVE",
"374 314 OFFCURVE",
"381 334 CURVE SMOOTH",
"524 710 LINE SMOOTH",
"529 723 OFFCURVE",
"539 729 OFFCURVE",
"552 729 CURVE SMOOTH",
"645 729 LINE SMOOTH",
"661 729 OFFCURVE",
"669 721 OFFCURVE",
"670 705 CURVE SMOOTH",
"684 25 LINE SMOOTH",
"684 9 OFFCURVE",
"675 0 OFFCURVE",
"659 0 CURVE SMOOTH",
"574 0 LINE SMOOTH",
"558 0 OFFCURVE",
"549 9 OFFCURVE",
"550 25 CURVE SMOOTH",
"565 548 LINE SMOOTH",
"566 569 OFFCURVE",
"544 573 OFFCURVE",
"539 553 CURVE SMOOTH",
"431 126 LINE SMOOTH",
"428 112 OFFCURVE",
"417 106 OFFCURVE",
"403 106 CURVE SMOOTH",
"327 106 LINE SMOOTH",
"312 106 OFFCURVE",
"302 112 OFFCURVE",
"299 126 CURVE SMOOTH",
"191 553 LINE SMOOTH",
"186 573 OFFCURVE",
"164 569 OFFCURVE",
"165 548 CURVE SMOOTH",
"180 25 LINE SMOOTH",
"181 9 OFFCURVE",
"172 0 OFFCURVE",
"156 0 CURVE SMOOTH",
"71 0 LINE SMOOTH",
"55 0 OFFCURVE",
"46 9 OFFCURVE",
"47 25 CURVE SMOOTH"
);
}
);
width = 732;
}
);
unicode = 004D;
},
{
color = 6;
glyphname = N;
lastChange = "2017-12-05 02:44:33 +0000";
layers = (
{
anchors = (
{
name = _;
position = "{371, 0}";
},
{
name = top;
position = "{371, 729}";
}
);
layerId = "6B6936E6-7670-4A82-900D-EAF583C971AF";
paths = (
{
closed = 1;
nodes = (
"103 690 LINE SMOOTH",
"104 706 OFFCURVE",
"112 714 OFFCURVE",
"128 714 CURVE SMOOTH",
"207 714 LINE SMOOTH",
"221 714 OFFCURVE",
"230 709 OFFCURVE",
"236 697 CURVE SMOOTH",
"512 190 LINE SMOOTH",
"524 169 OFFCURVE",
"541 173 OFFCURVE",
"542 197 CURVE SMOOTH",
"555 705 LINE SMOOTH",
"555 721 OFFCURVE",
"563 729 OFFCURVE",
"579 729 CURVE SMOOTH",
"622 729 LINE SMOOTH",
"638 729 OFFCURVE",
"646 720 OFFCURVE",
"646 705 CURVE SMOOTH",
"646 24 LINE SMOOTH",
"646 9 OFFCURVE",
"637 0 OFFCURVE",
"622 0 CURVE SMOOTH",
"523 0 LINE SMOOTH",
"509 0 OFFCURVE",
"500 5 OFFCURVE",
"494 18 CURVE SMOOTH",
"212 550 LINE SMOOTH",
"200 572 OFFCURVE",
"182 567 OFFCURVE",
"184 542 CURVE SMOOTH",
"208 25 LINE SMOOTH",
"209 9 OFFCURVE",
"201 0 OFFCURVE",
"185 0 CURVE SMOOTH",
"109 0 LINE SMOOTH",
"93 0 OFFCURVE",
"84 9 OFFCURVE",
"85 25 CURVE SMOOTH"
);
}
);
width = 732;
}
);
unicode = 004E;
},
{
color = 6;
glyphname = O;
lastChange = "2017-12-05 02:44:33 +0000";
layers = (
{
anchors = (
{
name = horn;
position = "{638, 547}";
},
{
name = top;
position = "{366, 729}";
}
);
layerId = "6B6936E6-7670-4A82-900D-EAF583C971AF";
paths = (
{
closed = 1;
nodes = (
"243 662 OFFCURVE",
"157 548 OFFCURVE",
"157 364 CURVE SMOOTH",
"157 213 OFFCURVE",
"243 173 OFFCURVE",
"367 173 CURVE SMOOTH",
"490 173 OFFCURVE",
"575 213 OFFCURVE",
"575 364 CURVE SMOOTH",
"575 548 OFFCURVE",
"490 662 OFFCURVE",
"367 662 CURVE SMOOTH"
);
},
{
closed = 1;
nodes = (
"552 742 OFFCURVE",
"679 594 OFFCURVE",
"679 364 CURVE SMOOTH",
"679 134 OFFCURVE",
"552 -14 OFFCURVE",
"367 -14 CURVE SMOOTH",
"181 -14 OFFCURVE",
"53 133 OFFCURVE",
"53 364 CURVE SMOOTH",
"53 594 OFFCURVE",
"181 742 OFFCURVE",
"367 742 CURVE SMOOTH"
);
}
);
width = 732;
}
);
unicode = 004F;
},
{
color = 6;
glyphname = P;
lastChange = "2017-12-05 02:44:33 +0000";
layers = (
{
layerId = "6B6936E6-7670-4A82-900D-EAF583C971AF";
paths = (
{
closed = 1;
nodes = (
"275 687 LINE SMOOTH",
"259 687 OFFCURVE",
"250 679 OFFCURVE",
"250 663 CURVE SMOOTH",
"242 438 LINE SMOOTH",
"242 422 OFFCURVE",
"250 413 OFFCURVE",
"266 413 CURVE SMOOTH",
"375 413 LINE SMOOTH",
"473 413 OFFCURVE",
"529 462 OFFCURVE",
"529 550 CURVE SMOOTH",
"529 638 OFFCURVE",
"473 687 OFFCURVE",
"375 687 CURVE SMOOTH"
);
},
{
closed = 1;
nodes = (
"146 705 LINE SMOOTH",
"147 721 OFFCURVE",
"156 729 OFFCURVE",
"171 729 CURVE SMOOTH",
"365 729 LINE SMOOTH",
"529 729 OFFCURVE",
"613 654 OFFCURVE",
"613 511 CURVE SMOOTH",
"613 367 OFFCURVE",
"529 283 OFFCURVE",
"365 283 CURVE SMOOTH",
"270 283 LINE SMOOTH",
"254 283 OFFCURVE",
"246 275 OFFCURVE",
"245 259 CURVE SMOOTH",
"237 24 LINE SMOOTH",
"237 8 OFFCURVE",
"228 0 OFFCURVE",
"212 0 CURVE SMOOTH",
"143 0 LINE SMOOTH",
"127 0 OFFCURVE",
"119 9 OFFCURVE",
"119 25 CURVE SMOOTH"
);
}
);
width = 732;
}
);
unicode = 0050;
},
{
color = 6;
glyphname = Q;
lastChange = "2017-12-05 02:44:33 +0000";
layers = (
{
layerId = "6B6936E6-7670-4A82-900D-EAF583C971AF";
paths = (
{
closed = 1;
nodes = (
"225 662 OFFCURVE",
"139 548 OFFCURVE",
"139 364 CURVE SMOOTH",
"139 213 OFFCURVE",
"223 196 OFFCURVE",
"281 189 CURVE",
"307 186 LINE SMOOTH",
"341 180 OFFCURVE",
"327 184 OFFCURVE",
"369 247 CURVE SMOOTH",
"377 260 OFFCURVE",
"388 263 OFFCURVE",
"402 256 CURVE SMOOTH",
"441 236 OFFCURVE",
"473 202 OFFCURVE",
"514 229 CURVE SMOOTH",
"565 263 OFFCURVE",
"577 294 OFFCURVE",
"577 364 CURVE SMOOTH",
"577 548 OFFCURVE",
"492 662 OFFCURVE",
"358 662 CURVE SMOOTH"
);
},
{
closed = 1;
nodes = (
"687 -99 LINE SMOOTH",
"702 -115 OFFCURVE",
"695 -129 OFFCURVE",
"674 -129 CURVE SMOOTH",
"516 -129 LINE SMOOTH",
"503 -129 OFFCURVE",
"494 -125 OFFCURVE",
"486 -115 CURVE SMOOTH",
"407 -26 LINE SMOOTH",
"398 -16 OFFCURVE",
"389 -13 OFFCURVE",
"375 -13 CURVE SMOOTH",
"366 -14 OFFCURVE",
"360 -14 OFFCURVE",
"353 -14 CURVE SMOOTH",
"155 -14 OFFCURVE",
"35 134 OFFCURVE",
"35 364 CURVE SMOOTH",
"35 594 OFFCURVE",
"163 742 OFFCURVE",
"358 742 CURVE SMOOTH",
"553 742 OFFCURVE",
"681 594 OFFCURVE",
"681 364 CURVE SMOOTH",
"681 209 OFFCURVE",
"627 122 OFFCURVE",
"575 60 CURVE SMOOTH",
"565 48 OFFCURVE",
"565 37 OFFCURVE",
"576 25 CURVE SMOOTH"
);
}
);
width = 732;
}
);
unicode = 0051;
},
{
color = 6;
glyphname = R;
lastChange = "2017-12-05 02:44:33 +0000";
layers = (
{
anchors = (
{
name = bottom;
position = "{327, 0}";
},
{
name = top;
position = "{327, 729}";
}
);
layerId = "6B6936E6-7670-4A82-900D-EAF583C971AF";
paths = (
{
closed = 1;
nodes = (
"490 309 OFFCURVE",
"521 266 OFFCURVE",
"555 199 CURVE SMOOTH",
"640 29 LINE SMOOTH",
"649 12 OFFCURVE",
"642 0 OFFCURVE",
"623 0 CURVE SMOOTH",
"535 0 LINE SMOOTH",
"521 0 OFFCURVE",
"512 6 OFFCURVE",
"507 19 CURVE SMOOTH",
"441 187 LINE",
"393 285 OFFCURVE",
"356 308 OFFCURVE",
"278 308 CURVE SMOOTH",
"229 308 LINE SMOOTH",
"214 308 OFFCURVE",
"205 300 OFFCURVE",
"205 284 CURVE SMOOTH",
"205 24 LINE SMOOTH",
"205 9 OFFCURVE",
"197 0 OFFCURVE",
"181 0 CURVE SMOOTH",
"111 0 LINE SMOOTH",
"96 0 OFFCURVE",
"87 9 OFFCURVE",
"87 24 CURVE SMOOTH",
"87 705 LINE SMOOTH",
"87 721 OFFCURVE",
"95 729 OFFCURVE",
"111 729 CURVE SMOOTH",
"310 729 LINE SMOOTH",
"457 729 OFFCURVE",
"543 660 OFFCURVE",
"543 519 CURVE SMOOTH",
"543 438 OFFCURVE",
"511 381 OFFCURVE",
"457 352 CURVE SMOOTH",
"442 344 OFFCURVE",
"442 339 OFFCURVE",
"456 331 CURVE SMOOTH"
);
},
{
closed = 1;
nodes = (
"220 677 LINE SMOOTH",
"204 677 OFFCURVE",
"195 668 OFFCURVE",
"195 653 CURVE SMOOTH",
"195 433 LINE SMOOTH",
"195 417 OFFCURVE",
"204 409 OFFCURVE",
"220 409 CURVE SMOOTH",
"319 409 LINE SMOOTH",
"395 409 OFFCURVE",
"473 460 OFFCURVE",
"473 519 CURVE SMOOTH",
"473 644 OFFCURVE",
"395 677 OFFCURVE",
"319 677 CURVE SMOOTH"
);
}
);
width = 732;
}
);
unicode = 0052;
},
{
color = 6;
glyphname = S;
lastChange = "2017-12-05 02:44:33 +0000";
layers = (
{
anchors = (
{
name = bottom;
position = "{357, 0}";
},
{
name = top;
position = "{357, 729}";
}
);
layerId = "6B6936E6-7670-4A82-900D-EAF583C971AF";
paths = (
{
closed = 1;
nodes = (
"579 640 LINE SMOOTH",
"579 622 OFFCURVE",
"567 614 OFFCURVE",
"550 622 CURVE SMOOTH",
"487 649 OFFCURVE",
"431 662 OFFCURVE",
"377 662 CURVE SMOOTH",
"270 662 OFFCURVE",
"209 619 OFFCURVE",
"209 542 CURVE SMOOTH",
"209 478 OFFCURVE",
"240 449 OFFCURVE",
"348 429 CURVE SMOOTH",
"408 417 LINE SMOOTH",
"555 389 OFFCURVE",
"623 320 OFFCURVE",
"623 201 CURVE SMOOTH",
"623 60 OFFCURVE",
"527 -14 OFFCURVE",
"344 -14 CURVE SMOOTH",
"280 -14 OFFCURVE",
"208 -1 OFFCURVE",
"133 25 CURVE SMOOTH",
"119 30 OFFCURVE",
"112 39 OFFCURVE",
"112 53 CURVE SMOOTH",
"112 155 LINE SMOOTH",
"112 174 OFFCURVE",
"125 181 OFFCURVE",
"142 172 CURVE SMOOTH",
"211 137 OFFCURVE",
"279 120 OFFCURVE",
"344 120 CURVE SMOOTH",
"457 120 OFFCURVE",
"520 175 OFFCURVE",
"520 218 CURVE SMOOTH",
"520 257 OFFCURVE",
"479 303 OFFCURVE",
"379 323 CURVE SMOOTH",
"319 335 LINE SMOOTH",
"172 364 OFFCURVE",
"109 423 OFFCURVE",
"109 534 CURVE SMOOTH",
"109 663 OFFCURVE",
"206 742 OFFCURVE",
"366 742 CURVE SMOOTH",
"428 742 OFFCURVE",
"492 732 OFFCURVE",
"559 711 CURVE SMOOTH",
"573 708 OFFCURVE",
"579 698 OFFCURVE",
"579 684 CURVE SMOOTH"
);
}
);
width = 732;
}
);
unicode = 0053;
},
{
color = 6;
glyphname = T;
lastChange = "2017-12-05 02:44:33 +0000";
layers = (
{
anchors = (
{
name = bottom;
position = "{365, 0}";
},
{
name = center;
position = "{365, 365}";
},
{
name = top;
position = "{365, 729}";
}
);
layerId = "6B6936E6-7670-4A82-900D-EAF583C971AF";
paths = (
{
closed = 1;
nodes = (
"57 705 LINE SMOOTH",
"57 721 OFFCURVE",
"65 729 OFFCURVE",
"81 729 CURVE SMOOTH",
"649 729 LINE SMOOTH",
"666 729 OFFCURVE",
"674 720 OFFCURVE",
"674 705 CURVE SMOOTH",
"674 671 LINE SMOOTH",
"674 655 OFFCURVE",
"665 646 OFFCURVE",
"649 647 CURVE SMOOTH",
"440 655 LINE SMOOTH",
"424 655 OFFCURVE",
"416 647 OFFCURVE",
"416 630 CURVE SMOOTH",
"438 25 LINE SMOOTH",
"439 9 OFFCURVE",
"431 0 OFFCURVE",
"415 0 CURVE SMOOTH",
"316 0 LINE SMOOTH",
"300 0 OFFCURVE",
"292 9 OFFCURVE",
"292 25 CURVE SMOOTH",
"315 630 LINE SMOOTH",
"315 647 OFFCURVE",
"307 655 OFFCURVE",
"291 655 CURVE SMOOTH",
"82 647 LINE SMOOTH",
"65 646 OFFCURVE",
"57 655 OFFCURVE",
"57 671 CURVE SMOOTH"
);
}
);
width = 732;
}
);
unicode = 0054;
},
{
color = 6;
glyphname = U;
lastChange = "2017-12-05 02:44:33 +0000";
layers = (
{
anchors = (
{
name = horn;
position = "{622, 614}";
},
{
name = ogonek;
position = "{375, 0}";
},
{
name = top;
position = "{366, 729}";
}
);
layerId = "6B6936E6-7670-4A82-900D-EAF583C971AF";
paths = (
{
closed = 1;
nodes = (
"82 705 LINE SMOOTH",
"82 721 OFFCURVE",
"90 729 OFFCURVE",
"106 729 CURVE SMOOTH",
"162 729 LINE SMOOTH",
"178 729 OFFCURVE",
"186 720 OFFCURVE",
"186 704 CURVE SMOOTH",
"182 354 LINE SMOOTH",
"180 198 OFFCURVE",
"240 134 OFFCURVE",
"367 134 CURVE SMOOTH",
"493 134 OFFCURVE",
"553 198 OFFCURVE",
"551 354 CURVE SMOOTH",
"547 704 LINE SMOOTH",
"547 720 OFFCURVE",
"555 729 OFFCURVE",
"571 729 CURVE SMOOTH",
"626 729 LINE SMOOTH",
"642 729 OFFCURVE",
"650 720 OFFCURVE",
"650 705 CURVE SMOOTH",
"646 274 LINE SMOOTH",
"644 84 OFFCURVE",
"550 -14 OFFCURVE",
"367 -14 CURVE SMOOTH",
"183 -14 OFFCURVE",
"89 84 OFFCURVE",
"87 274 CURVE SMOOTH"
);
}
);
width = 732;
}
);
unicode = 0055;
},
{
color = 6;
glyphname = V;
lastChange = "2017-12-05 02:44:33 +0000";
layers = (
{
layerId = "6B6936E6-7670-4A82-900D-EAF583C971AF";
paths = (
{
closed = 1;
nodes = (
"307 0 LINE SMOOTH",
"293 0 OFFCURVE",
"283 6 OFFCURVE",
"279 20 CURVE SMOOTH",
"76 701 LINE SMOOTH",
"71 718 OFFCURVE",
"78 729 OFFCURVE",
"96 729 CURVE SMOOTH",
"149 729 LINE SMOOTH",
"163 729 OFFCURVE",
"173 723 OFFCURVE",
"177 710 CURVE SMOOTH",
"350 222 LINE SMOOTH",
"357 202 OFFCURVE",
"375 202 OFFCURVE",
"382 222 CURVE SMOOTH",
"556 710 LINE SMOOTH",
"560 723 OFFCURVE",
"570 729 OFFCURVE",
"584 729 CURVE SMOOTH",
"636 729 LINE SMOOTH",
"654 729 OFFCURVE",
"661 718 OFFCURVE",
"656 701 CURVE SMOOTH",
"454 20 LINE SMOOTH",
"450 6 OFFCURVE",
"440 0 OFFCURVE",
"426 0 CURVE SMOOTH"
);
}
);
width = 732;
}
);
unicode = 0056;
},
{
color = 6;
glyphname = W;
lastChange = "2017-12-05 02:44:33 +0000";
layers = (
{
anchors = (
{
name = top;
position = "{358, 729}";
}
);
layerId = "6B6936E6-7670-4A82-900D-EAF583C971AF";
paths = (
{
closed = 1;
nodes = (
"46 702 LINE SMOOTH",
"45 719 OFFCURVE",
"51 729 OFFCURVE",
"68 729 CURVE SMOOTH",
"114 729 LINE SMOOTH",
"128 729 OFFCURVE",
"141 722 OFFCURVE",
"141 708 CURVE SMOOTH",
"164 243 LINE SMOOTH",
"165 222 OFFCURVE",
"185 219 OFFCURVE",
"197 240 CURVE SMOOTH",
"305 443 LINE SMOOTH",
"311 455 OFFCURVE",
"321 460 OFFCURVE",
"334 460 CURVE SMOOTH",
"381 460 LINE SMOOTH",
"395 460 OFFCURVE",
"404 455 OFFCURVE",
"410 443 CURVE SMOOTH",
"507 237 LINE SMOOTH",
"517 216 OFFCURVE",
"537 217 OFFCURVE",
"539 239 CURVE SMOOTH",
"589 708 LINE SMOOTH",
"591 722 OFFCURVE",
"602 729 OFFCURVE",
"617 729 CURVE SMOOTH",
"663 729 LINE SMOOTH",
"680 729 OFFCURVE",
"686 719 OFFCURVE",
"685 702 CURVE SMOOTH",
"620 21 LINE SMOOTH",
"618 7 OFFCURVE",
"607 0 OFFCURVE",
"593 0 CURVE SMOOTH",
"491 0 LINE SMOOTH",
"477 0 OFFCURVE",
"469 6 OFFCURVE",
"463 19 CURVE SMOOTH",
"376 212 LINE SMOOTH",
"367 234 OFFCURVE",
"355 234 OFFCURVE",
"345 212 CURVE SMOOTH",
"254 18 LINE SMOOTH",
"248 5 OFFCURVE",
"239 0 OFFCURVE",
"225 0 CURVE SMOOTH",
"114 0 LINE SMOOTH",
"99 0 OFFCURVE",
"88 7 OFFCURVE",
"87 22 CURVE SMOOTH"
);
}
);
width = 732;
}
);
unicode = 0057;
},
{
color = 6;
glyphname = X;
lastChange = "2017-12-05 02:44:33 +0000";
layers = (
{
layerId = "6B6936E6-7670-4A82-900D-EAF583C971AF";
paths = (
{
closed = 1;
nodes = (
"103 700 LINE SMOOTH",
"94 717 OFFCURVE",
"101 729 OFFCURVE",
"120 729 CURVE SMOOTH",
"173 729 LINE SMOOTH",
"187 729 OFFCURVE",
"196 724 OFFCURVE",
"203 712 CURVE SMOOTH",
"357 448 LINE SMOOTH",
"367 431 OFFCURVE",
"381 431 OFFCURVE",
"391 448 CURVE SMOOTH",
"546 712 LINE SMOOTH",
"553 724 OFFCURVE",
"562 729 OFFCURVE",
"576 729 CURVE SMOOTH",
"628 729 LINE SMOOTH",
"648 729 OFFCURVE",
"655 717 OFFCURVE",
"645 700 CURVE SMOOTH",
"448 357 LINE SMOOTH",
"440 345 OFFCURVE",
"441 335 OFFCURVE",
"449 323 CURVE SMOOTH",
"657 30 LINE SMOOTH",
"668 13 OFFCURVE",
"662 0 OFFCURVE",
"642 0 CURVE SMOOTH",
"538 0 LINE SMOOTH",
"524 0 OFFCURVE",
"515 5 OFFCURVE",
"508 17 CURVE SMOOTH",
"383 232 LINE SMOOTH",
"374 249 OFFCURVE",
"359 249 OFFCURVE",
"350 232 CURVE SMOOTH",
"224 17 LINE SMOOTH",
"217 5 OFFCURVE",
"208 0 OFFCURVE",
"194 0 CURVE SMOOTH",
"91 0 LINE SMOOTH",
"70 0 OFFCURVE",
"63 13 OFFCURVE",
"76 30 CURVE SMOOTH",
"292 324 LINE SMOOTH",
"300 335 OFFCURVE",
"301 346 OFFCURVE",
"294 358 CURVE SMOOTH"
);
}
);
width = 732;
}
);
unicode = 0058;
},
{
color = 6;
glyphname = Y;
lastChange = "2017-12-05 02:44:33 +0000";
layers = (
{
anchors = (
{
name = top;
position = "{365, 729}";
}
);
layerId = "6B6936E6-7670-4A82-900D-EAF583C971AF";
paths = (
{
closed = 1;
nodes = (
"72 700 LINE SMOOTH",
"64 717 OFFCURVE",
"71 729 OFFCURVE",
"90 729 CURVE SMOOTH",
"145 729 LINE SMOOTH",
"158 729 OFFCURVE",
"167 724 OFFCURVE",
"173 712 CURVE SMOOTH",
"350 387 LINE SMOOTH",
"359 370 OFFCURVE",
"374 370 OFFCURVE",
"383 387 CURVE SMOOTH",
"558 712 LINE SMOOTH",
"564 724 OFFCURVE",
"573 729 OFFCURVE",
"586 729 CURVE SMOOTH",
"641 729 LINE SMOOTH",
"660 729 OFFCURVE",
"667 717 OFFCURVE",
"658 700 CURVE SMOOTH",
"437 264 LINE SMOOTH",
"432 253 OFFCURVE",
"430 245 OFFCURVE",
"430 233 CURVE SMOOTH",
"430 24 LINE SMOOTH",
"430 9 OFFCURVE",
"421 0 OFFCURVE",
"405 0 CURVE SMOOTH",
"321 0 LINE SMOOTH",
"305 0 OFFCURVE",
"296 8 OFFCURVE",
"296 24 CURVE SMOOTH",
"296 233 LINE SMOOTH",
"296 245 OFFCURVE",
"294 253 OFFCURVE",
"289 264 CURVE SMOOTH"
);
}
);
width = 732;
}
);
unicode = 0059;
},
{
color = 6;
glyphname = Z;
lastChange = "2017-12-05 02:44:33 +0000";
layers = (
{
anchors = (
{
name = top;
position = "{375, 729}";
}
);
layerId = "6B6936E6-7670-4A82-900D-EAF583C971AF";
paths = (
{
closed = 1;
nodes = (
"67 705 LINE SMOOTH",
"67 721 OFFCURVE",
"75 729 OFFCURVE",
"91 729 CURVE SMOOTH",
"615 729 LINE SMOOTH",
"631 729 OFFCURVE",
"640 720 OFFCURVE",
"640 705 CURVE SMOOTH",
"640 671 LINE SMOOTH",
"640 659 OFFCURVE",
"636 650 OFFCURVE",
"628 641 CURVE SMOOTH",
"216 176 LINE SMOOTH",
"202 161 OFFCURVE",
"208 146 OFFCURVE",
"229 146 CURVE SMOOTH",
"641 146 LINE SMOOTH",
"657 146 OFFCURVE",
"666 138 OFFCURVE",
"666 122 CURVE SMOOTH",
"666 24 LINE SMOOTH",
"666 9 OFFCURVE",
"657 0 OFFCURVE",
"641 0 CURVE SMOOTH",
"89 0 LINE SMOOTH",
"74 0 OFFCURVE",
"65 9 OFFCURVE",
"65 24 CURVE SMOOTH",
"65 121 LINE SMOOTH",
"65 134 OFFCURVE",
"69 142 OFFCURVE",
"77 151 CURVE SMOOTH",
"489 616 LINE SMOOTH",
"504 632 OFFCURVE",
"498 646 OFFCURVE",
"476 646 CURVE SMOOTH",
"91 646 LINE SMOOTH",
"75 646 OFFCURVE",
"67 655 OFFCURVE",
"67 670 CURVE SMOOTH"
);
}
);
width = 732;
}
);
unicode = 005A;
},
{
glyphname = bracketleft;
lastChange = "2017-12-05 02:44:33 +0000";
layers = (
{
layerId = "6B6936E6-7670-4A82-900D-EAF583C971AF";
paths = (
{
closed = 1;
nodes = (
"275 736 LINE SMOOTH",
"275 751 OFFCURVE",
"284 760 OFFCURVE",
"300 760 CURVE SMOOTH",
"458 760 LINE SMOOTH",
"475 760 OFFCURVE",
"483 751 OFFCURVE",
"483 735 CURVE SMOOTH",
"483 714 LINE SMOOTH",
"483 699 OFFCURVE",
"474 690 OFFCURVE",
"458 690 CURVE SMOOTH",
"390 690 LINE SMOOTH",
"374 690 OFFCURVE",
"366 681 OFFCURVE",
"366 666 CURVE SMOOTH",
"346 1 LINE SMOOTH",
"346 -15 OFFCURVE",
"354 -23 OFFCURVE",
"371 -23 CURVE SMOOTH",
"439 -23 LINE SMOOTH",
"455 -23 OFFCURVE",
"463 -32 OFFCURVE",
"463 -47 CURVE SMOOTH",
"463 -107 LINE SMOOTH",
"463 -124 OFFCURVE",
"455 -132 OFFCURVE",
"439 -132 CURVE SMOOTH",
"271 -132 LINE SMOOTH",
"255 -132 OFFCURVE",
"247 -123 OFFCURVE",
"248 -107 CURVE SMOOTH"
);
}
);
width = 732;
}
);
unicode = 005B;
},
{
glyphname = backslash;
lastChange = "2017-12-05 02:44:33 +0000";
layers = (
{
layerId = "6B6936E6-7670-4A82-900D-EAF583C971AF";
paths = (
{
closed = 1;
nodes = (
"183 727 LINE SMOOTH",
"197 727 OFFCURVE",
"203 720 OFFCURVE",
"210 706 CURVE SMOOTH",
"604 -78 LINE SMOOTH",
"612 -95 OFFCURVE",
"601 -105 OFFCURVE",
"583 -105 CURVE SMOOTH",
"517 -103 LINE SMOOTH",
"502 -102 OFFCURVE",
"496 -95 OFFCURVE",
"490 -81 CURVE SMOOTH",
"128 701 LINE SMOOTH",
"120 718 OFFCURVE",
"132 729 OFFCURVE",
"149 728 CURVE SMOOTH"
);
}
);
width = 732;
}
);
unicode = 005C;
},
{
glyphname = bracketright;
lastChange = "2017-12-05 02:44:33 +0000";
layers = (
{
layerId = "6B6936E6-7670-4A82-900D-EAF583C971AF";
paths = (
{
closed = 1;
nodes = (
"417 760 LINE SMOOTH",
"433 760 OFFCURVE",
"441 751 OFFCURVE",
"442 736 CURVE SMOOTH",
"496 -106 LINE SMOOTH",
"497 -123 OFFCURVE",
"489 -132 OFFCURVE",
"472 -132 CURVE SMOOTH",
"291 -132 LINE SMOOTH",
"275 -132 OFFCURVE",
"266 -123 OFFCURVE",
"266 -107 CURVE SMOOTH",
"266 -52 LINE SMOOTH",
"266 -37 OFFCURVE",
"275 -28 OFFCURVE",
"291 -28 CURVE SMOOTH",
"358 -28 LINE SMOOTH",
"374 -28 OFFCURVE",
"409 -19 OFFCURVE",
"407 -3 CURVE SMOOTH",
"351 666 LINE SMOOTH",
"349 682 OFFCURVE",
"342 690 OFFCURVE",
"326 690 CURVE SMOOTH",
"258 690 LINE SMOOTH",
"243 690 OFFCURVE",
"234 699 OFFCURVE",
"234 714 CURVE SMOOTH",
"234 735 LINE SMOOTH",
"234 751 OFFCURVE",
"242 760 OFFCURVE",
"258 760 CURVE SMOOTH"
);
}
);
width = 732;
}
);
unicode = 005D;
},
{
glyphname = asciicircum;
lastChange = "2017-12-05 02:44:33 +0000";
layers = (
{
layerId = "6B6936E6-7670-4A82-900D-EAF583C971AF";
paths = (
{
closed = 1;
nodes = (
"386 729 LINE SMOOTH",
"398 729 OFFCURVE",
"407 726 OFFCURVE",
"416 717 CURVE SMOOTH",
"648 487 LINE SMOOTH",
"664 472 OFFCURVE",
"657 457 OFFCURVE",
"635 457 CURVE SMOOTH",
"545 457 LINE SMOOTH",
"532 457 OFFCURVE",
"523 461 OFFCURVE",
"516 472 CURVE SMOOTH",
"382 656 LINE SMOOTH",
"372 670 OFFCURVE",
"358 670 OFFCURVE",
"348 656 CURVE SMOOTH",
"215 472 LINE SMOOTH",
"207 461 OFFCURVE",
"199 457 OFFCURVE",
"186 457 CURVE SMOOTH",
"95 457 LINE SMOOTH",
"73 457 OFFCURVE",
"67 472 OFFCURVE",
"82 487 CURVE SMOOTH",
"314 717 LINE SMOOTH",
"324 726 OFFCURVE",
"332 729 OFFCURVE",
"345 729 CURVE SMOOTH"
);
}
);
width = 732;
}
);
unicode = 005E;
},
{
glyphname = underscore;
lastChange = "2017-12-05 02:44:33 +0000";
layers = (
{
hints = (
{
horizontal = 1;
place = "{-216, 88}";
}
);
layerId = "6B6936E6-7670-4A82-900D-EAF583C971AF";
paths = (
{
closed = 1;
nodes = (
"602 -129 LINE SMOOTH",
"617 -129 OFFCURVE",
"626 -138 OFFCURVE",
"626 -153 CURVE SMOOTH",
"626 -192 LINE SMOOTH",
"626 -208 OFFCURVE",
"618 -216 OFFCURVE",
"602 -216 CURVE SMOOTH",
"131 -216 LINE SMOOTH",
"115 -216 OFFCURVE",
"106 -208 OFFCURVE",
"106 -192 CURVE SMOOTH",
"106 -153 LINE SMOOTH",
"106 -138 OFFCURVE",
"115 -129 OFFCURVE",
"131 -129 CURVE SMOOTH"
);
}
);
width = 732;
}
);
unicode = 005F;
},
{
glyphname = grave;
lastChange = "2017-12-05 02:44:33 +0000";
layers = (
{
anchors = (
{
name = _top;
position = "{412, 398}";
}
);
layerId = "6B6936E6-7670-4A82-900D-EAF583C971AF";
paths = (
{
closed = 1;
nodes = (
"328 839 LINE SMOOTH",
"341 839 OFFCURVE",
"350 834 OFFCURVE",
"358 824 CURVE SMOOTH",
"462 686 LINE SMOOTH",
"474 669 OFFCURVE",
"468 656 OFFCURVE",
"447 656 CURVE SMOOTH",
"371 656 LINE SMOOTH",
"357 656 OFFCURVE",
"348 662 OFFCURVE",
"342 673 CURVE SMOOTH",
"267 810 LINE SMOOTH",
"257 827 OFFCURVE",
"265 839 OFFCURVE",
"284 839 CURVE SMOOTH"
);
}
);
width = 732;
}
);
unicode = 0060;
},
{
color = 7;
glyphname = a;
lastChange = "2017-12-05 02:44:33 +0000";
layers = (
{
anchors = (
{
name = ogonek;
position = "{328, 0}";
},
{
name = top;
position = "{380, 547}";
}
);
layerId = "6B6936E6-7670-4A82-900D-EAF583C971AF";
paths = (
{
closed = 1;
nodes = (
"376 279 LINE SMOOTH",
"254 279 OFFCURVE",
"216 255 OFFCURVE",
"211 198 CURVE SMOOTH",
"210 188 OFFCURVE",
"210 180 OFFCURVE",
"214 169 CURVE SMOOTH",
"229 127 OFFCURVE",
"273 123 OFFCURVE",
"332 123 CURVE SMOOTH",
"422 123 OFFCURVE",
"457 142 OFFCURVE",
"457 259 CURVE SMOOTH",
"457 255 LINE SMOOTH",
"457 271 OFFCURVE",
"448 279 OFFCURVE",
"433 279 CURVE SMOOTH"
);
},
{
closed = 1;
nodes = (
"597 24 LINE SMOOTH",
"597 9 OFFCURVE",
"589 0 OFFCURVE",
"573 0 CURVE SMOOTH",
"532 0 LINE SMOOTH",
"516 0 OFFCURVE",
"507 8 OFFCURVE",
"507 24 CURVE SMOOTH",
"507 35 LINE SMOOTH",
"507 57 OFFCURVE",
"496 61 OFFCURVE",
"480 45 CURVE SMOOTH",
"441 6 OFFCURVE",
"389 -14 OFFCURVE",
"318 -14 CURVE SMOOTH",
"207 -14 OFFCURVE",
"135 54 OFFCURVE",
"135 159 CURVE SMOOTH",
"135 282 OFFCURVE",
"218 345 OFFCURVE",
"381 345 CURVE SMOOTH",
"483 345 LINE SMOOTH",
"499 345 OFFCURVE",
"507 348 OFFCURVE",
"507 354 CURVE SMOOTH",
"507 437 OFFCURVE",
"457 487 OFFCURVE",
"352 494 CURVE",
"300 494 OFFCURVE",
"250 483 OFFCURVE",
"204 463 CURVE SMOOTH",
"187 455 OFFCURVE",
"175 462 OFFCURVE",
"175 480 CURVE SMOOTH",
"175 501 LINE SMOOTH",
"175 515 OFFCURVE",
"182 524 OFFCURVE",
"195 529 CURVE SMOOTH",
"253 550 OFFCURVE",
"309 560 OFFCURVE",
"361 560 CURVE SMOOTH",
"520 560 OFFCURVE",
"597 479 OFFCURVE",
"597 312 CURVE SMOOTH"
);
}
);
width = 732;
}
);
leftKerningGroup = Round;
unicode = 0061;
},
{
color = 7;
glyphname = b;
lastChange = "2017-12-05 02:44:33 +0000";
layers = (
{
anchors = (
{
name = "new anchor";
position = "{134, 150}";
}
);
hints = (
{
place = "{99, 65}";
}
);
layerId = "6B6936E6-7670-4A82-900D-EAF583C971AF";
paths = (
{
closed = 1;
nodes = (
"527 178 OFFCURVE",
"478 151 OFFCURVE",
"401 146 CURVE",
"270 146 OFFCURVE",
"262 188 OFFCURVE",
"249 289 CURVE",
"249 421 OFFCURVE",
"306 496 OFFCURVE",
"401 496 CURVE SMOOTH",
"493 496 OFFCURVE",
"540 426 OFFCURVE",
"547 309 CURVE SMOOTH",
"547 297 OFFCURVE",
"547 290 OFFCURVE",
"545 278 CURVE SMOOTH"
);
},
{
closed = 1;
nodes = (
"194 27 OFFCURVE",
"237 -14 OFFCURVE",
"380 -14 CURVE SMOOTH",
"513 -14 OFFCURVE",
"604 101 OFFCURVE",
"604 273 CURVE SMOOTH",
"604 445 OFFCURVE",
"513 560 OFFCURVE",
"380 560 CURVE SMOOTH",
"317 560 OFFCURVE",
"268 546 OFFCURVE",
"231 508 CURVE SMOOTH",
"216 492 OFFCURVE",
"206 495 OFFCURVE",
"207 517 CURVE SMOOTH",
"214 735 LINE SMOOTH",
"215 751 OFFCURVE",
"207 760 OFFCURVE",
"190 760 CURVE SMOOTH",
"150 760 LINE SMOOTH",
"134 760 OFFCURVE",
"125 750 OFFCURVE",
"126 734 CURVE SMOOTH",
"144 428 OFFCURVE",
"149 140 OFFCURVE",
"168 99 CURVE"
);
}
);
width = 732;
}
);
rightKerningGroup = RoundRight;
unicode = 0062;
},
{
color = 7;
glyphname = c;
lastChange = "2017-12-05 02:44:33 +0000";
layers = (
{
anchors = (
{
name = bottom;
position = "{386, 0}";
},
{
name = top;
position = "{386, 547}";
}
);
layerId = "6B6936E6-7670-4A82-900D-EAF583C971AF";
paths = (
{
closed = 1;
nodes = (
"582 479 LINE SMOOTH",
"582 461 OFFCURVE",
"570 454 OFFCURVE",
"553 462 CURVE SMOOTH",
"512 480 OFFCURVE",
"470 489 OFFCURVE",
"428 489 CURVE SMOOTH",
"311 489 OFFCURVE",
"249 406 OFFCURVE",
"249 273 CURVE",
"258 179 OFFCURVE",
"307 147 OFFCURVE",
"424 141 CURVE",
"467 141 OFFCURVE",
"510 136 OFFCURVE",
"552 150 CURVE SMOOTH",
"569 156 OFFCURVE",
"580 150 OFFCURVE",
"580 132 CURVE SMOOTH",
"581 42 LINE SMOOTH",
"582 27 OFFCURVE",
"576 18 OFFCURVE",
"563 13 CURVE SMOOTH",
"518 -5 OFFCURVE",
"471 -14 OFFCURVE",
"418 -14 CURVE SMOOTH",
"253 -14 OFFCURVE",
"149 97 OFFCURVE",
"149 273 CURVE SMOOTH",
"149 451 OFFCURVE",
"253 560 OFFCURVE",
"424 560 CURVE SMOOTH",
"472 560 OFFCURVE",
"519 552 OFFCURVE",
"563 535 CURVE SMOOTH",
"576 530 OFFCURVE",
"582 521 OFFCURVE",
"582 507 CURVE SMOOTH"
);
}
);
width = 732;
}
);
leftKerningGroup = Round;
unicode = 0063;
},
{
color = 7;
glyphname = d;
lastChange = "2017-12-05 02:44:33 +0000";
layers = (
{
anchors = (
{
name = bottom;
position = "{368, -22}";
},
{
name = center;
position = "{411, 273}";
},
{
name = top;
position = "{340, 560}";
}
);
layerId = "6B6936E6-7670-4A82-900D-EAF583C971AF";
paths = (
{
closed = 1;
nodes = (
"549 760 LINE SMOOTH",
"533 760 OFFCURVE",
"524 751 OFFCURVE",
"524 736 CURVE SMOOTH",
"517 507 LINE SMOOTH",
"516 485 OFFCURVE",
"504 482 OFFCURVE",
"490 500 CURVE SMOOTH",
"454 540 OFFCURVE",
"404 560 OFFCURVE",
"340 560 CURVE SMOOTH",
"207 560 OFFCURVE",
"116 445 OFFCURVE",
"116 273 CURVE SMOOTH",
"116 101 OFFCURVE",
"207 -14 OFFCURVE",
"340 -14 CURVE SMOOTH",
"404 -14 OFFCURVE",
"453 5 OFFCURVE",
"489 46 CURVE SMOOTH",
"504 63 OFFCURVE",
"515 60 OFFCURVE",
"515 38 CURVE SMOOTH",
"515 24 LINE SMOOTH",
"515 9 OFFCURVE",
"523 0 OFFCURVE",
"540 0 CURVE SMOOTH",
"581 0 LINE SMOOTH",
"597 0 OFFCURVE",
"605 8 OFFCURVE",
"605 24 CURVE SMOOTH",
"614 735 LINE SMOOTH",
"615 751 OFFCURVE",
"606 760 OFFCURVE",
"590 760 CURVE SMOOTH"
);
},
{
closed = 1;
nodes = (
"429 495 OFFCURVE",
"472 422 OFFCURVE",
"475 290 CURVE SMOOTH",
"472 169 OFFCURVE",
"426 149 OFFCURVE",
"331 149 CURVE SMOOTH",
"241 149 OFFCURVE",
"200 184 OFFCURVE",
"183 268 CURVE SMOOTH",
"181 279 OFFCURVE",
"181 287 OFFCURVE",
"181 298 CURVE SMOOTH",
"185 421 OFFCURVE",
"242 495 OFFCURVE",
"333 495 CURVE SMOOTH"
);
}
);
width = 732;
}
);
leftKerningGroup = Round;
unicode = 0064;
},
{
color = 7;
glyphname = e;
lastChange = "2017-12-05 02:44:33 +0000";
layers = (
{
anchors = (
{
name = _hook;
position = "{384, 539}";
},
{
name = bottom;
position = "{367, 0}";
},
{
name = ogonek;
position = "{395, 16}";
},
{
name = top;
position = "{367, 547}";
}
);
layerId = "6B6936E6-7670-4A82-900D-EAF583C971AF";
paths = (
{
closed = 1;
nodes = (
"617 310 LINE SMOOTH",
"617 294 OFFCURVE",
"608 285 OFFCURVE",
"593 285 CURVE SMOOTH",
"234 285 LINE SMOOTH",
"218 285 OFFCURVE",
"209 276 OFFCURVE",
"210 260 CURVE SMOOTH",
"220 136 OFFCURVE",
"287 125 OFFCURVE",
"398 119 CURVE",
"457 119 OFFCURVE",
"513 119 OFFCURVE",
"568 135 CURVE SMOOTH",
"585 140 OFFCURVE",
"596 135 OFFCURVE",
"596 117 CURVE SMOOTH",
"597 44 LINE SMOOTH",
"598 30 OFFCURVE",
"592 20 OFFCURVE",
"579 16 CURVE SMOOTH",
"520 -2 OFFCURVE",
"458 -14 OFFCURVE",
"395 -14 CURVE",
"221 -8 OFFCURVE",
"115 84 OFFCURVE",
"115 257 CURVE",
"122 437 OFFCURVE",
"219 560 OFFCURVE",
"384 560 CURVE",
"530 554 OFFCURVE",
"605 476 OFFCURVE",
"617 319 CURVE"
);
},
{
closed = 1;
nodes = (
"511 359 LINE SMOOTH",
"528 359 OFFCURVE",
"538 370 OFFCURVE",
"532 386 CURVE SMOOTH",
"512 440 OFFCURVE",
"460 513 OFFCURVE",
"384 513 CURVE SMOOTH",
"297 513 OFFCURVE",
"236 442 OFFCURVE",
"222 384 CURVE SMOOTH",
"218 368 OFFCURVE",
"228 358 OFFCURVE",
"245 358 CURVE SMOOTH"
);
}
);
width = 732;
}
);
leftKerningGroup = Round;
unicode = 0065;
},
{
color = 7;
glyphname = f;
lastChange = "2017-12-05 02:44:33 +0000";
layers = (
{
layerId = "6B6936E6-7670-4A82-900D-EAF583C971AF";
paths = (
{
closed = 1;
nodes = (
"523 838 LINE SMOOTH",
"538 836 OFFCURVE",
"546 828 OFFCURVE",
"546 813 CURVE SMOOTH",
"546 787 LINE SMOOTH",
"546 770 OFFCURVE",
"537 762 OFFCURVE",
"520 764 CURVE SMOOTH",
"465 771 LINE",
"420 771 OFFCURVE",
"403 758 OFFCURVE",
"401 595 CURVE",
"404 570 LINE SMOOTH",
"405 555 OFFCURVE",
"414 547 OFFCURVE",
"430 547 CURVE SMOOTH",
"553 547 LINE SMOOTH",
"569 547 OFFCURVE",
"577 539 OFFCURVE",
"577 522 CURVE SMOOTH",
"577 482 LINE SMOOTH",
"577 466 OFFCURVE",
"568 458 OFFCURVE",
"553 458 CURVE SMOOTH",
"431 458 LINE SMOOTH",
"415 458 OFFCURVE",
"407 449 OFFCURVE",
"407 433 CURVE SMOOTH",
"420 25 LINE SMOOTH",
"420 9 OFFCURVE",
"412 0 OFFCURVE",
"396 0 CURVE SMOOTH",
"294 0 LINE SMOOTH",
"278 0 OFFCURVE",
"269 9 OFFCURVE",
"271 25 CURVE SMOOTH",
"305 433 LINE SMOOTH",
"307 449 OFFCURVE",
"297 458 OFFCURVE",
"281 458 CURVE SMOOTH",
"180 458 LINE SMOOTH",
"164 458 OFFCURVE",
"155 466 OFFCURVE",
"155 482 CURVE SMOOTH",
"155 522 LINE SMOOTH",
"155 539 OFFCURVE",
"164 547 OFFCURVE",
"180 547 CURVE SMOOTH",
"283 547 LINE SMOOTH",
"298 547 OFFCURVE",
"307 555 OFFCURVE",
"309 570 CURVE SMOOTH",
"311 585 LINE",
"313 802 OFFCURVE",
"382 845 OFFCURVE",
"466 845 CURVE"
);
}
);
width = 732;
}
);
unicode = 0066;
},
{
color = 7;
glyphname = g;
lastChange = "2017-12-05 02:44:33 +0000";
layers = (
{
anchors = (
{
name = comma;
position = "{344, -262}";
},
{
name = top;
position = "{377, 547}";
}
);
layerId = "6B6936E6-7670-4A82-900D-EAF583C971AF";
paths = (
{
closed = 1;
nodes = (
"477 416 OFFCURVE",
"421 490 OFFCURVE",
"324 490 CURVE SMOOTH",
"228 490 OFFCURVE",
"171 416 OFFCURVE",
"171 285 CURVE",
"184 156 OFFCURVE",
"221 146 OFFCURVE",
"317 146 CURVE SMOOTH",
"414 146 OFFCURVE",
"477 156 OFFCURVE",
"477 285 CURVE SMOOTH"
);
},
{
closed = 1;
nodes = (
"601 68 LINE SMOOTH",
"591 -277 OFFCURVE",
"515 -355 OFFCURVE",
"344 -355 CURVE SMOOTH",
"289 -355 OFFCURVE",
"240 -348 OFFCURVE",
"193 -333 CURVE SMOOTH",
"180 -329 OFFCURVE",
"173 -320 OFFCURVE",
"173 -306 CURVE SMOOTH",
"173 -198 LINE SMOOTH",
"173 -180 OFFCURVE",
"185 -173 OFFCURVE",
"202 -181 CURVE SMOOTH",
"245 -200 OFFCURVE",
"287 -208 OFFCURVE",
"330 -208 CURVE SMOOTH",
"424 -208 OFFCURVE",
"476 -143 OFFCURVE",
"499 10 CURVE SMOOTH",
"505 48 OFFCURVE",
"513 77 OFFCURVE",
"484 51 CURVE SMOOTH",
"451 21 OFFCURVE",
"402 0 OFFCURVE",
"341 0 CURVE SMOOTH",
"207 0 OFFCURVE",
"117 111 OFFCURVE",
"117 280 CURVE SMOOTH",
"117 449 OFFCURVE",
"207 560 OFFCURVE",
"341 560 CURVE SMOOTH",
"406 560 OFFCURVE",
"456 540 OFFCURVE",
"492 498 CURVE SMOOTH",
"506 481 OFFCURVE",
"519 483 OFFCURVE",
"521 505 CURVE SMOOTH",
"523 526 LINE SMOOTH",
"525 540 OFFCURVE",
"534 547 OFFCURVE",
"549 547 CURVE SMOOTH",
"591 547 LINE SMOOTH",
"607 547 OFFCURVE",
"615 538 OFFCURVE",
"615 522 CURVE SMOOTH"
);
}
);
width = 732;
}
);
unicode = 0067;
},
{
color = 7;
glyphname = h;
lastChange = "2017-12-05 02:44:33 +0000";
layers = (
{
anchors = (
{
name = center;
position = "{331, 273}";
},
{
name = top;
position = "{331, 547}";
}
);
layerId = "6B6936E6-7670-4A82-900D-EAF583C971AF";
paths = (
{
closed = 1;
nodes = (
"613 25 LINE SMOOTH",
"614 9 OFFCURVE",
"605 0 OFFCURVE",
"589 0 CURVE SMOOTH",
"525 0 LINE SMOOTH",
"509 0 OFFCURVE",
"500 9 OFFCURVE",
"501 25 CURVE SMOOTH",
"515 327 LINE SMOOTH",
"520 452 OFFCURVE",
"474 492 OFFCURVE",
"394 492 CURVE SMOOTH",
"296 492 OFFCURVE",
"237 416 OFFCURVE",
"237 309 CURVE SMOOTH",
"246 25 LINE SMOOTH",
"246 9 OFFCURVE",
"238 0 OFFCURVE",
"222 0 CURVE SMOOTH",
"142 0 LINE SMOOTH",
"126 0 OFFCURVE",
"117 9 OFFCURVE",
"118 25 CURVE SMOOTH",
"156 836 LINE SMOOTH",
"157 852 OFFCURVE",
"165 860 OFFCURVE",
"181 860 CURVE SMOOTH",
"222 860 LINE SMOOTH",
"238 860 OFFCURVE",
"247 851 OFFCURVE",
"246 835 CURVE SMOOTH",
"238 507 LINE SMOOTH",
"238 485 OFFCURVE",
"249 481 OFFCURVE",
"265 498 CURVE SMOOTH",
"304 540 OFFCURVE",
"353 560 OFFCURVE",
"414 560 CURVE SMOOTH",
"539 560 OFFCURVE",
"604 481 OFFCURVE",
"604 330 CURVE SMOOTH"
);
}
);
width = 732;
}
);
unicode = 0068;
},
{
color = 7;
glyphname = i;
lastChange = "2017-12-05 02:44:33 +0000";
layers = (
{
layerId = "6B6936E6-7670-4A82-900D-EAF583C971AF";
paths = (
{
closed = 1;
nodes = (
"335 255 OFFCURVE",
"377 316 OFFCURVE",
"306 520 CURVE SMOOTH",
"301 533 OFFCURVE",
"315 542 OFFCURVE",
"331 542 CURVE SMOOTH",
"413 542 LINE SMOOTH",
"429 542 OFFCURVE",
"440 533 OFFCURVE",
"437 517 CURVE SMOOTH",
"412 343 OFFCURVE",
"408 137 OFFCURVE",
"455 21 CURVE SMOOTH",
"462 4 OFFCURVE",
"448 -5 OFFCURVE",
"432 -5 CURVE SMOOTH",
"299 -5 LINE SMOOTH",
"282 -5 OFFCURVE",
"271 3 OFFCURVE",
"275 20 CURVE SMOOTH"
);
},
{
closed = 1;
nodes = (
"324 741 LINE SMOOTH",
"325 756 OFFCURVE",
"334 765 OFFCURVE",
"349 765 CURVE SMOOTH",
"391 765 LINE SMOOTH",
"407 765 OFFCURVE",
"416 756 OFFCURVE",
"416 741 CURVE SMOOTH",
"419 676 LINE SMOOTH",
"420 660 OFFCURVE",
"411 651 OFFCURVE",
"395 651 CURVE SMOOTH",
"345 651 LINE SMOOTH",
"329 651 OFFCURVE",
"321 660 OFFCURVE",
"321 676 CURVE SMOOTH"
);
}
);
width = 732;
}
);
unicode = 0069;
},
{
color = 7;
glyphname = j;
lastChange = "2017-12-05 02:44:33 +0000";
layers = (
{
layerId = "6B6936E6-7670-4A82-900D-EAF583C971AF";
paths = (
{
closed = 1;
nodes = (
"411 521 LINE SMOOTH",
"411 537 OFFCURVE",
"420 545 OFFCURVE",
"436 545 CURVE SMOOTH",
"513 543 LINE SMOOTH",
"528 543 OFFCURVE",
"537 534 OFFCURVE",
"536 519 CURVE SMOOTH",
"493 -72 LINE SMOOTH",
"483 -212 OFFCURVE",
"360 -347 OFFCURVE",
"243 -351 CURVE",
"218 -351 LINE SMOOTH",
"202 -350 OFFCURVE",
"194 -342 OFFCURVE",
"194 -326 CURVE SMOOTH",
"196 -201 LINE SMOOTH",
"196 -185 OFFCURVE",
"205 -176 OFFCURVE",
"221 -177 CURVE SMOOTH",
"235 -177 LINE",
"303 -171 OFFCURVE",
"402 -133 OFFCURVE",
"404 46 CURVE SMOOTH"
);
},
{
closed = 1;
nodes = (
"436 736 LINE SMOOTH",
"436 751 OFFCURVE",
"445 760 OFFCURVE",
"460 760 CURVE SMOOTH",
"493 760 LINE SMOOTH",
"508 760 OFFCURVE",
"517 751 OFFCURVE",
"518 736 CURVE SMOOTH",
"521 671 LINE SMOOTH",
"521 655 OFFCURVE",
"513 646 OFFCURVE",
"497 646 CURVE SMOOTH",
"457 646 LINE SMOOTH",
"440 646 OFFCURVE",
"432 655 OFFCURVE",
"433 671 CURVE SMOOTH"
);
}
);
width = 732;
}
);
unicode = 006A;
},
{
color = 7;
glyphname = k;
lastChange = "2017-12-05 02:44:33 +0000";
layers = (
{
anchors = (
{
name = bottom;
position = "{316, 0}";
}
);
layerId = "6B6936E6-7670-4A82-900D-EAF583C971AF";
paths = (
{
closed = 1;
nodes = (
"146 736 LINE SMOOTH",
"146 751 OFFCURVE",
"155 760 OFFCURVE",
"170 760 CURVE SMOOTH",
"212 760 LINE SMOOTH",
"228 760 OFFCURVE",
"237 751 OFFCURVE",
"236 735 CURVE SMOOTH",
"232 377 LINE SMOOTH",
"232 354 OFFCURVE",
"248 349 OFFCURVE",
"262 366 CURVE SMOOTH",
"405 533 LINE SMOOTH",
"414 543 OFFCURVE",
"422 547 OFFCURVE",
"435 547 CURVE SMOOTH",
"493 547 LINE SMOOTH",
"514 547 OFFCURVE",
"521 533 OFFCURVE",
"507 517 CURVE SMOOTH",
"339 309 LINE SMOOTH",
"330 297 OFFCURVE",
"331 286 OFFCURVE",
"342 275 CURVE SMOOTH",
"596 30 LINE SMOOTH",
"612 15 OFFCURVE",
"606 0 OFFCURVE",
"583 0 CURVE SMOOTH",
"459 0 LINE SMOOTH",
"447 0 OFFCURVE",
"438 4 OFFCURVE",
"430 14 CURVE SMOOTH",
"264 218 LINE SMOOTH",
"250 236 OFFCURVE",
"233 230 OFFCURVE",
"235 207 CURVE SMOOTH",
"245 25 LINE SMOOTH",
"246 9 OFFCURVE",
"238 0 OFFCURVE",
"222 0 CURVE SMOOTH",
"152 0 LINE SMOOTH",
"136 0 OFFCURVE",
"127 9 OFFCURVE",
"127 25 CURVE SMOOTH"
);
}
);
width = 732;
}
);
unicode = 006B;
},
{
color = 7;
glyphname = l;
lastChange = "2017-12-05 02:44:33 +0000";
layers = (
{
anchors = (
{
name = bottom;
position = "{401, -61}";
},
{
name = dot;
position = "{456, 406}";
},
{
name = top;
position = "{287, 709}";
},
{
name = topright;
position = "{390, 721}";
}
);
layerId = "6B6936E6-7670-4A82-900D-EAF583C971AF";
paths = (
{
closed = 1;
nodes = (
"213 275 OFFCURVE",
"262 422 OFFCURVE",
"216 714 CURVE SMOOTH",
"214 730 OFFCURVE",
"226 738 OFFCURVE",
"241 738 CURVE SMOOTH",
"316 738 LINE SMOOTH",
"332 738 OFFCURVE",
"339 729 OFFCURVE",
"339 713 CURVE SMOOTH",
"339 466 OFFCURVE",
"329 305 OFFCURVE",
"362 136 CURVE SMOOTH",
"365 120 OFFCURVE",
"370 111 OFFCURVE",
"386 111 CURVE SMOOTH",
"490 111 LINE SMOOTH",
"507 111 OFFCURVE",
"515 103 OFFCURVE",
"515 86 CURVE SMOOTH",
"515 24 LINE SMOOTH",
"515 9 OFFCURVE",
"506 0 OFFCURVE",
"490 0 CURVE SMOOTH",
"259 0 LINE SMOOTH",
"243 0 OFFCURVE",
"236 9 OFFCURVE",
"235 25 CURVE SMOOTH"
);
}
);
width = 732;
}
);
unicode = 006C;
},
{
color = 7;
glyphname = m;
lastChange = "2017-12-05 02:44:33 +0000";
layers = (
{
layerId = "6B6936E6-7670-4A82-900D-EAF583C971AF";
paths = (
{
closed = 1;
nodes = (
"432 516 OFFCURVE",
"473 560 OFFCURVE",
"531 560 CURVE SMOOTH",
"625 560 OFFCURVE",
"671 477 OFFCURVE",
"671 330 CURVE SMOOTH",
"670 25 LINE SMOOTH",
"670 9 OFFCURVE",
"662 0 OFFCURVE",
"646 0 CURVE SMOOTH",
"581 0 LINE SMOOTH",
"564 0 OFFCURVE",
"566 9 OFFCURVE",
"567 25 CURVE SMOOTH",
"599 342 LINE",
"599 447 OFFCURVE",
"577 497 OFFCURVE",
"520 497 CURVE SMOOTH",
"471 497 OFFCURVE",
"434 382 OFFCURVE",
"434 309 CURVE SMOOTH",
"433 24 LINE SMOOTH",
"433 8 OFFCURVE",
"424 0 OFFCURVE",
"408 0 CURVE SMOOTH",
"335 0 LINE SMOOTH",
"319 0 OFFCURVE",
"311 9 OFFCURVE",
"313 26 CURVE SMOOTH",
"353 347 LINE",
"372 451 OFFCURVE",
"331 495 OFFCURVE",
"291 495 CURVE SMOOTH",
"226 495 OFFCURVE",
"176 415 OFFCURVE",
"180 309 CURVE SMOOTH",
"188 25 LINE SMOOTH",
"189 9 OFFCURVE",
"181 0 OFFCURVE",
"165 0 CURVE SMOOTH",
"83 0 LINE SMOOTH",
"67 0 OFFCURVE",
"58 9 OFFCURVE",
"60 25 CURVE SMOOTH",
"101 523 LINE SMOOTH",
"102 539 OFFCURVE",
"110 547 OFFCURVE",
"125 547 CURVE SMOOTH",
"154 547 LINE SMOOTH",
"170 547 OFFCURVE",
"179 538 OFFCURVE",
"177 521 CURVE SMOOTH",
"175 509 LINE SMOOTH",
"173 486 OFFCURVE",
"187 488 OFFCURVE",
"199 508 CURVE SMOOTH",
"212 529 OFFCURVE",
"228 560 OFFCURVE",
"290 560 CURVE SMOOTH",
"337 560 OFFCURVE",
"354 529 OFFCURVE",
"387 470 CURVE SMOOTH",
"395 454 OFFCURVE",
"409 451 OFFCURVE",
"415 468 CURVE SMOOTH"
);
}
);
width = 732;
}
);
unicode = 006D;
},
{
color = 7;
glyphname = n;
lastChange = "2017-12-05 02:44:33 +0000";
layers = (
{
anchors = (
{
name = bottom;
position = "{356, 0}";
},
{
name = top;
position = "{356, 547}";
}
);
layerId = "6B6936E6-7670-4A82-900D-EAF583C971AF";
paths = (
{
closed = 1;
nodes = (
"610 25 LINE SMOOTH",
"611 9 OFFCURVE",
"603 0 OFFCURVE",
"586 0 CURVE SMOOTH",
"508 0 LINE SMOOTH",
"491 0 OFFCURVE",
"483 9 OFFCURVE",
"484 25 CURVE SMOOTH",
"502 332 LINE",
"502 436 OFFCURVE",
"471 487 OFFCURVE",
"391 487 CURVE SMOOTH",
"281 487 OFFCURVE",
"229 421 OFFCURVE",
"229 314 CURVE",
"243 25 LINE SMOOTH",
"243 9 OFFCURVE",
"235 0 OFFCURVE",
"219 0 CURVE SMOOTH",
"144 0 LINE SMOOTH",
"128 0 OFFCURVE",
"119 9 OFFCURVE",
"120 25 CURVE SMOOTH",
"133 528 LINE SMOOTH",
"134 543 OFFCURVE",
"142 552 OFFCURVE",
"158 552 CURVE SMOOTH",
"200 552 LINE SMOOTH",
"216 552 OFFCURVE",
"224 543 OFFCURVE",
"224 527 CURVE SMOOTH",
"224 523 LINE SMOOTH",
"224 502 OFFCURVE",
"237 496 OFFCURVE",
"253 508 CURVE SMOOTH",
"292 535 OFFCURVE",
"341 560 OFFCURVE",
"401 560 CURVE SMOOTH",
"526 560 OFFCURVE",
"590 481 OFFCURVE",
"597 330 CURVE SMOOTH"
);
}
);
width = 732;
}
);
unicode = 006E;
},
{
color = 7;
glyphname = o;
lastChange = "2017-12-05 02:44:33 +0000";
layers = (
{
anchors = (
{
name = _;
position = "{344, 547}";
},
{
name = horn;
position = "{528, 392}";
},
{
name = top;
position = "{337, 547}";
}
);
layerId = "6B6936E6-7670-4A82-900D-EAF583C971AF";
paths = (
{
closed = 1;
nodes = (
"270 494 OFFCURVE",
"210 416 OFFCURVE",
"210 289 CURVE SMOOTH",
"210 161 OFFCURVE",
"269 141 OFFCURVE",
"366 141 CURVE SMOOTH",
"462 141 OFFCURVE",
"522 162 OFFCURVE",
"522 289 CURVE SMOOTH",
"522 414 OFFCURVE",
"462 494 OFFCURVE",
"366 494 CURVE SMOOTH"
);
},
{
closed = 1;
nodes = (
"522 560 OFFCURVE",
"617 453 OFFCURVE",
"617 273 CURVE SMOOTH",
"617 94 OFFCURVE",
"522 -14 OFFCURVE",
"366 -14 CURVE SMOOTH",
"209 -14 OFFCURVE",
"115 94 OFFCURVE",
"115 273 CURVE SMOOTH",
"115 453 OFFCURVE",
"209 560 OFFCURVE",
"366 560 CURVE SMOOTH"
);
}
);
width = 732;
}
);
leftKerningGroup = Round;
rightKerningGroup = RoundRight;
unicode = 006F;
},
{
color = 7;
glyphname = p;
lastChange = "2017-12-05 02:44:33 +0000";
layers = (
{
hints = (
{
place = "{141, 115}";
},
{
horizontal = 1;
place = "{497, 63}";
},
{
horizontal = 1;
place = "{-3, 140}";
},
{
place = "{562, 63}";
}
);
layerId = "6B6936E6-7670-4A82-900D-EAF583C971AF";
paths = (
{
closed = 1;
nodes = (
"220 -184 LINE SMOOTH",
"220 -200 OFFCURVE",
"211 -208 OFFCURVE",
"195 -208 CURVE SMOOTH",
"131 -208 LINE SMOOTH",
"115 -208 OFFCURVE",
"106 -199 OFFCURVE",
"108 -182 CURVE SMOOTH",
"148 127 LINE",
"148 514 LINE SMOOTH",
"148 530 OFFCURVE",
"157 539 OFFCURVE",
"173 539 CURVE SMOOTH",
"211 539 LINE SMOOTH",
"228 539 OFFCURVE",
"237 529 OFFCURVE",
"233 512 CURVE SMOOTH",
"233 509 LINE SMOOTH",
"228 487 OFFCURVE",
"235 484 OFFCURVE",
"251 501 CURVE SMOOTH",
"287 541 OFFCURVE",
"335 560 OFFCURVE",
"398 560 CURVE SMOOTH",
"531 560 OFFCURVE",
"623 445 OFFCURVE",
"623 273 CURVE SMOOTH",
"623 101 OFFCURVE",
"531 -14 OFFCURVE",
"398 -14 CURVE SMOOTH",
"335 -14 OFFCURVE",
"286 5 OFFCURVE",
"249 46 CURVE SMOOTH",
"234 63 OFFCURVE",
"223 60 OFFCURVE",
"223 38 CURVE SMOOTH"
);
},
{
closed = 1;
nodes = (
"565 421 OFFCURVE",
"507 500 OFFCURVE",
"412 500 CURVE SMOOTH",
"317 500 OFFCURVE",
"259 421 OFFCURVE",
"259 289 CURVE SMOOTH",
"259 156 OFFCURVE",
"322 134 OFFCURVE",
"417 134 CURVE SMOOTH",
"512 134 OFFCURVE",
"565 156 OFFCURVE",
"565 289 CURVE SMOOTH"
);
}
);
width = 732;
}
);
rightKerningGroup = RoundRight;
unicode = 0070;
},
{
color = 7;
glyphname = q;
lastChange = "2017-12-05 02:44:33 +0000";
layers = (
{
associatedMasterId = "6B6936E6-7670-4A82-900D-EAF583C971AF";
layerId = "550EFC85-22CC-4D43-B167-1DAEAAA2FB65";
name = "Regular May 31 12, 16:28";
paths = (
{
closed = 1;
nodes = (
"175 153 OFFCURVE",
"230 136 OFFCURVE",
"326 136 CURVE SMOOTH",
"421 136 OFFCURVE",
"481 153 OFFCURVE",
"481 286 CURVE SMOOTH",
"481 418 OFFCURVE",
"423 498 OFFCURVE",
"328 498 CURVE SMOOTH",
"233 498 OFFCURVE",
"175 418 OFFCURVE",
"175 286 CURVE SMOOTH"
);
},
{
closed = 1;
nodes = (
"515 82 LINE",
"477 17 OFFCURVE",
"420 -14 OFFCURVE",
"339 -14 CURVE SMOOTH",
"207 -14 OFFCURVE",
"116 101 OFFCURVE",
"116 273 CURVE SMOOTH",
"116 445 OFFCURVE",
"207 560 OFFCURVE",
"339 560 CURVE SMOOTH",
"420 560 OFFCURVE",
"477 529 OFFCURVE",
"515 464 CURVE",
"529 547 LINE",
"616 547 LINE",
"579 -118 LINE SMOOTH",
"575 -208 LINE",
"492 -208 LINE"
);
}
);
width = 732;
},
{
layerId = "6B6936E6-7670-4A82-900D-EAF583C971AF";
paths = (
{
closed = 1;
nodes = (
"148 153 OFFCURVE",
"204 136 OFFCURVE",
"299 136 CURVE SMOOTH",
"394 136 OFFCURVE",
"455 153 OFFCURVE",
"455 286 CURVE SMOOTH",
"455 418 OFFCURVE",
"396 498 OFFCURVE",
"301 498 CURVE SMOOTH",
"206 498 OFFCURVE",
"148 418 OFFCURVE",
"148 286 CURVE SMOOTH"
);
},
{
closed = 1;
nodes = (
"483 36 LINE SMOOTH",
"486 59 OFFCURVE",
"476 62 OFFCURVE",
"461 45 CURVE SMOOTH",
"424 5 OFFCURVE",
"375 -14 OFFCURVE",
"312 -14 CURVE SMOOTH",
"180 -14 OFFCURVE",
"89 101 OFFCURVE",
"89 273 CURVE SMOOTH",
"89 445 OFFCURVE",
"180 560 OFFCURVE",
"312 560 CURVE SMOOTH",
"378 560 OFFCURVE",
"428 539 OFFCURVE",
"465 497 CURVE SMOOTH",
"479 480 OFFCURVE",
"491 482 OFFCURVE",
"495 503 CURVE SMOOTH",
"499 525 LINE SMOOTH",
"501 540 OFFCURVE",
"510 547 OFFCURVE",
"525 547 CURVE SMOOTH",
"564 547 LINE SMOOTH",
"581 547 OFFCURVE",
"589 538 OFFCURVE",
"588 522 CURVE SMOOTH",
"542 -114 LINE SMOOTH",
"541 -127 OFFCURVE",
"545 -136 OFFCURVE",
"555 -145 CURVE SMOOTH",
"633 -220 LINE SMOOTH",
"645 -231 OFFCURVE",
"645 -244 OFFCURVE",
"632 -254 CURVE SMOOTH",
"583 -295 LINE SMOOTH",
"574 -304 OFFCURVE",
"565 -307 OFFCURVE",
"553 -307 CURVE SMOOTH",
"469 -308 LINE SMOOTH",
"453 -308 OFFCURVE",
"444 -299 OFFCURVE",
"446 -282 CURVE SMOOTH"
);
}
);
width = 732;
}
);
leftKerningGroup = Round;
unicode = 0071;
},
{
color = 7;
glyphname = r;
lastChange = "2017-12-05 02:44:33 +0000";
layers = (
{
anchors = (
{
name = bottom;
position = "{321, 0}";
},
{
name = top;
position = "{321, 547}";
}
);
layerId = "6B6936E6-7670-4A82-900D-EAF583C971AF";
paths = (
{
closed = 1;
nodes = (
"530 482 LINE SMOOTH",
"530 464 OFFCURVE",
"521 460 OFFCURVE",
"503 463 CURVE SMOOTH",
"491 465 OFFCURVE",
"479 465 OFFCURVE",
"462 465 CURVE SMOOTH",
"361 465 OFFCURVE",
"319 391 OFFCURVE",
"319 273 CURVE",
"337 25 LINE SMOOTH",
"338 9 OFFCURVE",
"330 0 OFFCURVE",
"313 0 CURVE SMOOTH",
"225 0 LINE SMOOTH",
"208 0 OFFCURVE",
"200 10 OFFCURVE",
"203 27 CURVE SMOOTH",
"238 225 OFFCURVE",
"243 311 OFFCURVE",
"237 517 CURVE SMOOTH",
"237 533 OFFCURVE",
"245 542 OFFCURVE",
"261 542 CURVE SMOOTH",
"295 542 LINE SMOOTH",
"311 542 OFFCURVE",
"319 535 OFFCURVE",
"319 522 CURVE SMOOTH",
"319 502 OFFCURVE",
"332 496 OFFCURVE",
"348 507 CURVE SMOOTH",
"379 526 OFFCURVE",
"429 550 OFFCURVE",
"489 550 CURVE SMOOTH",
"496 550 OFFCURVE",
"501 550 OFFCURVE",
"509 549 CURVE SMOOTH",
"522 547 OFFCURVE",
"529 538 OFFCURVE",
"529 523 CURVE SMOOTH"
);
}
);
width = 732;
}
);
unicode = 0072;
},
{
color = 7;
glyphname = s;
lastChange = "2017-12-05 02:44:33 +0000";
layers = (
{
anchors = (
{
name = bottom;
position = "{358, 0}";
},
{
name = top;
position = "{358, 547}";
}
);
layerId = "6B6936E6-7670-4A82-900D-EAF583C971AF";
paths = (
{
closed = 1;
nodes = (
"546 487 LINE SMOOTH",
"546 468 OFFCURVE",
"535 461 OFFCURVE",
"518 469 CURVE SMOOTH",
"475 486 OFFCURVE",
"430 495 OFFCURVE",
"382 495 CURVE SMOOTH",
"292 495 OFFCURVE",
"243 462 OFFCURVE",
"243 408 CURVE SMOOTH",
"243 359 OFFCURVE",
"272 336 OFFCURVE",
"368 315 CURVE SMOOTH",
"399 308 LINE SMOOTH",
"526 281 OFFCURVE",
"575 240 OFFCURVE",
"575 151 CURVE SMOOTH",
"575 49 OFFCURVE",
"490 -14 OFFCURVE",
"349 -14 CURVE SMOOTH",
"296 -14 OFFCURVE",
"240 -5 OFFCURVE",
"178 14 CURVE SMOOTH",
"164 18 OFFCURVE",
"157 27 OFFCURVE",
"157 41 CURVE SMOOTH",
"157 120 LINE SMOOTH",
"157 139 OFFCURVE",
"169 146 OFFCURVE",
"186 138 CURVE SMOOTH",
"242 113 OFFCURVE",
"297 100 OFFCURVE",
"351 100 CURVE SMOOTH",
"425 100 OFFCURVE",
"463 121 OFFCURVE",
"472 157 CURVE SMOOTH",
"474 169 OFFCURVE",
"471 177 OFFCURVE",
"465 188 CURVE SMOOTH",
"458 200 OFFCURVE",
"451 209 OFFCURVE",
"445 216 CURVE SMOOTH",
"438 225 OFFCURVE",
"406 235 OFFCURVE",
"350 248 CURVE SMOOTH",
"319 255 LINE SMOOTH",
"208 278 OFFCURVE",
"161 314 OFFCURVE",
"161 399 CURVE SMOOTH",
"161 502 OFFCURVE",
"237 560 OFFCURVE",
"371 560 CURVE SMOOTH",
"429 560 OFFCURVE",
"481 553 OFFCURVE",
"526 538 CURVE SMOOTH",
"540 533 OFFCURVE",
"546 524 OFFCURVE",
"546 510 CURVE SMOOTH"
);
}
);
width = 732;
}
);
unicode = 0073;
},
{
color = 7;
glyphname = t;
lastChange = "2017-12-05 02:44:33 +0000";
layers = (
{
anchors = (
{
name = bottom;
position = "{404, 0}";
},
{
name = center;
position = "{358, 273}";
},
{
name = circumflexbelowcomb;
position = "{412, -25}";
}
);
layerId = "6B6936E6-7670-4A82-900D-EAF583C971AF";
paths = (
{
closed = 1;
nodes = (
"336 683 LINE SMOOTH",
"352 683 OFFCURVE",
"360 674 OFFCURVE",
"360 658 CURVE SMOOTH",
"357 572 LINE SMOOTH",
"356 556 OFFCURVE",
"365 547 OFFCURVE",
"381 547 CURVE SMOOTH",
"458 547 LINE SMOOTH",
"474 547 OFFCURVE",
"482 538 OFFCURVE",
"482 522 CURVE SMOOTH",
"482 501 LINE SMOOTH",
"482 486 OFFCURVE",
"474 477 OFFCURVE",
"458 477 CURVE SMOOTH",
"380 477 LINE SMOOTH",
"364 477 OFFCURVE",
"356 469 OFFCURVE",
"355 453 CURVE SMOOTH",
"351 239 LINE SMOOTH",
"351 149 OFFCURVE",
"369 134 OFFCURVE",
"444 134 CURVE SMOOTH",
"512 134 LINE SMOOTH",
"528 134 OFFCURVE",
"536 125 OFFCURVE",
"536 109 CURVE SMOOTH",
"536 24 LINE SMOOTH",
"536 9 OFFCURVE",
"527 0 OFFCURVE",
"512 0 CURVE SMOOTH",
"444 0 LINE SMOOTH",
"305 0 OFFCURVE",
"240 43 OFFCURVE",
"247 180 CURVE SMOOTH",
"260 453 LINE SMOOTH",
"261 468 OFFCURVE",
"252 477 OFFCURVE",
"236 477 CURVE SMOOTH",
"216 477 LINE SMOOTH",
"202 477 OFFCURVE",
"195 486 OFFCURVE",
"195 501 CURVE SMOOTH",
"195 522 LINE SMOOTH",
"195 539 OFFCURVE",
"203 547 OFFCURVE",
"219 547 CURVE SMOOTH",
"237 547 LINE SMOOTH",
"252 547 OFFCURVE",
"261 555 OFFCURVE",
"262 571 CURVE SMOOTH",
"265 659 LINE SMOOTH",
"265 674 OFFCURVE",
"274 683 OFFCURVE",
"290 683 CURVE SMOOTH"
);
}
);
width = 732;
}
);
unicode = 0074;
},
{
color = 7;
glyphname = u;
lastChange = "2017-12-05 02:44:33 +0000";
layers = (
{
anchors = (
{
name = horn;
position = "{575, 446}";
},
{
name = ogonek;
position = "{547, 5}";
},
{
name = top;
position = "{371, 547}";
}
);
layerId = "6B6936E6-7670-4A82-900D-EAF583C971AF";
paths = (
{
closed = 1;
nodes = (
"136 522 LINE SMOOTH",
"136 539 OFFCURVE",
"144 547 OFFCURVE",
"160 547 CURVE SMOOTH",
"187 547 LINE SMOOTH",
"203 547 OFFCURVE",
"211 539 OFFCURVE",
"211 522 CURVE SMOOTH",
"211 297 LINE",
"217 194 OFFCURVE",
"251 142 OFFCURVE",
"332 142 CURVE SMOOTH",
"429 142 OFFCURVE",
"483 208 OFFCURVE",
"489 315 CURVE SMOOTH",
"498 523 LINE SMOOTH",
"499 539 OFFCURVE",
"507 546 OFFCURVE",
"523 547 CURVE SMOOTH",
"571 548 LINE SMOOTH",
"586 549 OFFCURVE",
"595 540 OFFCURVE",
"595 524 CURVE SMOOTH",
"586 26 LINE SMOOTH",
"585 10 OFFCURVE",
"577 2 OFFCURVE",
"561 1 CURVE SMOOTH",
"524 0 LINE SMOOTH",
"508 0 OFFCURVE",
"500 9 OFFCURVE",
"501 25 CURVE SMOOTH",
"501 38 LINE SMOOTH",
"502 60 OFFCURVE",
"491 64 OFFCURVE",
"475 47 CURVE SMOOTH",
"436 6 OFFCURVE",
"388 -14 OFFCURVE",
"328 -14 CURVE SMOOTH",
"202 -14 OFFCURVE",
"136 65 OFFCURVE",
"136 216 CURVE SMOOTH"
);
}
);
width = 732;
}
);
unicode = 0075;
},
{
color = 7;
glyphname = v;
lastChange = "2017-12-05 02:44:33 +0000";
layers = (
{
layerId = "6B6936E6-7670-4A82-900D-EAF583C971AF";
paths = (
{
closed = 1;
nodes = (
"109 519 LINE SMOOTH",
"103 536 OFFCURVE",
"111 547 OFFCURVE",
"129 547 CURVE SMOOTH",
"174 547 LINE SMOOTH",
"188 547 OFFCURVE",
"197 541 OFFCURVE",
"202 528 CURVE SMOOTH",
"349 185 LINE SMOOTH",
"357 165 OFFCURVE",
"373 165 OFFCURVE",
"381 185 CURVE SMOOTH",
"528 528 LINE SMOOTH",
"534 541 OFFCURVE",
"542 547 OFFCURVE",
"557 547 CURVE SMOOTH",
"602 547 LINE SMOOTH",
"620 547 OFFCURVE",
"627 536 OFFCURVE",
"621 519 CURVE SMOOTH",
"438 20 LINE SMOOTH",
"434 6 OFFCURVE",
"424 0 OFFCURVE",
"410 0 CURVE SMOOTH",
"320 0 LINE SMOOTH",
"306 0 OFFCURVE",
"297 6 OFFCURVE",
"292 20 CURVE SMOOTH"
);
}
);
width = 732;
}
);
unicode = 0076;
},
{
color = 7;
glyphname = w;
lastChange = "2017-12-05 02:44:33 +0000";
layers = (
{
anchors = (
{
name = top;
position = "{367, 547}";
}
);
layerId = "6B6936E6-7670-4A82-900D-EAF583C971AF";
paths = (
{
closed = 1;
nodes = (
"59 520 LINE SMOOTH",
"56 537 OFFCURVE",
"62 547 OFFCURVE",
"80 547 CURVE SMOOTH",
"120 547 LINE SMOOTH",
"134 547 OFFCURVE",
"145 541 OFFCURVE",
"147 526 CURVE SMOOTH",
"199 206 LINE SMOOTH",
"203 185 OFFCURVE",
"221 183 OFFCURVE",
"231 203 CURVE SMOOTH",
"299 330 LINE SMOOTH",
"305 342 OFFCURVE",
"314 347 OFFCURVE",
"328 347 CURVE SMOOTH",
"400 347 LINE SMOOTH",
"414 347 OFFCURVE",
"422 341 OFFCURVE",
"429 330 CURVE SMOOTH",
"502 203 LINE SMOOTH",
"513 184 OFFCURVE",
"531 185 OFFCURVE",
"534 206 CURVE SMOOTH",
"585 526 LINE SMOOTH",
"587 541 OFFCURVE",
"598 547 OFFCURVE",
"612 547 CURVE SMOOTH",
"652 547 LINE SMOOTH",
"670 547 OFFCURVE",
"676 537 OFFCURVE",
"673 520 CURVE SMOOTH",
"586 21 LINE SMOOTH",
"583 7 OFFCURVE",
"574 0 OFFCURVE",
"559 0 CURVE SMOOTH",
"475 0 LINE SMOOTH",
"461 0 OFFCURVE",
"452 6 OFFCURVE",
"447 19 CURVE SMOOTH",
"382 174 LINE SMOOTH",
"374 195 OFFCURVE",
"359 195 OFFCURVE",
"350 174 CURVE SMOOTH",
"281 18 LINE SMOOTH",
"276 6 OFFCURVE",
"267 0 OFFCURVE",
"253 0 CURVE SMOOTH",
"174 0 LINE SMOOTH",
"159 0 OFFCURVE",
"149 7 OFFCURVE",
"147 21 CURVE SMOOTH"
);
}
);
width = 732;
}
);
unicode = 0077;
},
{
color = 7;
glyphname = x;
lastChange = "2017-12-05 02:44:33 +0000";
layers = (
{
layerId = "6B6936E6-7670-4A82-900D-EAF583C971AF";
paths = (
{
closed = 1;
nodes = (
"584 547 LINE SMOOTH",
"604 547 OFFCURVE",
"611 534 OFFCURVE",
"601 517 CURVE SMOOTH",
"439 274 LINE SMOOTH",
"431 262 OFFCURVE",
"431 250 OFFCURVE",
"441 240 CURVE SMOOTH",
"625 30 LINE SMOOTH",
"639 14 OFFCURVE",
"632 0 OFFCURVE",
"611 0 CURVE SMOOTH",
"514 0 LINE SMOOTH",
"501 0 OFFCURVE",
"492 4 OFFCURVE",
"484 16 CURVE SMOOTH",
"387 155 LINE SMOOTH",
"376 170 OFFCURVE",
"364 170 OFFCURVE",
"353 156 CURVE SMOOTH",
"247 15 LINE SMOOTH",
"239 4 OFFCURVE",
"230 0 OFFCURVE",
"217 0 CURVE SMOOTH",
"120 0 LINE SMOOTH",
"99 0 OFFCURVE",
"91 14 OFFCURVE",
"105 30 CURVE SMOOTH",
"294 245 LINE SMOOTH",
"304 256 OFFCURVE",
"304 268 OFFCURVE",
"296 279 CURVE SMOOTH",
"138 517 LINE SMOOTH",
"127 534 OFFCURVE",
"134 547 OFFCURVE",
"154 547 CURVE SMOOTH",
"195 547 LINE SMOOTH",
"208 547 OFFCURVE",
"217 542 OFFCURVE",
"225 531 CURVE SMOOTH",
"348 348 LINE SMOOTH",
"358 333 OFFCURVE",
"371 332 OFFCURVE",
"382 347 CURVE SMOOTH",
"518 532 LINE SMOOTH",
"525 542 OFFCURVE",
"534 547 OFFCURVE",
"547 547 CURVE SMOOTH"
);
}
);
width = 732;
}
);
leftKerningGroup = Round;
unicode = 0078;
},
{
color = 7;
glyphname = y;
lastChange = "2017-12-05 02:44:33 +0000";
layers = (
{
anchors = (
{
name = top;
position = "{325, 547}";
}
);
layerId = "6B6936E6-7670-4A82-900D-EAF583C971AF";
paths = (
{
closed = 1;
nodes = (
"404 -51 LINE",
"340 -194 OFFCURVE",
"267 -267 OFFCURVE",
"186 -267 CURVE SMOOTH",
"129 -267 LINE SMOOTH",
"113 -267 OFFCURVE",
"105 -259 OFFCURVE",
"105 -243 CURVE SMOOTH",
"105 -172 LINE SMOOTH",
"105 -157 OFFCURVE",
"113 -148 OFFCURVE",
"129 -148 CURVE SMOOTH",
"167 -148 LINE SMOOTH",
"211 -148 OFFCURVE",
"260 -79 OFFCURVE",
"288 -44 CURVE SMOOTH",
"295 -35 OFFCURVE",
"299 -29 OFFCURVE",
"304 -19 CURVE SMOOTH",
"328 29 LINE SMOOTH",
"334 41 OFFCURVE",
"334 50 OFFCURVE",
"328 62 CURVE SMOOTH",
"115 518 LINE SMOOTH",
"107 535 OFFCURVE",
"115 547 OFFCURVE",
"134 547 CURVE SMOOTH",
"178 547 LINE SMOOTH",
"191 547 OFFCURVE",
"200 542 OFFCURVE",
"207 530 CURVE SMOOTH",
"372 259 LINE SMOOTH",
"383 242 OFFCURVE",
"397 243 OFFCURVE",
"406 261 CURVE SMOOTH",
"531 529 LINE SMOOTH",
"537 541 OFFCURVE",
"545 547 OFFCURVE",
"559 547 CURVE SMOOTH",
"604 547 LINE SMOOTH",
"622 547 OFFCURVE",
"630 536 OFFCURVE",
"624 519 CURVE SMOOTH"
);
}
);
width = 732;
}
);
unicode = 0079;
},
{
color = 7;
glyphname = z;
lastChange = "2017-12-05 02:44:33 +0000";
layers = (
{
anchors = (
{
name = top;
position = "{388, 547}";
}
);
layerId = "6B6936E6-7670-4A82-900D-EAF583C971AF";
paths = (
{
closed = 1;
nodes = (
"166 522 LINE SMOOTH",
"166 538 OFFCURVE",
"174 547 OFFCURVE",
"190 547 CURVE SMOOTH",
"563 547 LINE SMOOTH",
"579 547 OFFCURVE",
"587 539 OFFCURVE",
"587 522 CURVE SMOOTH",
"587 482 LINE SMOOTH",
"587 470 OFFCURVE",
"584 461 OFFCURVE",
"576 452 CURVE SMOOTH",
"296 150 LINE SMOOTH",
"282 135 OFFCURVE",
"288 121 OFFCURVE",
"310 121 CURVE SMOOTH",
"573 121 LINE SMOOTH",
"589 121 OFFCURVE",
"597 112 OFFCURVE",
"597 96 CURVE SMOOTH",
"597 24 LINE SMOOTH",
"597 9 OFFCURVE",
"589 0 OFFCURVE",
"573 0 CURVE SMOOTH",
"158 0 LINE SMOOTH",
"143 0 OFFCURVE",
"134 8 OFFCURVE",
"134 24 CURVE SMOOTH",
"134 113 LINE SMOOTH",
"134 125 OFFCURVE",
"138 134 OFFCURVE",
"146 143 CURVE SMOOTH",
"461 450 LINE SMOOTH",
"477 465 OFFCURVE",
"471 480 OFFCURVE",
"449 480 CURVE SMOOTH",
"190 480 LINE SMOOTH",
"174 480 OFFCURVE",
"166 488 OFFCURVE",
"166 504 CURVE SMOOTH"
);
}
);
width = 732;
}
);
unicode = 007A;
},
{
glyphname = braceleft;
lastChange = "2017-12-05 02:44:33 +0000";
layers = (
{
layerId = "6B6936E6-7670-4A82-900D-EAF583C971AF";
paths = (
{
closed = 1;
nodes = (
"501 -55 LINE SMOOTH",
"518 -56 OFFCURVE",
"526 -64 OFFCURVE",
"525 -80 CURVE SMOOTH",
"525 -146 LINE SMOOTH",
"525 -161 OFFCURVE",
"516 -170 OFFCURVE",
"500 -169 CURVE SMOOTH",
"495 -169 LINE SMOOTH",
"333 -166 OFFCURVE",
"297 -129 OFFCURVE",
"293 15 CURVE",
"295 131 LINE",
"301 229 OFFCURVE",
"288 262 OFFCURVE",
"195 264 CURVE SMOOTH",
"181 264 LINE SMOOTH",
"171 264 OFFCURVE",
"167 273 OFFCURVE",
"167 290 CURVE SMOOTH",
"169 311 LINE SMOOTH",
"171 326 OFFCURVE",
"180 334 OFFCURVE",
"195 333 CURVE SMOOTH",
"201 333 LINE",
"294 338 OFFCURVE",
"324 363 OFFCURVE",
"326 460 CURVE SMOOTH",
"328 577 LINE SMOOTH",
"330 721 OFFCURVE",
"373 750 OFFCURVE",
"535 753 CURVE",
"550 753 LINE SMOOTH",
"560 753 OFFCURVE",
"565 744 OFFCURVE",
"565 729 CURVE SMOOTH",
"564 708 LINE SMOOTH",
"564 691 OFFCURVE",
"556 683 OFFCURVE",
"540 684 CURVE SMOOTH",
"531 684 LINE",
"433 679 OFFCURVE",
"420 666 OFFCURVE",
"418 574 CURVE SMOOTH",
"416 453 LINE SMOOTH",
"414 362 OFFCURVE",
"379 344 OFFCURVE",
"338 303 CURVE SMOOTH",
"333 297 OFFCURVE",
"333 295 OFFCURVE",
"348 289 CURVE SMOOTH",
"401 267 OFFCURVE",
"392 224 OFFCURVE",
"386 146 CURVE",
"384 39 LINE",
"389 -27 OFFCURVE",
"401 -53 OFFCURVE",
"493 -55 CURVE SMOOTH"
);
}
);
width = 732;
}
);
unicode = 007B;
},
{
glyphname = bar;
lastChange = "2017-12-05 02:44:33 +0000";
layers = (
{
layerId = "6B6936E6-7670-4A82-900D-EAF583C971AF";
paths = (
{
closed = 1;
nodes = (
"409 257 LINE",
"395 -295 LINE SMOOTH",
"395 -311 OFFCURVE",
"386 -319 OFFCURVE",
"371 -319 CURVE SMOOTH",
"327 -319 LINE SMOOTH",
"311 -319 OFFCURVE",
"302 -310 OFFCURVE",
"303 -294 CURVE SMOOTH",
"345 945 LINE SMOOTH",
"345 961 OFFCURVE",
"354 969 OFFCURVE",
"370 969 CURVE SMOOTH",
"404 969 LINE SMOOTH",
"420 969 OFFCURVE",
"429 960 OFFCURVE",
"428 944 CURVE SMOOTH"
);
}
);
width = 732;
}
);
unicode = 007C;
},
{
glyphname = braceright;
lastChange = "2017-12-05 02:44:33 +0000";
layers = (
{
layerId = "6B6936E6-7670-4A82-900D-EAF583C971AF";
paths = (
{
closed = 1;
nodes = (
"187 -103 LINE SMOOTH",
"187 -87 OFFCURVE",
"196 -78 OFFCURVE",
"211 -78 CURVE SMOOTH",
"221 -78 LINE SMOOTH",
"312 -78 OFFCURVE",
"335 -60 OFFCURVE",
"331 34 CURVE SMOOTH",
"326 145 LINE SMOOTH",
"322 229 OFFCURVE",
"337 271 OFFCURVE",
"392 292 CURVE SMOOTH",
"406 297 OFFCURVE",
"406 300 OFFCURVE",
"392 305 CURVE SMOOTH",
"337 325 OFFCURVE",
"316 367 OFFCURVE",
"316 457 CURVE SMOOTH",
"316 578 LINE SMOOTH",
"316 670 OFFCURVE",
"298 690 OFFCURVE",
"207 690 CURVE SMOOTH",
"189 690 LINE SMOOTH",
"178 690 OFFCURVE",
"172 699 OFFCURVE",
"172 714 CURVE SMOOTH",
"172 735 LINE SMOOTH",
"172 751 OFFCURVE",
"181 760 OFFCURVE",
"197 760 CURVE SMOOTH",
"203 760 LINE SMOOTH",
"365 760 OFFCURVE",
"406 724 OFFCURVE",
"406 580 CURVE SMOOTH",
"406 463 LINE SMOOTH",
"406 366 OFFCURVE",
"436 334 OFFCURVE",
"528 334 CURVE SMOOTH",
"543 334 LINE SMOOTH",
"553 334 OFFCURVE",
"559 325 OFFCURVE",
"559 310 CURVE SMOOTH",
"559 289 LINE SMOOTH",
"559 273 OFFCURVE",
"550 264 OFFCURVE",
"534 264 CURVE SMOOTH",
"528 264 LINE SMOOTH",
"436 264 OFFCURVE",
"412 232 OFFCURVE",
"416 134 CURVE SMOOTH",
"421 27 LINE SMOOTH",
"428 -132 OFFCURVE",
"380 -178 OFFCURVE",
"218 -178 CURVE SMOOTH",
"203 -178 LINE SMOOTH",
"192 -178 OFFCURVE",
"187 -169 OFFCURVE",
"187 -153 CURVE SMOOTH"
);
}
);
width = 732;
}
);
unicode = 007D;
},
{
glyphname = asciitilde;
lastChange = "2017-12-05 02:44:33 +0000";
layers = (
{
layerId = "6B6936E6-7670-4A82-900D-EAF583C971AF";
paths = (
{
closed = 1;
nodes = (
"679 340 LINE SMOOTH",
"679 327 OFFCURVE",
"675 318 OFFCURVE",
"664 311 CURVE SMOOTH",
"603 264 OFFCURVE",
"551 226 OFFCURVE",
"493 226 CURVE SMOOTH",
"461 226 OFFCURVE",
"423 238 OFFCURVE",
"381 262 CURVE SMOOTH",
"372 267 OFFCURVE",
"360 272 OFFCURVE",
"360 272 CURVE",
"359 272 OFFCURVE",
"357 273 OFFCURVE",
"355 274 CURVE SMOOTH",
"351 275 OFFCURVE",
"346 278 OFFCURVE",
"336 283 CURVE SMOOTH",
"292 305 OFFCURVE",
"256 316 OFFCURVE",
"228 316 CURVE SMOOTH",
"180 316 OFFCURVE",
"135 282 OFFCURVE",
"83 239 CURVE SMOOTH",
"67 225 OFFCURVE",
"53 231 OFFCURVE",
"53 252 CURVE SMOOTH",
"53 296 LINE SMOOTH",
"53 310 OFFCURVE",
"58 318 OFFCURVE",
"68 326 CURVE SMOOTH",
"130 369 OFFCURVE",
"181 387 OFFCURVE",
"239 387 CURVE SMOOTH",
"275 387 OFFCURVE",
"317 377 OFFCURVE",
"365 358 CURVE SMOOTH",
"383 351 LINE SMOOTH",
"433 331 OFFCURVE",
"474 321 OFFCURVE",
"504 321 CURVE SMOOTH",
"552 321 OFFCURVE",
"596 337 OFFCURVE",
"649 376 CURVE SMOOTH",
"666 388 OFFCURVE",
"679 382 OFFCURVE",
"679 362 CURVE SMOOTH"
);
}
);
width = 732;
}
);
unicode = 007E;
},
{
glyphname = exclamdown;
lastChange = "2017-12-05 02:44:33 +0000";
layers = (
{
layerId = "6B6936E6-7670-4A82-900D-EAF583C971AF";
paths = (
{
closed = 1;
nodes = (
"407 641 LINE SMOOTH",
"409 624 OFFCURVE",
"400 615 OFFCURVE",
"384 615 CURVE SMOOTH",
"317 615 LINE SMOOTH",
"300 615 OFFCURVE",
"292 624 OFFCURVE",
"294 641 CURVE SMOOTH",
"303 726 LINE SMOOTH",
"305 741 OFFCURVE",
"313 749 OFFCURVE",
"329 749 CURVE SMOOTH",
"372 749 LINE SMOOTH",
"387 749 OFFCURVE",
"396 741 OFFCURVE",
"397 726 CURVE SMOOTH"
);
},
{
closed = 1;
nodes = (
"437 27 LINE SMOOTH",
"437 11 OFFCURVE",
"429 1 OFFCURVE",
"413 1 CURVE SMOOTH",
"334 -1 LINE SMOOTH",
"318 -1 OFFCURVE",
"310 7 OFFCURVE",
"309 22 CURVE SMOOTH",
"303 318 LINE",
"307 468 LINE SMOOTH",
"307 484 OFFCURVE",
"315 493 OFFCURVE",
"331 493 CURVE SMOOTH",
"382 495 LINE SMOOTH",
"397 495 OFFCURVE",
"406 487 OFFCURVE",
"408 472 CURVE SMOOTH",
"421 322 LINE"
);
}
);
width = 732;
}
);
unicode = 00A1;
},
{
glyphname = cent;
lastChange = "2017-12-05 02:44:33 +0000";
layers = (
{
layerId = "6B6936E6-7670-4A82-900D-EAF583C971AF";
paths = (
{
closed = 1;
nodes = (
"397 465 LINE SMOOTH",
"398 482 OFFCURVE",
"388 492 OFFCURVE",
"372 487 CURVE SMOOTH",
"291 467 OFFCURVE",
"245 391 OFFCURVE",
"242 271 CURVE SMOOTH",
"241 186 OFFCURVE",
"286 125 OFFCURVE",
"365 104 CURVE SMOOTH",
"381 100 OFFCURVE",
"391 108 OFFCURVE",
"392 125 CURVE SMOOTH"
);
},
{
closed = 1;
nodes = (
"584 481 LINE SMOOTH",
"583 462 OFFCURVE",
"572 456 OFFCURVE",
"555 464 CURVE SMOOTH",
"527 478 OFFCURVE",
"500 486 OFFCURVE",
"474 491 CURVE SMOOTH",
"457 493 OFFCURVE",
"448 484 OFFCURVE",
"448 468 CURVE SMOOTH",
"441 122 LINE SMOOTH",
"441 105 OFFCURVE",
"450 96 OFFCURVE",
"467 98 CURVE SMOOTH",
"494 102 OFFCURVE",
"521 110 OFFCURVE",
"549 122 CURVE SMOOTH",
"566 129 OFFCURVE",
"578 122 OFFCURVE",
"578 104 CURVE SMOOTH",
"576 34 LINE SMOOTH",
"576 20 OFFCURVE",
"570 11 OFFCURVE",
"557 6 CURVE SMOOTH",
"527 -5 OFFCURVE",
"496 -13 OFFCURVE",
"462 -17 CURVE SMOOTH",
"447 -19 OFFCURVE",
"439 -27 OFFCURVE",
"438 -42 CURVE SMOOTH",
"437 -134 LINE SMOOTH",
"437 -149 OFFCURVE",
"428 -158 OFFCURVE",
"412 -158 CURVE SMOOTH",
"411 -158 LINE SMOOTH",
"395 -157 OFFCURVE",
"387 -149 OFFCURVE",
"387 -133 CURVE SMOOTH",
"389 -40 LINE SMOOTH",
"389 -24 OFFCURVE",
"381 -16 OFFCURVE",
"366 -14 CURVE SMOOTH",
"224 10 OFFCURVE",
"145 114 OFFCURVE",
"147 273 CURVE SMOOTH",
"150 433 OFFCURVE",
"233 533 OFFCURVE",
"376 552 CURVE SMOOTH",
"392 554 OFFCURVE",
"399 563 OFFCURVE",
"400 578 CURVE SMOOTH",
"401 670 LINE SMOOTH",
"402 686 OFFCURVE",
"411 695 OFFCURVE",
"426 694 CURVE SMOOTH",
"427 694 LINE SMOOTH",
"443 694 OFFCURVE",
"452 686 OFFCURVE",
"451 669 CURVE SMOOTH",
"450 577 LINE SMOOTH",
"450 562 OFFCURVE",
"457 553 OFFCURVE",
"473 551 CURVE SMOOTH",
"505 547 OFFCURVE",
"536 539 OFFCURVE",
"566 526 CURVE SMOOTH",
"579 521 OFFCURVE",
"584 512 OFFCURVE",
"584 498 CURVE SMOOTH"
);
}
);
width = 732;
}
);
unicode = 00A2;
},
{
glyphname = sterling;
lastChange = "2017-12-05 02:44:33 +0000";
layers = (
{
layerId = "6B6936E6-7670-4A82-900D-EAF583C971AF";
paths = (
{
closed = 1;
nodes = (
"612 647 LINE SMOOTH",
"611 629 OFFCURVE",
"600 622 OFFCURVE",
"583 630 CURVE SMOOTH",
"545 648 OFFCURVE",
"510 658 OFFCURVE",
"479 658 CURVE",
"382 653 OFFCURVE",
"349 619 OFFCURVE",
"345 481 CURVE SMOOTH",
"342 400 LINE SMOOTH",
"342 385 OFFCURVE",
"351 376 OFFCURVE",
"366 375 CURVE SMOOTH",
"508 373 LINE SMOOTH",
"524 373 OFFCURVE",
"533 364 OFFCURVE",
"532 348 CURVE SMOOTH",
"532 337 LINE SMOOTH",
"531 321 OFFCURVE",
"523 313 OFFCURVE",
"507 313 CURVE SMOOTH",
"365 315 LINE SMOOTH",
"349 316 OFFCURVE",
"340 308 OFFCURVE",
"340 292 CURVE SMOOTH",
"335 128 LINE SMOOTH",
"334 112 OFFCURVE",
"343 104 OFFCURVE",
"359 103 CURVE SMOOTH",
"582 100 LINE SMOOTH",
"598 99 OFFCURVE",
"606 90 OFFCURVE",
"606 75 CURVE SMOOTH",
"604 16 LINE SMOOTH",
"604 0 OFFCURVE",
"595 -8 OFFCURVE",
"579 -8 CURVE SMOOTH",
"143 0 LINE SMOOTH",
"127 0 OFFCURVE",
"119 9 OFFCURVE",
"119 24 CURVE SMOOTH",
"121 83 LINE SMOOTH",
"122 99 OFFCURVE",
"130 107 OFFCURVE",
"146 107 CURVE SMOOTH",
"212 106 LINE SMOOTH",
"229 105 OFFCURVE",
"237 114 OFFCURVE",
"237 130 CURVE SMOOTH",
"242 293 LINE SMOOTH",
"243 309 OFFCURVE",
"234 318 OFFCURVE",
"218 318 CURVE SMOOTH",
"170 319 LINE SMOOTH",
"154 319 OFFCURVE",
"146 328 OFFCURVE",
"146 344 CURVE SMOOTH",
"146 355 LINE SMOOTH",
"147 371 OFFCURVE",
"155 379 OFFCURVE",
"171 379 CURVE SMOOTH",
"220 378 LINE SMOOTH",
"236 378 OFFCURVE",
"245 386 OFFCURVE",
"245 402 CURVE SMOOTH",
"248 494 LINE SMOOTH",
"252 664 OFFCURVE",
"320 732 OFFCURVE",
"472 736 CURVE",
"506 736 OFFCURVE",
"549 727 OFFCURVE",
"593 712 CURVE SMOOTH",
"607 707 OFFCURVE",
"613 698 OFFCURVE",
"613 684 CURVE SMOOTH"
);
}
);
width = 732;
}
);
unicode = 00A3;
},
{
glyphname = currency;
lastChange = "2017-12-05 02:44:33 +0000";
layers = (
{
layerId = "6B6936E6-7670-4A82-900D-EAF583C971AF";
paths = (
{
closed = 1;
nodes = (
"565 569 LINE SMOOTH",
"577 581 OFFCURVE",
"588 581 OFFCURVE",
"600 569 CURVE SMOOTH",
"621 548 LINE SMOOTH",
"632 537 OFFCURVE",
"632 525 OFFCURVE",
"621 514 CURVE SMOOTH",
"553 445 LINE SMOOTH",
"542 435 OFFCURVE",
"541 424 OFFCURVE",
"548 411 CURVE SMOOTH",
"565 379 OFFCURVE",
"573 347 OFFCURVE",
"573 313 CURVE SMOOTH",
"573 279 OFFCURVE",
"565 248 OFFCURVE",
"547 217 CURVE SMOOTH",
"540 204 OFFCURVE",
"541 193 OFFCURVE",
"551 183 CURVE SMOOTH",
"620 114 LINE SMOOTH",
"631 103 OFFCURVE",
"631 91 OFFCURVE",
"620 80 CURVE SMOOTH",
"599 59 LINE SMOOTH",
"587 48 OFFCURVE",
"576 48 OFFCURVE",
"564 59 CURVE SMOOTH",
"496 127 LINE SMOOTH",
"485 138 OFFCURVE",
"475 139 OFFCURVE",
"462 131 CURVE SMOOTH",
"430 114 OFFCURVE",
"398 105 OFFCURVE",
"365 105 CURVE SMOOTH",
"333 105 OFFCURVE",
"301 114 OFFCURVE",
"268 130 CURVE SMOOTH",
"254 137 OFFCURVE",
"244 136 OFFCURVE",
"233 126 CURVE SMOOTH",
"165 57 LINE SMOOTH",
"153 46 OFFCURVE",
"142 46 OFFCURVE",
"130 58 CURVE SMOOTH",
"109 79 LINE SMOOTH",
"98 90 OFFCURVE",
"98 102 OFFCURVE",
"109 113 CURVE SMOOTH",
"178 182 LINE SMOOTH",
"188 192 OFFCURVE",
"189 203 OFFCURVE",
"183 216 CURVE SMOOTH",
"166 249 OFFCURVE",
"157 281 OFFCURVE",
"157 313 CURVE SMOOTH",
"157 348 OFFCURVE",
"166 379 OFFCURVE",
"183 410 CURVE SMOOTH",
"190 422 OFFCURVE",
"189 433 OFFCURVE",
"179 444 CURVE SMOOTH",
"111 512 LINE SMOOTH",
"99 523 OFFCURVE",
"99 535 OFFCURVE",
"110 546 CURVE SMOOTH",
"132 568 LINE SMOOTH",
"144 579 OFFCURVE",
"155 579 OFFCURVE",
"166 568 CURVE SMOOTH",
"235 500 LINE SMOOTH",
"245 489 OFFCURVE",
"256 488 OFFCURVE",
"269 496 CURVE SMOOTH",
"299 513 OFFCURVE",
"331 521 OFFCURVE",
"365 521 CURVE SMOOTH",
"398 521 OFFCURVE",
"430 513 OFFCURVE",
"462 496 CURVE SMOOTH",
"476 489 OFFCURVE",
"486 490 OFFCURVE",
"497 500 CURVE SMOOTH"
);
},
{
closed = 1;
nodes = (
"497 387 OFFCURVE",
"439 444 OFFCURVE",
"365 444 CURVE SMOOTH",
"292 444 OFFCURVE",
"233 387 OFFCURVE",
"233 314 CURVE SMOOTH",
"233 240 OFFCURVE",
"291 219 OFFCURVE",
"365 219 CURVE SMOOTH",
"439 219 OFFCURVE",
"497 240 OFFCURVE",
"497 314 CURVE SMOOTH"
);
}
);
width = 732;
}
);
unicode = 00A4;
},
{
glyphname = yen;
lastChange = "2017-12-05 02:44:33 +0000";
layers = (
{
layerId = "6B6936E6-7670-4A82-900D-EAF583C971AF";
paths = (
{
closed = 1;
nodes = (
"623 227 LINE SMOOTH",
"623 211 OFFCURVE",
"614 203 OFFCURVE",
"598 203 CURVE SMOOTH",
"446 203 LINE SMOOTH",
"430 203 OFFCURVE",
"421 194 OFFCURVE",
"422 178 CURVE SMOOTH",
"429 25 LINE SMOOTH",
"430 9 OFFCURVE",
"422 0 OFFCURVE",
"406 0 CURVE SMOOTH",
"329 0 LINE SMOOTH",
"313 0 OFFCURVE",
"304 9 OFFCURVE",
"305 25 CURVE SMOOTH",
"316 177 LINE SMOOTH",
"317 193 OFFCURVE",
"309 203 OFFCURVE",
"292 203 CURVE SMOOTH",
"139 203 LINE SMOOTH",
"124 203 OFFCURVE",
"115 211 OFFCURVE",
"115 227 CURVE SMOOTH",
"115 258 LINE SMOOTH",
"115 274 OFFCURVE",
"124 282 OFFCURVE",
"139 282 CURVE SMOOTH",
"293 282 LINE SMOOTH",
"310 282 OFFCURVE",
"318 285 OFFCURVE",
"318 291 CURVE SMOOTH",
"318 303 OFFCURVE",
"315 311 OFFCURVE",
"309 321 CURVE SMOOTH",
"278 367 LINE SMOOTH",
"270 378 OFFCURVE",
"261 383 OFFCURVE",
"248 383 CURVE SMOOTH",
"129 383 LINE SMOOTH",
"114 383 OFFCURVE",
"105 392 OFFCURVE",
"105 407 CURVE SMOOTH",
"105 418 LINE SMOOTH",
"105 435 OFFCURVE",
"113 443 OFFCURVE",
"129 443 CURVE SMOOTH",
"201 443 LINE SMOOTH",
"220 443 OFFCURVE",
"228 455 OFFCURVE",
"219 472 CURVE SMOOTH",
"99 700 LINE SMOOTH",
"90 717 OFFCURVE",
"98 729 OFFCURVE",
"117 729 CURVE SMOOTH",
"167 729 LINE SMOOTH",
"181 729 OFFCURVE",
"189 724 OFFCURVE",
"196 711 CURVE SMOOTH",
"350 419 LINE SMOOTH",
"359 401 OFFCURVE",
"374 401 OFFCURVE",
"383 419 CURVE SMOOTH",
"537 711 LINE SMOOTH",
"543 724 OFFCURVE",
"552 729 OFFCURVE",
"565 729 CURVE SMOOTH",
"616 729 LINE SMOOTH",
"635 729 OFFCURVE",
"642 717 OFFCURVE",
"633 700 CURVE SMOOTH",
"509 472 LINE SMOOTH",
"500 455 OFFCURVE",
"507 443 OFFCURVE",
"527 443 CURVE SMOOTH",
"598 443 LINE SMOOTH",
"614 443 OFFCURVE",
"623 434 OFFCURVE",
"623 418 CURVE SMOOTH",
"623 407 LINE SMOOTH",
"623 392 OFFCURVE",
"614 383 OFFCURVE",
"598 383 CURVE SMOOTH",
"480 383 LINE SMOOTH",
"467 383 OFFCURVE",
"458 377 OFFCURVE",
"452 366 CURVE SMOOTH",
"428 322 LINE SMOOTH",
"422 311 OFFCURVE",
"420 307 OFFCURVE",
"420 307 CURVE SMOOTH",
"420 291 OFFCURVE",
"429 282 OFFCURVE",
"444 282 CURVE SMOOTH",
"598 282 LINE SMOOTH",
"614 282 OFFCURVE",
"623 273 OFFCURVE",
"623 258 CURVE SMOOTH"
);
}
);
width = 732;
}
);
unicode = 00A5;
},
{
glyphname = brokenbar;
lastChange = "2017-12-05 02:44:33 +0000";
layers = (
{
layerId = "6B6936E6-7670-4A82-900D-EAF583C971AF";
paths = (
{
closed = 1;
nodes = (
"381 -376 LINE SMOOTH",
"381 -392 OFFCURVE",
"372 -400 OFFCURVE",
"356 -400 CURVE SMOOTH",
"312 -400 LINE SMOOTH",
"296 -400 OFFCURVE",
"288 -392 OFFCURVE",
"289 -375 CURVE SMOOTH",
"323 233 LINE SMOOTH",
"324 249 OFFCURVE",
"333 257 OFFCURVE",
"349 257 CURVE SMOOTH",
"383 257 LINE SMOOTH",
"399 257 OFFCURVE",
"407 248 OFFCURVE",
"407 232 CURVE SMOOTH"
);
},
{
closed = 1;
nodes = (
"355 405 LINE SMOOTH",
"339 405 OFFCURVE",
"331 414 OFFCURVE",
"331 430 CURVE SMOOTH",
"359 1009 LINE SMOOTH",
"359 1025 OFFCURVE",
"368 1033 OFFCURVE",
"384 1033 CURVE SMOOTH",
"418 1033 LINE SMOOTH",
"434 1033 OFFCURVE",
"442 1024 OFFCURVE",
"442 1008 CURVE SMOOTH",
"414 429 LINE SMOOTH",
"414 413 OFFCURVE",
"405 405 OFFCURVE",
"389 405 CURVE SMOOTH"
);
}
);
width = 732;
}
);
unicode = 00A6;
},
{
glyphname = section;
lastChange = "2017-12-05 02:44:33 +0000";
layers = (
{
layerId = "6B6936E6-7670-4A82-900D-EAF583C971AF";
paths = (
{
closed = 1;
nodes = (
"254 445 OFFCURVE",
"240 420 OFFCURVE",
"240 395 CURVE SMOOTH",
"240 370 OFFCURVE",
"251 347 OFFCURVE",
"274 325 CURVE SMOOTH",
"294 305 OFFCURVE",
"340 275 OFFCURVE",
"412 236 CURVE SMOOTH",
"424 229 OFFCURVE",
"435 230 OFFCURVE",
"446 239 CURVE SMOOTH",
"476 264 OFFCURVE",
"491 290 OFFCURVE",
"491 315 CURVE SMOOTH",
"491 340 OFFCURVE",
"479 363 OFFCURVE",
"456 385 CURVE SMOOTH",
"435 405 OFFCURVE",
"389 435 OFFCURVE",
"319 474 CURVE SMOOTH",
"307 480 OFFCURVE",
"295 480 OFFCURVE",
"285 471 CURVE SMOOTH"
);
},
{
closed = 1;
nodes = (
"520 665 LINE SMOOTH",
"520 646 OFFCURVE",
"509 639 OFFCURVE",
"492 646 CURVE SMOOTH",
"450 664 OFFCURVE",
"413 672 OFFCURVE",
"383 672 CURVE SMOOTH",
"320 672 OFFCURVE",
"283 645 OFFCURVE",
"283 598 CURVE SMOOTH",
"283 569 OFFCURVE",
"316 536 OFFCURVE",
"383 498 CURVE SMOOTH",
"403 487 LINE SMOOTH",
"472 448 OFFCURVE",
"517 416 OFFCURVE",
"538 391 CURVE SMOOTH",
"559 366 OFFCURVE",
"570 337 OFFCURVE",
"570 304 CURVE SMOOTH",
"570 253 OFFCURVE",
"547 213 OFFCURVE",
"502 181 CURVE SMOOTH",
"488 170 OFFCURVE",
"488 160 OFFCURVE",
"499 147 CURVE SMOOTH",
"526 120 OFFCURVE",
"538 90 OFFCURVE",
"538 56 CURVE SMOOTH",
"538 -36 OFFCURVE",
"466 -95 OFFCURVE",
"353 -95 CURVE SMOOTH",
"312 -95 OFFCURVE",
"269 -88 OFFCURVE",
"220 -73 CURVE SMOOTH",
"206 -69 OFFCURVE",
"203 -60 OFFCURVE",
"200 -46 CURVE SMOOTH",
"179 41 LINE SMOOTH",
"175 59 OFFCURVE",
"190 66 OFFCURVE",
"208 60 CURVE SMOOTH",
"252 42 OFFCURVE",
"291 34 OFFCURVE",
"322 34 CURVE SMOOTH",
"389 34 OFFCURVE",
"427 48 OFFCURVE",
"427 97 CURVE SMOOTH",
"427 124 OFFCURVE",
"381 140 OFFCURVE",
"340 163 CURVE SMOOTH",
"328 170 LINE SMOOTH",
"258 209 OFFCURVE",
"213 241 OFFCURVE",
"192 266 CURVE SMOOTH",
"171 291 OFFCURVE",
"161 320 OFFCURVE",
"161 353 CURVE SMOOTH",
"161 404 OFFCURVE",
"184 446 OFFCURVE",
"228 477 CURVE SMOOTH",
"242 487 OFFCURVE",
"242 497 OFFCURVE",
"230 509 CURVE SMOOTH",
"205 534 OFFCURVE",
"193 565 OFFCURVE",
"193 601 CURVE SMOOTH",
"193 686 OFFCURVE",
"264 742 OFFCURVE",
"372 742 CURVE SMOOTH",
"413 742 OFFCURVE",
"457 735 OFFCURVE",
"500 721 CURVE SMOOTH",
"514 716 OFFCURVE",
"520 707 OFFCURVE",
"520 693 CURVE SMOOTH"
);
}
);
width = 732;
}
);
unicode = 00A7;
},
{
glyphname = dieresis;
lastChange = "2017-12-05 02:44:33 +0000";
layers = (
{
anchors = (
{
name = _top;
position = "{366, 547}";
}
);
layerId = "6B6936E6-7670-4A82-900D-EAF583C971AF";
paths = (
{
closed = 1;
nodes = (
"415 741 LINE SMOOTH",
"415 757 OFFCURVE",
"423 765 OFFCURVE",
"439 765 CURVE SMOOTH",
"497 765 LINE SMOOTH",
"513 765 OFFCURVE",
"521 757 OFFCURVE",
"521 741 CURVE SMOOTH",
"521 684 LINE SMOOTH",
"521 668 OFFCURVE",
"513 659 OFFCURVE",
"497 659 CURVE SMOOTH",
"439 659 LINE SMOOTH",
"423 659 OFFCURVE",
"415 668 OFFCURVE",
"415 684 CURVE SMOOTH"
);
},
{
closed = 1;
nodes = (
"210 741 LINE SMOOTH",
"210 757 OFFCURVE",
"218 765 OFFCURVE",
"234 765 CURVE SMOOTH",
"292 765 LINE SMOOTH",
"308 765 OFFCURVE",
"316 757 OFFCURVE",
"316 741 CURVE SMOOTH",
"316 684 LINE SMOOTH",
"316 668 OFFCURVE",
"308 659 OFFCURVE",
"292 659 CURVE SMOOTH",
"234 659 LINE SMOOTH",
"219 659 OFFCURVE",
"210 668 OFFCURVE",
"210 684 CURVE SMOOTH"
);
}
);
width = 732;
}
);
unicode = 00A8;
},
{
glyphname = copyright;
lastChange = "2017-12-05 02:44:33 +0000";
layers = (
{
layerId = "6B6936E6-7670-4A82-900D-EAF583C971AF";
paths = (
{
closed = 1;
nodes = (
"465 725 OFFCURVE",
"551 689 OFFCURVE",
"622 618 CURVE SMOOTH",
"693 547 OFFCURVE",
"728 462 OFFCURVE",
"728 362 CURVE SMOOTH",
"728 263 OFFCURVE",
"693 178 OFFCURVE",
"622 107 CURVE SMOOTH",
"551 36 OFFCURVE",
"465 0 OFFCURVE",
"366 0 CURVE SMOOTH",
"267 0 OFFCURVE",
"181 36 OFFCURVE",
"110 107 CURVE SMOOTH",
"40 178 OFFCURVE",
"4 263 OFFCURVE",
"4 362 CURVE SMOOTH",
"4 462 OFFCURVE",
"40 547 OFFCURVE",
"110 618 CURVE SMOOTH",
"181 689 OFFCURVE",
"267 725 OFFCURVE",
"366 725 CURVE SMOOTH"
);
},
{
closed = 1;
nodes = (
"281 675 OFFCURVE",
"207 644 OFFCURVE",
"146 583 CURVE SMOOTH",
"85 522 OFFCURVE",
"53 446 OFFCURVE",
"53 362 CURVE SMOOTH",
"53 278 OFFCURVE",
"85 211 OFFCURVE",
"146 157 CURVE",
"207 115 OFFCURVE",
"281 89 OFFCURVE",
"366 89 CURVE SMOOTH",
"452 89 OFFCURVE",
"526 115 OFFCURVE",
"587 157 CURVE",
"648 204 OFFCURVE",
"678 276 OFFCURVE",
"678 362 CURVE SMOOTH",
"678 448 OFFCURVE",
"647 522 OFFCURVE",
"587 583 CURVE SMOOTH",
"526 644 OFFCURVE",
"452 675 OFFCURVE",
"366 675 CURVE SMOOTH"
);
},
{
closed = 1;
nodes = (
"512 518 OFFCURVE",
"501 513 OFFCURVE",
"484 520 CURVE SMOOTH",
"451 532 OFFCURVE",
"418 539 OFFCURVE",
"384 539 CURVE SMOOTH",
"287 539 OFFCURVE",
"230 464 OFFCURVE",
"230 362 CURVE SMOOTH",
"230 297 OFFCURVE",
"288 229 OFFCURVE",
"389 229 CURVE SMOOTH",
"421 229 OFFCURVE",
"452 234 OFFCURVE",
"484 247 CURVE SMOOTH",
"501 254 OFFCURVE",
"512 248 OFFCURVE",
"512 229 CURVE SMOOTH",
"512 189 LINE SMOOTH",
"512 175 OFFCURVE",
"506 166 OFFCURVE",
"493 161 CURVE SMOOTH",
"456 147 OFFCURVE",
"417 141 OFFCURVE",
"378 141 CURVE SMOOTH",
"238 141 OFFCURVE",
"150 227 OFFCURVE",
"150 362 CURVE SMOOTH",
"150 498 OFFCURVE",
"238 582 OFFCURVE",
"378 582 CURVE SMOOTH",
"418 582 OFFCURVE",
"457 575 OFFCURVE",
"493 563 CURVE SMOOTH",
"506 558 OFFCURVE",
"512 549 OFFCURVE",
"512 535 CURVE SMOOTH"
);
}
);
width = 732;
}
);
unicode = 00A9;
},
{
glyphname = ordfeminine;
lastChange = "2017-12-05 02:44:33 +0000";
layers = (
{
layerId = "6B6936E6-7670-4A82-900D-EAF583C971AF";
paths = (
{
closed = 1;
nodes = (
"204 265 LINE SMOOTH",
"204 280 OFFCURVE",
"213 289 OFFCURVE",
"229 289 CURVE SMOOTH",
"516 289 LINE SMOOTH",
"532 289 OFFCURVE",
"540 280 OFFCURVE",
"540 265 CURVE SMOOTH",
"540 253 LINE SMOOTH",
"540 238 OFFCURVE",
"531 229 OFFCURVE",
"516 229 CURVE SMOOTH",
"229 229 LINE SMOOTH",
"213 229 OFFCURVE",
"204 237 OFFCURVE",
"204 253 CURVE SMOOTH"
);
},
{
closed = 1;
nodes = (
"539 375 LINE SMOOTH",
"539 359 OFFCURVE",
"531 350 OFFCURVE",
"515 350 CURVE SMOOTH",
"491 350 LINE SMOOTH",
"475 350 OFFCURVE",
"466 356 OFFCURVE",
"466 366 CURVE SMOOTH",
"466 387 OFFCURVE",
"457 390 OFFCURVE",
"440 376 CURVE SMOOTH",
"412 354 OFFCURVE",
"374 341 OFFCURVE",
"329 341 CURVE SMOOTH",
"246 341 OFFCURVE",
"192 388 OFFCURVE",
"192 462 CURVE SMOOTH",
"192 550 OFFCURVE",
"255 595 OFFCURVE",
"377 595 CURVE SMOOTH",
"442 595 LINE SMOOTH",
"458 595 OFFCURVE",
"466 596 OFFCURVE",
"466 597 CURVE SMOOTH",
"466 656 OFFCURVE",
"428 686 OFFCURVE",
"352 686 CURVE SMOOTH",
"320 686 OFFCURVE",
"286 679 OFFCURVE",
"250 666 CURVE SMOOTH",
"233 659 OFFCURVE",
"222 666 OFFCURVE",
"222 684 CURVE SMOOTH",
"222 694 LINE SMOOTH",
"222 708 OFFCURVE",
"229 717 OFFCURVE",
"242 722 CURVE SMOOTH",
"283 735 OFFCURVE",
"324 742 OFFCURVE",
"362 742 CURVE SMOOTH",
"481 742 OFFCURVE",
"539 686 OFFCURVE",
"539 569 CURVE SMOOTH"
);
},
{
closed = 1;
nodes = (
"399 571 LINE SMOOTH",
"347 571 OFFCURVE",
"311 565 OFFCURVE",
"290 555 CURVE SMOOTH",
"270 543 OFFCURVE",
"259 525 OFFCURVE",
"259 500 CURVE SMOOTH",
"259 458 OFFCURVE",
"294 431 OFFCURVE",
"347 431 CURVE SMOOTH",
"415 431 OFFCURVE",
"461 482 OFFCURVE",
"461 557 CURVE SMOOTH",
"461 546 LINE SMOOTH",
"461 563 OFFCURVE",
"453 571 OFFCURVE",
"437 571 CURVE SMOOTH"
);
}
);
width = 732;
}
);
unicode = 00AA;
},
{
glyphname = guillemotleft;
lastChange = "2017-12-05 02:44:33 +0000";
layers = (
{
layerId = "6B6936E6-7670-4A82-900D-EAF583C971AF";
paths = (
{
closed = 1;
nodes = (
"568 475 LINE SMOOTH",
"584 489 OFFCURVE",
"599 482 OFFCURVE",
"598 461 CURVE SMOOTH",
"597 426 LINE SMOOTH",
"596 413 OFFCURVE",
"592 404 OFFCURVE",
"583 396 CURVE SMOOTH",
"464 298 LINE SMOOTH",
"452 288 OFFCURVE",
"451 275 OFFCURVE",
"463 264 CURVE SMOOTH",
"573 159 LINE SMOOTH",
"583 150 OFFCURVE",
"586 140 OFFCURVE",
"583 127 CURVE SMOOTH",
"571 68 LINE SMOOTH",
"566 49 OFFCURVE",
"553 44 OFFCURVE",
"539 58 CURVE SMOOTH",
"356 232 LINE SMOOTH",
"346 242 OFFCURVE",
"344 252 OFFCURVE",
"349 265 CURVE SMOOTH",
"358 290 LINE SMOOTH",
"362 300 OFFCURVE",
"367 308 OFFCURVE",
"376 315 CURVE SMOOTH"
);
},
{
closed = 1;
nodes = (
"356 482 LINE SMOOTH",
"373 496 OFFCURVE",
"387 489 OFFCURVE",
"386 468 CURVE SMOOTH",
"385 433 LINE SMOOTH",
"384 420 OFFCURVE",
"380 412 OFFCURVE",
"371 403 CURVE SMOOTH",
"253 306 LINE SMOOTH",
"240 295 OFFCURVE",
"240 283 OFFCURVE",
"251 271 CURVE SMOOTH",
"361 167 LINE SMOOTH",
"371 157 OFFCURVE",
"374 147 OFFCURVE",
"371 135 CURVE SMOOTH",
"359 75 LINE SMOOTH",
"354 56 OFFCURVE",
"341 52 OFFCURVE",
"327 65 CURVE SMOOTH",
"145 239 LINE SMOOTH",
"134 249 OFFCURVE",
"132 259 OFFCURVE",
"137 272 CURVE SMOOTH",
"146 297 LINE SMOOTH",
"150 308 OFFCURVE",
"155 315 OFFCURVE",
"164 322 CURVE SMOOTH"
);
}
);
width = 732;
}
);
unicode = 00AB;
},
{
glyphname = logicalnot;
lastChange = "2017-12-05 02:44:33 +0000";
layers = (
{
layerId = "6B6936E6-7670-4A82-900D-EAF583C971AF";
paths = (
{
closed = 1;
nodes = (
"45 396 LINE SMOOTH",
"45 413 OFFCURVE",
"54 421 OFFCURVE",
"70 421 CURVE SMOOTH",
"647 421 LINE SMOOTH",
"663 421 OFFCURVE",
"672 413 OFFCURVE",
"673 397 CURVE SMOOTH",
"685 165 LINE SMOOTH",
"686 149 OFFCURVE",
"677 140 OFFCURVE",
"661 140 CURVE SMOOTH",
"591 140 LINE SMOOTH",
"574 140 OFFCURVE",
"566 149 OFFCURVE",
"568 166 CURVE SMOOTH",
"586 312 LINE SMOOTH",
"588 328 OFFCURVE",
"580 338 OFFCURVE",
"563 337 CURVE SMOOTH",
"70 329 LINE SMOOTH",
"54 328 OFFCURVE",
"45 337 OFFCURVE",
"45 353 CURVE SMOOTH"
);
}
);
width = 732;
}
);
unicode = 00AC;
},
{
glyphname = registered;
lastChange = "2017-12-05 02:44:33 +0000";
layers = (
{
layerId = "6B6936E6-7670-4A82-900D-EAF583C971AF";
paths = (
{
closed = 1;
nodes = (
"281 675 OFFCURVE",
"207 646 OFFCURVE",
"146 590 CURVE SMOOTH",
"85 533 OFFCURVE",
"53 464 OFFCURVE",
"53 386 CURVE SMOOTH",
"53 308 OFFCURVE",
"85 239 OFFCURVE",
"146 183 CURVE SMOOTH",
"207 126 OFFCURVE",
"281 97 OFFCURVE",
"366 97 CURVE SMOOTH",
"452 97 OFFCURVE",
"526 126 OFFCURVE",
"587 183 CURVE SMOOTH",
"648 239 OFFCURVE",
"678 307 OFFCURVE",
"678 386 CURVE SMOOTH",
"678 465 OFFCURVE",
"647 534 OFFCURVE",
"587 590 CURVE SMOOTH",
"526 646 OFFCURVE",
"452 675 OFFCURVE",
"366 675 CURVE SMOOTH"
);
},
{
closed = 1;
nodes = (
"465 725 OFFCURVE",
"551 689 OFFCURVE",
"622 618 CURVE SMOOTH",
"693 547 OFFCURVE",
"728 462 OFFCURVE",
"728 362 CURVE SMOOTH",
"728 263 OFFCURVE",
"693 178 OFFCURVE",
"622 107 CURVE SMOOTH",
"551 36 OFFCURVE",
"465 0 OFFCURVE",
"366 0 CURVE SMOOTH",
"267 0 OFFCURVE",
"181 36 OFFCURVE",
"110 107 CURVE SMOOTH",
"40 178 OFFCURVE",
"4 263 OFFCURVE",
"4 362 CURVE SMOOTH",
"4 462 OFFCURVE",
"40 547 OFFCURVE",
"110 618 CURVE SMOOTH",
"181 689 OFFCURVE",
"267 725 OFFCURVE",
"366 725 CURVE SMOOTH"
);
},
{
closed = 1;
nodes = (
"342 547 LINE SMOOTH",
"326 547 OFFCURVE",
"317 539 OFFCURVE",
"317 523 CURVE SMOOTH",
"317 437 LINE SMOOTH",
"317 421 OFFCURVE",
"326 413 OFFCURVE",
"342 413 CURVE SMOOTH",
"377 413 LINE SMOOTH",
"449 413 OFFCURVE",
"474 431 OFFCURVE",
"474 479 CURVE SMOOTH",
"474 529 OFFCURVE",
"448 547 OFFCURVE",
"377 547 CURVE SMOOTH"
);
},
{
closed = 1;
nodes = (
"356 573 LINE SMOOTH",
"471 573 OFFCURVE",
"527 535 OFFCURVE",
"527 456 CURVE SMOOTH",
"527 409 OFFCURVE",
"503 375 OFFCURVE",
"458 359 CURVE SMOOTH",
"441 353 OFFCURVE",
"440 346 OFFCURVE",
"453 333 CURVE SMOOTH",
"458 329 LINE",
"468 316 OFFCURVE",
"481 298 OFFCURVE",
"496 274 CURVE SMOOTH",
"545 194 LINE SMOOTH",
"555 178 OFFCURVE",
"548 165 OFFCURVE",
"528 165 CURVE SMOOTH",
"498 165 LINE SMOOTH",
"485 165 OFFCURVE",
"476 170 OFFCURVE",
"469 181 CURVE SMOOTH",
"416 267 LINE SMOOTH",
"397 298 OFFCURVE",
"381 318 OFFCURVE",
"370 327 CURVE SMOOTH",
"357 335 OFFCURVE",
"349 339 OFFCURVE",
"345 339 CURVE SMOOTH",
"342 339 LINE SMOOTH",
"326 339 OFFCURVE",
"317 331 OFFCURVE",
"317 314 CURVE SMOOTH",
"317 189 LINE SMOOTH",
"317 174 OFFCURVE",
"309 165 OFFCURVE",
"293 165 CURVE SMOOTH",
"242 165 LINE SMOOTH",
"226 165 OFFCURVE",
"217 173 OFFCURVE",
"217 189 CURVE SMOOTH",
"217 549 LINE SMOOTH",
"217 565 OFFCURVE",
"226 573 OFFCURVE",
"242 573 CURVE SMOOTH"
);
}
);
width = 732;
}
);
unicode = 00AE;
},
{
glyphname = macron;
lastChange = "2017-12-05 02:44:33 +0000";
layers = (
{
anchors = (
{
name = _top;
position = "{366, 406}";
}
);
layerId = "6B6936E6-7670-4A82-900D-EAF583C971AF";
paths = (
{
closed = 1;
nodes = (
"220 721 LINE SMOOTH",
"220 737 OFFCURVE",
"229 745 OFFCURVE",
"245 745 CURVE SMOOTH",
"488 745 LINE SMOOTH",
"504 745 OFFCURVE",
"512 737 OFFCURVE",
"512 721 CURVE SMOOTH",
"512 697 LINE SMOOTH",
"512 682 OFFCURVE",
"504 673 OFFCURVE",
"488 673 CURVE SMOOTH",
"245 673 LINE SMOOTH",
"229 673 OFFCURVE",
"220 682 OFFCURVE",
"220 697 CURVE SMOOTH"
);
}
);
width = 732;
}
);
unicode = 00AF;
},
{
glyphname = degree;
lastChange = "2017-12-05 02:44:33 +0000";
layers = (
{
layerId = "6B6936E6-7670-4A82-900D-EAF583C971AF";
paths = (
{
closed = 1;
nodes = (
"314 704 OFFCURVE",
"273 666 OFFCURVE",
"273 619 CURVE SMOOTH",
"273 572 OFFCURVE",
"314 535 OFFCURVE",
"366 535 CURVE SMOOTH",
"418 535 OFFCURVE",
"459 572 OFFCURVE",
"459 619 CURVE SMOOTH",
"459 666 OFFCURVE",
"417 704 OFFCURVE",
"366 704 CURVE SMOOTH"
);
},
{
closed = 1;
nodes = (
"408 742 OFFCURVE",
"448 726 OFFCURVE",
"476 696 CURVE",
"506 667 OFFCURVE",
"521 629 OFFCURVE",
"521 586 CURVE SMOOTH",
"521 500 OFFCURVE",
"453 432 OFFCURVE",
"365 432 CURVE SMOOTH",
"277 432 OFFCURVE",
"211 498 OFFCURVE",
"211 586 CURVE SMOOTH",
"211 673 OFFCURVE",
"280 742 OFFCURVE",
"366 742 CURVE SMOOTH"
);
}
);
width = 732;
}
);
unicode = 00B0;
},
{
glyphname = plusminus;
lastChange = "2017-12-05 02:44:33 +0000";
layers = (
{
layerId = "6B6936E6-7670-4A82-900D-EAF583C971AF";
paths = (
{
closed = 1;
nodes = (
"382 627 LINE SMOOTH",
"397 627 OFFCURVE",
"406 618 OFFCURVE",
"406 603 CURVE SMOOTH",
"406 462 LINE SMOOTH",
"406 447 OFFCURVE",
"415 438 OFFCURVE",
"431 438 CURVE SMOOTH",
"629 438 LINE SMOOTH",
"645 438 OFFCURVE",
"654 430 OFFCURVE",
"654 414 CURVE SMOOTH",
"654 379 LINE SMOOTH",
"654 364 OFFCURVE",
"645 355 OFFCURVE",
"629 355 CURVE SMOOTH",
"431 355 LINE SMOOTH",
"415 355 OFFCURVE",
"406 346 OFFCURVE",
"406 331 CURVE SMOOTH",
"406 190 LINE SMOOTH",
"406 174 OFFCURVE",
"397 166 OFFCURVE",
"382 166 CURVE SMOOTH",
"349 166 LINE SMOOTH",
"333 166 OFFCURVE",
"324 175 OFFCURVE",
"324 190 CURVE SMOOTH",
"324 331 LINE SMOOTH",
"324 347 OFFCURVE",
"316 355 OFFCURVE",
"300 355 CURVE SMOOTH",
"101 355 LINE SMOOTH",
"85 355 OFFCURVE",
"77 363 OFFCURVE",
"77 379 CURVE SMOOTH",
"77 414 LINE SMOOTH",
"77 430 OFFCURVE",
"85 438 OFFCURVE",
"101 438 CURVE SMOOTH",
"300 438 LINE SMOOTH",
"316 438 OFFCURVE",
"324 447 OFFCURVE",
"324 462 CURVE SMOOTH",
"324 603 LINE SMOOTH",
"324 619 OFFCURVE",
"332 627 OFFCURVE",
"349 627 CURVE SMOOTH"
);
},
{
closed = 1;
nodes = (
"77 68 LINE SMOOTH",
"77 84 OFFCURVE",
"85 93 OFFCURVE",
"101 93 CURVE SMOOTH",
"629 93 LINE SMOOTH",
"645 93 OFFCURVE",
"654 84 OFFCURVE",
"654 68 CURVE SMOOTH",
"654 24 LINE SMOOTH",
"654 9 OFFCURVE",
"645 0 OFFCURVE",
"629 0 CURVE SMOOTH",
"101 0 LINE SMOOTH",
"85 0 OFFCURVE",
"77 9 OFFCURVE",
"77 24 CURVE SMOOTH"
);
}
);
width = 732;
}
);
unicode = 00B1;
},
{
glyphname = twosuperior;
lastChange = "2017-12-05 02:44:33 +0000";
layers = (
{
layerId = "6B6936E6-7670-4A82-900D-EAF583C971AF";
paths = (
{
closed = 1;
nodes = (
"488 407 LINE SMOOTH",
"504 407 OFFCURVE",
"512 398 OFFCURVE",
"512 382 CURVE SMOOTH",
"512 351 LINE SMOOTH",
"512 335 OFFCURVE",
"504 326 OFFCURVE",
"488 326 CURVE SMOOTH",
"245 326 LINE SMOOTH",
"229 326 OFFCURVE",
"220 335 OFFCURVE",
"220 351 CURVE SMOOTH",
"220 387 LINE SMOOTH",
"220 399 OFFCURVE",
"224 408 OFFCURVE",
"233 417 CURVE SMOOTH",
"243 425 OFFCURVE",
"254 436 OFFCURVE",
"268 447 CURVE SMOOTH",
"379 546 OFFCURVE",
"436 586 OFFCURVE",
"436 617 CURVE SMOOTH",
"436 660 OFFCURVE",
"398 689 OFFCURVE",
"343 689 CURVE SMOOTH",
"317 689 OFFCURVE",
"287 682 OFFCURVE",
"252 668 CURVE SMOOTH",
"234 661 OFFCURVE",
"223 667 OFFCURVE",
"223 686 CURVE SMOOTH",
"223 694 LINE SMOOTH",
"223 708 OFFCURVE",
"229 717 OFFCURVE",
"243 722 CURVE SMOOTH",
"285 735 OFFCURVE",
"321 742 OFFCURVE",
"354 742 CURVE SMOOTH",
"448 742 OFFCURVE",
"509 695 OFFCURVE",
"509 625 CURVE SMOOTH",
"509 580 OFFCURVE",
"456 536 OFFCURVE",
"348 443 CURVE SMOOTH",
"340 437 LINE SMOOTH",
"323 422 OFFCURVE",
"329 407 OFFCURVE",
"351 407 CURVE SMOOTH"
);
}
);
width = 732;
}
);
unicode = 00B2;
},
{
glyphname = threesuperior;
lastChange = "2017-12-05 02:44:33 +0000";
layers = (
{
layerId = "6B6936E6-7670-4A82-900D-EAF583C971AF";
paths = (
{
closed = 1;
nodes = (
"490 524 OFFCURVE",
"516 490 OFFCURVE",
"516 445 CURVE SMOOTH",
"516 364 OFFCURVE",
"452 319 OFFCURVE",
"336 319 CURVE SMOOTH",
"305 319 OFFCURVE",
"271 324 OFFCURVE",
"235 333 CURVE SMOOTH",
"220 337 OFFCURVE",
"214 346 OFFCURVE",
"215 361 CURVE SMOOTH",
"216 390 LINE SMOOTH",
"217 408 OFFCURVE",
"228 414 OFFCURVE",
"245 408 CURVE SMOOTH",
"272 398 OFFCURVE",
"302 394 OFFCURVE",
"334 394 CURVE SMOOTH",
"405 394 OFFCURVE",
"441 399 OFFCURVE",
"441 445 CURVE SMOOTH",
"441 493 OFFCURVE",
"405 518 OFFCURVE",
"334 518 CURVE SMOOTH",
"313 518 LINE SMOOTH",
"300 518 OFFCURVE",
"292 526 OFFCURVE",
"292 542 CURVE SMOOTH",
"292 546 LINE SMOOTH",
"292 563 OFFCURVE",
"301 571 OFFCURVE",
"317 571 CURVE SMOOTH",
"338 571 LINE SMOOTH",
"399 571 OFFCURVE",
"432 592 OFFCURVE",
"432 631 CURVE SMOOTH",
"432 668 OFFCURVE",
"398 689 OFFCURVE",
"336 689 CURVE SMOOTH",
"315 689 OFFCURVE",
"292 686 OFFCURVE",
"255 677 CURVE SMOOTH",
"238 672 OFFCURVE",
"228 680 OFFCURVE",
"228 697 CURVE SMOOTH",
"228 703 LINE SMOOTH",
"228 718 OFFCURVE",
"234 727 OFFCURVE",
"249 730 CURVE SMOOTH",
"288 738 OFFCURVE",
"322 742 OFFCURVE",
"353 742 CURVE SMOOTH",
"446 742 OFFCURVE",
"505 701 OFFCURVE",
"505 636 CURVE SMOOTH",
"505 599 OFFCURVE",
"484 569 OFFCURVE",
"445 554 CURVE SMOOTH",
"430 548 OFFCURVE",
"430 546 OFFCURVE",
"445 541 CURVE SMOOTH"
);
}
);
width = 732;
}
);
unicode = 00B3;
},
{
glyphname = acute;
lastChange = "2017-12-05 02:44:33 +0000";
layers = (
{
anchors = (
{
name = _top;
position = "{277, 396}";
}
);
layerId = "6B6936E6-7670-4A82-900D-EAF583C971AF";
paths = (
{
closed = 1;
nodes = (
"378 834 LINE SMOOTH",
"386 844 OFFCURVE",
"395 849 OFFCURVE",
"408 849 CURVE SMOOTH",
"458 849 LINE SMOOTH",
"479 849 OFFCURVE",
"485 834 OFFCURVE",
"472 819 CURVE SMOOTH",
"332 658 LINE SMOOTH",
"324 648 OFFCURVE",
"315 645 OFFCURVE",
"302 645 CURVE SMOOTH",
"274 645 LINE SMOOTH",
"254 645 OFFCURVE",
"247 658 OFFCURVE",
"260 674 CURVE SMOOTH"
);
}
);
width = 732;
}
);
unicode = 00B4;
},
{
glyphname = mu;
lastChange = "2017-12-05 02:44:33 +0000";
layers = (
{
layerId = "6B6936E6-7670-4A82-900D-EAF583C971AF";
paths = (
{
closed = 1;
nodes = (
"135 -271 LINE SMOOTH",
"119 -271 OFFCURVE",
"111 -262 OFFCURVE",
"110 -246 CURVE SMOOTH",
"89 535 LINE SMOOTH",
"88 551 OFFCURVE",
"97 560 OFFCURVE",
"112 561 CURVE SMOOTH",
"153 563 LINE SMOOTH",
"169 563 OFFCURVE",
"178 555 OFFCURVE",
"179 539 CURVE SMOOTH",
"186 310 LINE SMOOTH",
"188 215 OFFCURVE",
"231 167 OFFCURVE",
"319 167 CURVE SMOOTH",
"415 167 OFFCURVE",
"464 221 OFFCURVE",
"464 331 CURVE SMOOTH",
"468 523 LINE SMOOTH",
"469 539 OFFCURVE",
"477 547 OFFCURVE",
"493 547 CURVE SMOOTH",
"534 547 LINE SMOOTH",
"550 547 OFFCURVE",
"559 538 OFFCURVE",
"558 522 CURVE SMOOTH",
"554 126 LINE SMOOTH",
"554 109 OFFCURVE",
"567 99 OFFCURVE",
"594 95 CURVE SMOOTH",
"604 93 OFFCURVE",
"621 96 OFFCURVE",
"621 96 CURVE",
"624 97 OFFCURVE",
"627 98 OFFCURVE",
"631 100 CURVE SMOOTH",
"638 103 OFFCURVE",
"642 92 OFFCURVE",
"642 74 CURVE SMOOTH",
"642 52 LINE SMOOTH",
"642 38 OFFCURVE",
"637 29 OFFCURVE",
"625 22 CURVE SMOOTH",
"616 17 OFFCURVE",
"606 11 OFFCURVE",
"595 3 CURVE SMOOTH",
"576 -8 OFFCURVE",
"561 -14 OFFCURVE",
"550 -14 CURVE SMOOTH",
"513 -14 OFFCURVE",
"489 2 OFFCURVE",
"476 38 CURVE SMOOTH",
"470 54 OFFCURVE",
"464 55 OFFCURVE",
"454 42 CURVE SMOOTH",
"422 5 OFFCURVE",
"380 -14 OFFCURVE",
"326 -14 CURVE SMOOTH",
"276 -14 OFFCURVE",
"237 0 OFFCURVE",
"209 29 CURVE SMOOTH",
"194 45 OFFCURVE",
"186 42 OFFCURVE",
"187 21 CURVE SMOOTH",
"200 -246 LINE SMOOTH",
"201 -262 OFFCURVE",
"192 -271 OFFCURVE",
"176 -271 CURVE SMOOTH"
);
}
);
width = 732;
}
);
unicode = 00B5;
},
{
glyphname = paragraph;
lastChange = "2017-12-05 02:44:33 +0000";
layers = (
{
layerId = "6B6936E6-7670-4A82-900D-EAF583C971AF";
paths = (
{
closed = 1;
nodes = (
"513 729 LINE SMOOTH",
"528 729 OFFCURVE",
"537 721 OFFCURVE",
"539 706 CURVE SMOOTH",
"640 -70 LINE SMOOTH",
"642 -87 OFFCURVE",
"634 -96 OFFCURVE",
"617 -96 CURVE SMOOTH",
"492 -96 LINE SMOOTH",
"476 -96 OFFCURVE",
"467 -87 OFFCURVE",
"467 -72 CURVE SMOOTH",
"472 645 LINE SMOOTH",
"472 660 OFFCURVE",
"463 669 OFFCURVE",
"448 669 CURVE SMOOTH",
"404 669 LINE SMOOTH",
"388 669 OFFCURVE",
"379 660 OFFCURVE",
"379 645 CURVE SMOOTH",
"379 -72 LINE SMOOTH",
"379 -88 OFFCURVE",
"371 -96 OFFCURVE",
"355 -96 CURVE SMOOTH",
"248 -96 LINE SMOOTH",
"231 -96 OFFCURVE",
"223 -87 OFFCURVE",
"224 -71 CURVE SMOOTH",
"254 294 LINE SMOOTH",
"256 310 OFFCURVE",
"249 318 OFFCURVE",
"235 322 CURVE SMOOTH",
"169 344 OFFCURVE",
"90 416 OFFCURVE",
"90 523 CURVE SMOOTH",
"90 646 OFFCURVE",
"182 729 OFFCURVE",
"322 729 CURVE SMOOTH"
);
}
);
width = 732;
}
);
unicode = 00B6;
},
{
glyphname = periodcentered;
lastChange = "2017-12-05 02:44:33 +0000";
layers = (
{
anchors = (
{
name = _dot;
position = "{302, 376}";
}
);
layerId = "6B6936E6-7670-4A82-900D-EAF583C971AF";
paths = (
{
closed = 1;
nodes = (
"314 385 LINE SMOOTH",
"314 400 OFFCURVE",
"322 409 OFFCURVE",
"338 409 CURVE SMOOTH",
"393 409 LINE SMOOTH",
"409 409 OFFCURVE",
"417 400 OFFCURVE",
"417 385 CURVE SMOOTH",
"417 310 LINE SMOOTH",
"417 294 OFFCURVE",
"409 285 OFFCURVE",
"393 285 CURVE SMOOTH",
"338 285 LINE SMOOTH",
"323 285 OFFCURVE",
"314 293 OFFCURVE",
"314 310 CURVE SMOOTH"
);
}
);
width = 732;
}
);
unicode = 00B7;
},
{
glyphname = cedilla;
lastChange = "2017-12-05 02:44:33 +0000";
layers = (
{
anchors = (
{
name = _bottom;
position = "{366, 0}";
}
);
layerId = "6B6936E6-7670-4A82-900D-EAF583C971AF";
paths = (
{
closed = 1;
nodes = (
"396 0 LINE SMOOTH",
"409 0 OFFCURVE",
"418 -4 OFFCURVE",
"426 -14 CURVE SMOOTH",
"454 -48 OFFCURVE",
"467 -78 OFFCURVE",
"467 -105 CURVE SMOOTH",
"467 -163 OFFCURVE",
"428 -193 OFFCURVE",
"351 -193 CURVE SMOOTH",
"329 -193 OFFCURVE",
"307 -191 OFFCURVE",
"286 -187 CURVE SMOOTH",
"272 -183 OFFCURVE",
"265 -174 OFFCURVE",
"265 -159 CURVE SMOOTH",
"265 -146 LINE SMOOTH",
"265 -128 OFFCURVE",
"275 -123 OFFCURVE",
"292 -127 CURVE SMOOTH",
"307 -131 OFFCURVE",
"322 -133 OFFCURVE",
"341 -133 CURVE SMOOTH",
"379 -133 OFFCURVE",
"399 -117 OFFCURVE",
"399 -87 CURVE SMOOTH",
"399 -73 OFFCURVE",
"392 -54 OFFCURVE",
"376 -30 CURVE SMOOTH",
"366 -13 OFFCURVE",
"369 0 OFFCURVE",
"385 0 CURVE SMOOTH"
);
}
);
width = 732;
}
);
unicode = 00B8;
},
{
glyphname = onesuperior;
lastChange = "2017-12-05 02:44:33 +0000";
layers = (
{
layerId = "6B6936E6-7670-4A82-900D-EAF583C971AF";
paths = (
{
closed = 1;
nodes = (
"235 392 LINE SMOOTH",
"235 407 OFFCURVE",
"243 416 OFFCURVE",
"259 416 CURVE SMOOTH",
"310 416 LINE SMOOTH",
"326 416 OFFCURVE",
"334 425 OFFCURVE",
"334 440 CURVE SMOOTH",
"334 651 LINE SMOOTH",
"334 668 OFFCURVE",
"325 676 OFFCURVE",
"308 673 CURVE SMOOTH",
"252 663 LINE SMOOTH",
"235 660 OFFCURVE",
"226 668 OFFCURVE",
"226 685 CURVE SMOOTH",
"226 692 LINE SMOOTH",
"226 708 OFFCURVE",
"233 716 OFFCURVE",
"248 719 CURVE SMOOTH",
"323 731 LINE SMOOTH",
"334 733 OFFCURVE",
"342 734 OFFCURVE",
"353 734 CURVE SMOOTH",
"380 734 LINE SMOOTH",
"396 734 OFFCURVE",
"405 726 OFFCURVE",
"405 709 CURVE SMOOTH",
"405 440 LINE SMOOTH",
"405 425 OFFCURVE",
"414 416 OFFCURVE",
"429 416 CURVE SMOOTH",
"480 416 LINE SMOOTH",
"497 416 OFFCURVE",
"505 408 OFFCURVE",
"505 392 CURVE SMOOTH",
"505 351 LINE SMOOTH",
"505 335 OFFCURVE",
"497 326 OFFCURVE",
"480 326 CURVE SMOOTH",
"259 326 LINE SMOOTH",
"244 326 OFFCURVE",
"235 334 OFFCURVE",
"235 351 CURVE SMOOTH"
);
}
);
width = 732;
}
);
unicode = 00B9;
},
{
glyphname = ordmasculine;
lastChange = "2017-12-05 02:44:33 +0000";
layers = (
{
layerId = "6B6936E6-7670-4A82-900D-EAF583C971AF";
paths = (
{
closed = 1;
nodes = (
"198 289 LINE",
"534 289 LINE",
"534 229 LINE",
"198 229 LINE"
);
},
{
closed = 1;
nodes = (
"482 742 OFFCURVE",
"554 666 OFFCURVE",
"554 541 CURVE SMOOTH",
"554 417 OFFCURVE",
"482 341 OFFCURVE",
"366 341 CURVE SMOOTH",
"249 341 OFFCURVE",
"177 417 OFFCURVE",
"177 541 CURVE SMOOTH",
"177 666 OFFCURVE",
"249 742 OFFCURVE",
"366 742 CURVE SMOOTH"
);
},
{
closed = 1;
nodes = (
"297 704 OFFCURVE",
"253 656 OFFCURVE",
"253 582 CURVE SMOOTH",
"253 508 OFFCURVE",
"298 460 OFFCURVE",
"366 460 CURVE SMOOTH",
"434 460 OFFCURVE",
"478 508 OFFCURVE",
"478 582 CURVE SMOOTH",
"478 657 OFFCURVE",
"435 704 OFFCURVE",
"366 704 CURVE SMOOTH"
);
}
);
width = 732;
}
);
unicode = 00BA;
},
{
glyphname = guillemotright;
lastChange = "2017-12-05 02:44:33 +0000";
layers = (
{
layerId = "6B6936E6-7670-4A82-900D-EAF583C971AF";
paths = (
{
closed = 1;
nodes = (
"150 489 LINE SMOOTH",
"151 510 OFFCURVE",
"166 516 OFFCURVE",
"181 500 CURVE SMOOTH",
"359 324 LINE SMOOTH",
"367 316 OFFCURVE",
"372 309 OFFCURVE",
"374 297 CURVE SMOOTH",
"381 272 LINE SMOOTH",
"385 259 OFFCURVE",
"382 249 OFFCURVE",
"371 240 CURVE SMOOTH",
"174 82 LINE SMOOTH",
"159 70 OFFCURVE",
"145 75 OFFCURVE",
"144 95 CURVE SMOOTH",
"136 155 LINE SMOOTH",
"134 168 OFFCURVE",
"138 178 OFFCURVE",
"149 187 CURVE SMOOTH",
"267 281 LINE SMOOTH",
"280 292 OFFCURVE",
"281 304 OFFCURVE",
"269 315 CURVE SMOOTH",
"160 423 LINE SMOOTH",
"151 432 OFFCURVE",
"148 441 OFFCURVE",
"148 454 CURVE SMOOTH"
);
},
{
closed = 1;
nodes = (
"362 478 LINE SMOOTH",
"363 499 OFFCURVE",
"377 504 OFFCURVE",
"392 489 CURVE SMOOTH",
"570 313 LINE SMOOTH",
"579 305 OFFCURVE",
"583 297 OFFCURVE",
"586 286 CURVE SMOOTH",
"593 261 LINE SMOOTH",
"597 248 OFFCURVE",
"593 237 OFFCURVE",
"582 229 CURVE SMOOTH",
"386 71 LINE SMOOTH",
"371 59 OFFCURVE",
"357 64 OFFCURVE",
"355 84 CURVE SMOOTH",
"348 144 LINE SMOOTH",
"346 157 OFFCURVE",
"350 167 OFFCURVE",
"360 175 CURVE SMOOTH",
"478 270 LINE SMOOTH",
"492 280 OFFCURVE",
"492 293 OFFCURVE",
"480 304 CURVE SMOOTH",
"372 412 LINE SMOOTH",
"363 420 OFFCURVE",
"359 430 OFFCURVE",
"360 442 CURVE SMOOTH"
);
}
);
width = 732;
}
);
unicode = 00BB;
},
{
glyphname = onequarter;
lastChange = "2017-12-05 02:44:33 +0000";
layers = (
{
layerId = "6B6936E6-7670-4A82-900D-EAF583C971AF";
paths = (
{
closed = 1;
nodes = (
"-33 355 LINE SMOOTH",
"-33 372 OFFCURVE",
"-24 380 OFFCURVE",
"-8 380 CURVE SMOOTH",
"42 380 LINE SMOOTH",
"59 380 OFFCURVE",
"67 389 OFFCURVE",
"67 404 CURVE SMOOTH",
"67 651 LINE SMOOTH",
"67 668 OFFCURVE",
"57 676 OFFCURVE",
"41 673 CURVE SMOOTH",
"-16 663 LINE SMOOTH",
"-32 660 OFFCURVE",
"-42 668 OFFCURVE",
"-42 685 CURVE SMOOTH",
"-42 692 LINE SMOOTH",
"-42 708 OFFCURVE",
"-35 716 OFFCURVE",
"-20 719 CURVE SMOOTH",
"56 731 LINE SMOOTH",
"66 733 OFFCURVE",
"74 734 OFFCURVE",
"85 734 CURVE SMOOTH",
"113 734 LINE SMOOTH",
"129 734 OFFCURVE",
"137 725 OFFCURVE",
"137 709 CURVE SMOOTH",
"137 404 LINE SMOOTH",
"137 389 OFFCURVE",
"146 380 OFFCURVE",
"162 380 CURVE SMOOTH",
"213 380 LINE SMOOTH",
"229 380 OFFCURVE",
"237 372 OFFCURVE",
"237 355 CURVE SMOOTH",
"237 351 LINE SMOOTH",
"237 335 OFFCURVE",
"229 326 OFFCURVE",
"213 326 CURVE SMOOTH",
"-8 326 LINE SMOOTH",
"-24 326 OFFCURVE",
"-33 335 OFFCURVE",
"-33 351 CURVE SMOOTH"
);
},
{
closed = 1;
nodes = (
"574 726 LINE SMOOTH",
"581 737 OFFCURVE",
"589 742 OFFCURVE",
"603 742 CURVE SMOOTH",
"627 742 LINE SMOOTH",
"647 742 OFFCURVE",
"654 729 OFFCURVE",
"644 713 CURVE SMOOTH",
"216 2 LINE SMOOTH",
"209 -9 OFFCURVE",
"201 -14 OFFCURVE",
"188 -14 CURVE SMOOTH",
"163 -14 LINE SMOOTH",
"143 -14 OFFCURVE",
"136 -1 OFFCURVE",
"146 15 CURVE SMOOTH"
);
},
{
closed = 1;
nodes = (
"638 299 LINE SMOOTH",
"638 323 OFFCURVE",
"622 328 OFFCURVE",
"608 309 CURVE SMOOTH",
"509 175 LINE SMOOTH",
"497 158 OFFCURVE",
"504 145 OFFCURVE",
"524 145 CURVE SMOOTH",
"614 145 LINE SMOOTH",
"630 145 OFFCURVE",
"638 153 OFFCURVE",
"638 169 CURVE SMOOTH"
);
},
{
closed = 1;
nodes = (
"616 394 LINE SMOOTH",
"624 404 OFFCURVE",
"633 409 OFFCURVE",
"646 409 CURVE SMOOTH",
"684 409 LINE SMOOTH",
"700 409 OFFCURVE",
"708 400 OFFCURVE",
"708 384 CURVE SMOOTH",
"708 169 LINE SMOOTH",
"708 154 OFFCURVE",
"717 145 OFFCURVE",
"733 145 CURVE SMOOTH",
"753 145 LINE SMOOTH",
"767 145 OFFCURVE",
"774 136 OFFCURVE",
"774 121 CURVE SMOOTH",
"774 116 LINE SMOOTH",
"774 101 OFFCURVE",
"766 92 OFFCURVE",
"750 92 CURVE SMOOTH",
"733 92 LINE SMOOTH",
"717 92 OFFCURVE",
"708 83 OFFCURVE",
"708 67 CURVE SMOOTH",
"708 25 LINE SMOOTH",
"708 9 OFFCURVE",
"700 1 OFFCURVE",
"684 1 CURVE SMOOTH",
"663 1 LINE SMOOTH",
"647 1 OFFCURVE",
"638 9 OFFCURVE",
"638 25 CURVE SMOOTH",
"638 67 LINE SMOOTH",
"638 83 OFFCURVE",
"629 92 OFFCURVE",
"614 92 CURVE SMOOTH",
"460 92 LINE SMOOTH",
"444 92 OFFCURVE",
"436 100 OFFCURVE",
"436 116 CURVE SMOOTH",
"436 134 LINE SMOOTH",
"436 146 OFFCURVE",
"439 155 OFFCURVE",
"446 165 CURVE SMOOTH"
);
}
);
width = 732;
}
);
unicode = 00BC;
},
{
glyphname = onehalf;
lastChange = "2017-12-05 02:44:33 +0000";
layers = (
{
layerId = "6B6936E6-7670-4A82-900D-EAF583C971AF";
paths = (
{
closed = 1;
nodes = (
"-36 355 LINE SMOOTH",
"-36 372 OFFCURVE",
"-28 380 OFFCURVE",
"-12 380 CURVE SMOOTH",
"40 380 LINE SMOOTH",
"56 380 OFFCURVE",
"64 389 OFFCURVE",
"64 404 CURVE SMOOTH",
"64 651 LINE SMOOTH",
"64 668 OFFCURVE",
"55 676 OFFCURVE",
"38 673 CURVE SMOOTH",
"-19 663 LINE SMOOTH",
"-36 660 OFFCURVE",
"-45 668 OFFCURVE",
"-45 685 CURVE SMOOTH",
"-45 692 LINE SMOOTH",
"-45 708 OFFCURVE",
"-38 716 OFFCURVE",
"-23 719 CURVE SMOOTH",
"53 731 LINE SMOOTH",
"64 733 OFFCURVE",
"72 734 OFFCURVE",
"83 734 CURVE SMOOTH",
"110 734 LINE SMOOTH",
"127 734 OFFCURVE",
"135 725 OFFCURVE",
"135 709 CURVE SMOOTH",
"135 404 LINE SMOOTH",
"135 389 OFFCURVE",
"144 380 OFFCURVE",
"160 380 CURVE SMOOTH",
"211 380 LINE SMOOTH",
"227 380 OFFCURVE",
"235 372 OFFCURVE",
"235 355 CURVE SMOOTH",
"235 351 LINE SMOOTH",
"235 335 OFFCURVE",
"227 326 OFFCURVE",
"211 326 CURVE SMOOTH",
"-12 326 LINE SMOOTH",
"-27 326 OFFCURVE",
"-36 335 OFFCURVE",
"-36 351 CURVE SMOOTH"
);
},
{
closed = 1;
nodes = (
"547 726 LINE SMOOTH",
"554 737 OFFCURVE",
"563 742 OFFCURVE",
"576 742 CURVE SMOOTH",
"601 742 LINE SMOOTH",
"621 742 OFFCURVE",
"628 729 OFFCURVE",
"618 713 CURVE SMOOTH",
"190 2 LINE SMOOTH",
"183 -9 OFFCURVE",
"174 -14 OFFCURVE",
"161 -14 CURVE SMOOTH",
"136 -14 LINE SMOOTH",
"117 -14 OFFCURVE",
"109 -1 OFFCURVE",
"120 15 CURVE SMOOTH"
);
},
{
closed = 1;
nodes = (
"752 57 LINE SMOOTH",
"769 57 OFFCURVE",
"777 48 OFFCURVE",
"777 32 CURVE SMOOTH",
"777 25 LINE SMOOTH",
"777 10 OFFCURVE",
"769 1 OFFCURVE",
"752 1 CURVE SMOOTH",
"509 1 LINE SMOOTH",
"494 1 OFFCURVE",
"485 10 OFFCURVE",
"485 25 CURVE SMOOTH",
"485 37 LINE SMOOTH",
"485 49 OFFCURVE",
"489 58 OFFCURVE",
"498 67 CURVE SMOOTH",
"507 75 OFFCURVE",
"519 85 OFFCURVE",
"532 97 CURVE SMOOTH",
"644 196 OFFCURVE",
"700 261 OFFCURVE",
"700 292 CURVE SMOOTH",
"700 335 OFFCURVE",
"663 364 OFFCURVE",
"608 364 CURVE SMOOTH",
"582 364 OFFCURVE",
"551 357 OFFCURVE",
"517 343 CURVE SMOOTH",
"499 335 OFFCURVE",
"488 342 OFFCURVE",
"488 361 CURVE SMOOTH",
"488 369 LINE SMOOTH",
"488 383 OFFCURVE",
"494 392 OFFCURVE",
"508 396 CURVE SMOOTH",
"550 410 OFFCURVE",
"586 417 OFFCURVE",
"618 417 CURVE SMOOTH",
"712 417 OFFCURVE",
"774 370 OFFCURVE",
"774 300 CURVE SMOOTH",
"774 254 OFFCURVE",
"720 186 OFFCURVE",
"612 93 CURVE SMOOTH",
"604 87 LINE SMOOTH",
"587 72 OFFCURVE",
"593 57 OFFCURVE",
"616 57 CURVE SMOOTH"
);
}
);
width = 732;
}
);
unicode = 00BD;
},
{
glyphname = threequarters;
lastChange = "2017-12-05 02:44:33 +0000";
layers = (
{
layerId = "6B6936E6-7670-4A82-900D-EAF583C971AF";
paths = (
{
closed = 1;
nodes = (
"238 524 OFFCURVE",
"263 490 OFFCURVE",
"263 445 CURVE SMOOTH",
"263 364 OFFCURVE",
"199 319 OFFCURVE",
"84 319 CURVE SMOOTH",
"53 319 OFFCURVE",
"19 324 OFFCURVE",
"-18 333 CURVE SMOOTH",
"-32 337 OFFCURVE",
"-39 346 OFFCURVE",
"-39 360 CURVE SMOOTH",
"-39 369 LINE SMOOTH",
"-39 386 OFFCURVE",
"-28 392 OFFCURVE",
"-11 386 CURVE SMOOTH",
"16 376 OFFCURVE",
"45 372 OFFCURVE",
"77 372 CURVE SMOOTH",
"148 372 OFFCURVE",
"189 399 OFFCURVE",
"189 445 CURVE SMOOTH",
"189 493 OFFCURVE",
"152 518 OFFCURVE",
"82 518 CURVE SMOOTH",
"61 518 LINE SMOOTH",
"47 518 OFFCURVE",
"40 526 OFFCURVE",
"40 542 CURVE SMOOTH",
"40 546 LINE SMOOTH",
"40 563 OFFCURVE",
"48 571 OFFCURVE",
"64 571 CURVE SMOOTH",
"86 571 LINE SMOOTH",
"147 571 OFFCURVE",
"179 592 OFFCURVE",
"179 631 CURVE SMOOTH",
"179 668 OFFCURVE",
"146 689 OFFCURVE",
"84 689 CURVE SMOOTH",
"63 689 OFFCURVE",
"40 686 OFFCURVE",
"3 677 CURVE SMOOTH",
"-14 672 OFFCURVE",
"-25 680 OFFCURVE",
"-25 697 CURVE SMOOTH",
"-25 703 LINE SMOOTH",
"-25 718 OFFCURVE",
"-18 727 OFFCURVE",
"-3 730 CURVE SMOOTH",
"35 738 OFFCURVE",
"70 742 OFFCURVE",
"100 742 CURVE SMOOTH",
"194 742 OFFCURVE",
"253 701 OFFCURVE",
"253 636 CURVE SMOOTH",
"253 599 OFFCURVE",
"231 569 OFFCURVE",
"193 554 CURVE SMOOTH",
"178 548 OFFCURVE",
"178 546 OFFCURVE",
"193 541 CURVE SMOOTH"
);
},
{
closed = 1;
nodes = (
"590 726 LINE SMOOTH",
"597 737 OFFCURVE",
"606 742 OFFCURVE",
"619 742 CURVE SMOOTH",
"644 742 LINE SMOOTH",
"664 742 OFFCURVE",
"671 729 OFFCURVE",
"661 713 CURVE SMOOTH",
"233 2 LINE SMOOTH",
"226 -9 OFFCURVE",
"217 -14 OFFCURVE",
"204 -14 CURVE SMOOTH",
"179 -14 LINE SMOOTH",
"160 -14 OFFCURVE",
"152 -1 OFFCURVE",
"163 15 CURVE SMOOTH"
);
},
{
closed = 1;
nodes = (
"635 299 LINE SMOOTH",
"635 323 OFFCURVE",
"619 328 OFFCURVE",
"605 309 CURVE SMOOTH",
"506 175 LINE SMOOTH",
"494 158 OFFCURVE",
"501 145 OFFCURVE",
"521 145 CURVE SMOOTH",
"611 145 LINE SMOOTH",
"627 145 OFFCURVE",
"635 153 OFFCURVE",
"635 169 CURVE SMOOTH"
);
},
{
closed = 1;
nodes = (
"613 394 LINE SMOOTH",
"621 404 OFFCURVE",
"630 409 OFFCURVE",
"643 409 CURVE SMOOTH",
"681 409 LINE SMOOTH",
"697 409 OFFCURVE",
"706 400 OFFCURVE",
"706 384 CURVE SMOOTH",
"706 169 LINE SMOOTH",
"706 154 OFFCURVE",
"714 145 OFFCURVE",
"730 145 CURVE SMOOTH",
"750 145 LINE SMOOTH",
"764 145 OFFCURVE",
"771 136 OFFCURVE",
"771 121 CURVE SMOOTH",
"771 116 LINE SMOOTH",
"771 101 OFFCURVE",
"763 92 OFFCURVE",
"747 92 CURVE SMOOTH",
"730 92 LINE SMOOTH",
"714 92 OFFCURVE",
"706 83 OFFCURVE",
"706 67 CURVE SMOOTH",
"706 25 LINE SMOOTH",
"706 9 OFFCURVE",
"697 1 OFFCURVE",
"681 1 CURVE SMOOTH",
"660 1 LINE SMOOTH",
"644 1 OFFCURVE",
"635 9 OFFCURVE",
"635 25 CURVE SMOOTH",
"635 67 LINE SMOOTH",
"635 83 OFFCURVE",
"626 92 OFFCURVE",
"611 92 CURVE SMOOTH",
"458 92 LINE SMOOTH",
"441 92 OFFCURVE",
"433 100 OFFCURVE",
"433 116 CURVE SMOOTH",
"433 134 LINE SMOOTH",
"433 146 OFFCURVE",
"436 155 OFFCURVE",
"443 165 CURVE SMOOTH"
);
}
);
width = 732;
}
);
unicode = 00BE;
},
{
glyphname = questiondown;
lastChange = "2017-12-05 02:44:33 +0000";
layers = (
{
layerId = "6B6936E6-7670-4A82-900D-EAF583C971AF";
paths = (
{
closed = 1;
nodes = (
"345 509 LINE SMOOTH",
"345 525 OFFCURVE",
"354 533 OFFCURVE",
"370 533 CURVE SMOOTH",
"399 533 LINE SMOOTH",
"415 533 OFFCURVE",
"423 524 OFFCURVE",
"423 509 CURVE SMOOTH",
"423 457 LINE SMOOTH",
"423 391 OFFCURVE",
"413 381 OFFCURVE",
"367 331 CURVE",
"323 288 LINE SMOOTH",
"286 253 OFFCURVE",
"270 224 OFFCURVE",
"270 192 CURVE SMOOTH",
"270 134 OFFCURVE",
"316 95 OFFCURVE",
"387 95 CURVE SMOOTH",
"430 95 OFFCURVE",
"479 112 OFFCURVE",
"530 143 CURVE SMOOTH",
"548 153 OFFCURVE",
"560 147 OFFCURVE",
"560 127 CURVE SMOOTH",
"560 61 LINE SMOOTH",
"560 47 OFFCURVE",
"555 38 OFFCURVE",
"543 31 CURVE SMOOTH",
"488 1 OFFCURVE",
"431 -14 OFFCURVE",
"370 -14 CURVE SMOOTH",
"250 -14 OFFCURVE",
"171 55 OFFCURVE",
"171 158 CURVE SMOOTH",
"171 208 OFFCURVE",
"192 248 OFFCURVE",
"250 304 CURVE SMOOTH",
"293 346 LINE SMOOTH",
"324 377 OFFCURVE",
"333 391 OFFCURVE",
"339 407 CURVE SMOOTH",
"343 421 OFFCURVE",
"345 438 OFFCURVE",
"345 473 CURVE SMOOTH"
);
},
{
closed = 1;
nodes = (
"441 629 LINE SMOOTH",
"441 614 OFFCURVE",
"433 605 OFFCURVE",
"416 605 CURVE SMOOTH",
"367 605 LINE SMOOTH",
"351 605 OFFCURVE",
"342 614 OFFCURVE",
"342 629 CURVE SMOOTH",
"342 705 LINE SMOOTH",
"342 721 OFFCURVE",
"351 729 OFFCURVE",
"367 729 CURVE SMOOTH",
"416 729 LINE SMOOTH",
"433 729 OFFCURVE",
"441 721 OFFCURVE",
"441 705 CURVE SMOOTH"
);
}
);
width = 732;
}
);
unicode = 00BF;
},
{
glyphname = AE;
lastChange = "2017-12-05 02:44:33 +0000";
layers = (
{
anchors = (
{
name = top;
position = "{388, 729}";
}
);
layerId = "6B6936E6-7670-4A82-900D-EAF583C971AF";
paths = (
{
closed = 1;
nodes = (
"658 729 LINE SMOOTH",
"674 729 OFFCURVE",
"682 721 OFFCURVE",
"682 705 CURVE SMOOTH",
"682 670 LINE SMOOTH",
"682 655 OFFCURVE",
"674 646 OFFCURVE",
"658 646 CURVE SMOOTH",
"467 646 LINE SMOOTH",
"451 646 OFFCURVE",
"442 638 OFFCURVE",
"442 622 CURVE SMOOTH",
"442 372 LINE SMOOTH",
"442 356 OFFCURVE",
"451 347 OFFCURVE",
"467 347 CURVE SMOOTH",
"643 347 LINE SMOOTH",
"659 347 OFFCURVE",
"667 339 OFFCURVE",
"667 323 CURVE SMOOTH",
"667 289 LINE SMOOTH",
"667 273 OFFCURVE",
"659 264 OFFCURVE",
"643 264 CURVE SMOOTH",
"467 264 LINE SMOOTH",
"451 264 OFFCURVE",
"442 256 OFFCURVE",
"442 240 CURVE SMOOTH",
"442 151 LINE SMOOTH",
"442 136 OFFCURVE",
"451 127 OFFCURVE",
"467 127 CURVE SMOOTH",
"667 127 LINE SMOOTH",
"683 127 OFFCURVE",
"691 118 OFFCURVE",
"691 103 CURVE SMOOTH",
"691 24 LINE SMOOTH",
"691 9 OFFCURVE",
"683 0 OFFCURVE",
"667 0 CURVE SMOOTH",
"373 0 LINE SMOOTH",
"357 0 OFFCURVE",
"348 8 OFFCURVE",
"348 24 CURVE SMOOTH",
"348 104 LINE SMOOTH",
"348 120 OFFCURVE",
"340 128 OFFCURVE",
"324 128 CURVE SMOOTH",
"218 128 LINE SMOOTH",
"202 128 OFFCURVE",
"193 120 OFFCURVE",
"194 104 CURVE SMOOTH",
"197 25 LINE SMOOTH",
"197 9 OFFCURVE",
"189 0 OFFCURVE",
"173 0 CURVE SMOOTH",
"60 0 LINE SMOOTH",
"41 0 OFFCURVE",
"37 11 OFFCURVE",
"41 28 CURVE SMOOTH",
"209 710 LINE SMOOTH",
"213 723 OFFCURVE",
"224 729 OFFCURVE",
"238 729 CURVE SMOOTH"
);
},
{
closed = 1;
nodes = (
"306 652 LINE SMOOTH",
"292 652 OFFCURVE",
"280 646 OFFCURVE",
"278 632 CURVE SMOOTH",
"207 238 LINE SMOOTH",
"205 222 OFFCURVE",
"209 210 OFFCURVE",
"227 210 CURVE SMOOTH",
"324 210 LINE SMOOTH",
"340 210 OFFCURVE",
"348 219 OFFCURVE",
"348 235 CURVE SMOOTH",
"348 627 LINE SMOOTH",
"348 644 OFFCURVE",
"339 652 OFFCURVE",
"324 652 CURVE SMOOTH"
);
}
);
width = 732;
}
);
unicode = 00C6;
},
{
glyphname = Eth;
lastChange = "2017-12-05 02:44:33 +0000";
layers = (
{
layerId = "6B6936E6-7670-4A82-900D-EAF583C971AF";
paths = (
{
closed = 1;
nodes = (
"147 705 LINE SMOOTH",
"147 721 OFFCURVE",
"156 729 OFFCURVE",
"172 729 CURVE SMOOTH",
"336 729 LINE SMOOTH",
"555 729 OFFCURVE",
"683 615 OFFCURVE",
"683 365 CURVE SMOOTH",
"683 114 OFFCURVE",
"555 0 OFFCURVE",
"336 0 CURVE SMOOTH",
"172 0 LINE SMOOTH",
"156 0 OFFCURVE",
"147 9 OFFCURVE",
"147 24 CURVE SMOOTH",
"147 317 LINE SMOOTH",
"147 333 OFFCURVE",
"139 342 OFFCURVE",
"123 342 CURVE SMOOTH",
"74 342 LINE SMOOTH",
"58 342 OFFCURVE",
"49 350 OFFCURVE",
"49 366 CURVE SMOOTH",
"49 388 LINE SMOOTH",
"49 404 OFFCURVE",
"58 412 OFFCURVE",
"74 412 CURVE SMOOTH",
"123 412 LINE SMOOTH",
"139 412 OFFCURVE",
"147 421 OFFCURVE",
"147 437 CURVE SMOOTH"
);
},
{
closed = 1;
nodes = (
"271 648 LINE SMOOTH",
"255 648 OFFCURVE",
"247 639 OFFCURVE",
"247 624 CURVE SMOOTH",
"247 437 LINE SMOOTH",
"247 421 OFFCURVE",
"255 412 OFFCURVE",
"271 412 CURVE SMOOTH",
"372 412 LINE SMOOTH",
"387 412 OFFCURVE",
"396 404 OFFCURVE",
"396 388 CURVE SMOOTH",
"396 366 LINE SMOOTH",
"396 351 OFFCURVE",
"387 342 OFFCURVE",
"372 342 CURVE SMOOTH",
"271 342 LINE SMOOTH",
"255 342 OFFCURVE",
"247 333 OFFCURVE",
"247 317 CURVE SMOOTH",
"247 174 LINE SMOOTH",
"247 158 OFFCURVE",
"255 149 OFFCURVE",
"271 149 CURVE SMOOTH",
"351 149 LINE SMOOTH",
"489 149 OFFCURVE",
"579 168 OFFCURVE",
"579 365 CURVE SMOOTH",
"579 561 OFFCURVE",
"489 648 OFFCURVE",
"351 648 CURVE SMOOTH"
);
}
);
width = 732;
}
);
unicode = 00D0;
},
{
glyphname = multiply;
lastChange = "2017-12-05 02:44:33 +0000";
layers = (
{
layerId = "6B6936E6-7670-4A82-900D-EAF583C971AF";
paths = (
{
closed = 1;
nodes = (
"623 530 LINE SMOOTH",
"634 519 OFFCURVE",
"634 507 OFFCURVE",
"623 496 CURVE SMOOTH",
"468 340 LINE SMOOTH",
"457 329 OFFCURVE",
"458 318 OFFCURVE",
"468 306 CURVE SMOOTH",
"610 142 LINE SMOOTH",
"620 130 OFFCURVE",
"620 118 OFFCURVE",
"609 107 CURVE SMOOTH",
"560 58 LINE SMOOTH",
"549 47 OFFCURVE",
"537 46 OFFCURVE",
"526 58 CURVE SMOOTH",
"375 208 LINE SMOOTH",
"364 220 OFFCURVE",
"352 220 OFFCURVE",
"341 208 CURVE SMOOTH",
"190 58 LINE SMOOTH",
"179 46 OFFCURVE",
"167 47 OFFCURVE",
"156 58 CURVE SMOOTH",
"108 107 LINE SMOOTH",
"97 118 OFFCURVE",
"97 130 OFFCURVE",
"107 141 CURVE SMOOTH",
"267 306 LINE SMOOTH",
"278 317 OFFCURVE",
"278 329 OFFCURVE",
"267 340 CURVE SMOOTH",
"127 481 LINE SMOOTH",
"116 492 OFFCURVE",
"116 504 OFFCURVE",
"127 515 CURVE SMOOTH",
"175 564 LINE SMOOTH",
"187 575 OFFCURVE",
"198 576 OFFCURVE",
"210 564 CURVE SMOOTH",
"351 423 LINE SMOOTH",
"362 412 OFFCURVE",
"374 412 OFFCURVE",
"385 423 CURVE SMOOTH",
"541 579 LINE SMOOTH",
"552 590 OFFCURVE",
"563 590 OFFCURVE",
"575 579 CURVE SMOOTH"
);
}
);
width = 732;
}
);
unicode = 00D7;
},
{
glyphname = Thorn;
lastChange = "2017-12-05 02:44:33 +0000";
layers = (
{
layerId = "6B6936E6-7670-4A82-900D-EAF583C971AF";
paths = (
{
closed = 1;
nodes = (
"130 729 LINE",
"228 729 LINE",
"228 625 LINE SMOOTH",
"228 609 OFFCURVE",
"237 600 OFFCURVE",
"253 600 CURVE SMOOTH",
"353 600 LINE SMOOTH",
"516 600 OFFCURVE",
"601 526 OFFCURVE",
"601 383 CURVE SMOOTH",
"601 240 OFFCURVE",
"516 165 OFFCURVE",
"353 165 CURVE SMOOTH",
"253 165 LINE SMOOTH",
"237 165 OFFCURVE",
"228 156 OFFCURVE",
"228 141 CURVE SMOOTH",
"228 0 LINE",
"130 0 LINE"
);
},
{
closed = 1;
nodes = (
"253 519 LINE SMOOTH",
"237 519 OFFCURVE",
"228 510 OFFCURVE",
"228 495 CURVE SMOOTH",
"228 271 LINE SMOOTH",
"228 255 OFFCURVE",
"237 246 OFFCURVE",
"253 246 CURVE SMOOTH",
"353 246 LINE SMOOTH",
"444 246 OFFCURVE",
"497 295 OFFCURVE",
"497 383 CURVE SMOOTH",
"497 470 OFFCURVE",
"445 519 OFFCURVE",
"353 519 CURVE SMOOTH"
);
}
);
width = 732;
}
);
unicode = 00DE;
},
{
glyphname = germandbls;
lastChange = "2017-12-05 02:44:33 +0000";
layers = (
{
layerId = "6B6936E6-7670-4A82-900D-EAF583C971AF";
paths = (
{
closed = 1;
nodes = (
"134 555 LINE",
"134 686 OFFCURVE",
"215 760 OFFCURVE",
"357 760 CURVE SMOOTH",
"493 760 OFFCURVE",
"565 683 OFFCURVE",
"567 537 CURVE",
"469 532 OFFCURVE",
"412 493 OFFCURVE",
"412 430 CURVE SMOOTH",
"412 399 OFFCURVE",
"429 375 OFFCURVE",
"472 347 CURVE SMOOTH",
"500 329 LINE SMOOTH",
"607 260 OFFCURVE",
"627 224 OFFCURVE",
"627 159 CURVE SMOOTH",
"627 47 OFFCURVE",
"552 -14 OFFCURVE",
"415 -14 CURVE SMOOTH",
"373 -14 OFFCURVE",
"329 -6 OFFCURVE",
"281 10 CURVE",
"281 129 LINE",
"333 109 OFFCURVE",
"378 100 OFFCURVE",
"420 100 CURVE SMOOTH",
"496 100 OFFCURVE",
"536 122 OFFCURVE",
"536 162 CURVE SMOOTH",
"536 176 OFFCURVE",
"531 189 OFFCURVE",
"521 203 CURVE SMOOTH",
"512 217 OFFCURVE",
"490 234 OFFCURVE",
"458 254 CURVE",
"417 281 LINE",
"388 319 OFFCURVE",
"353 361 OFFCURVE",
"353 420 CURVE SMOOTH",
"353 496 OFFCURVE",
"377 552 OFFCURVE",
"484 575 CURVE SMOOTH",
"502 579 OFFCURVE",
"508 590 OFFCURVE",
"500 607 CURVE SMOOTH",
"457 700 OFFCURVE",
"423 705 OFFCURVE",
"355 705 CURVE SMOOTH",
"275 705 OFFCURVE",
"233 668 OFFCURVE",
"218 568 CURVE SMOOTH",
"216 557 OFFCURVE",
"216 549 OFFCURVE",
"216 539 CURVE SMOOTH",
"240 0 LINE",
"105 0 LINE"
);
}
);
width = 732;
}
);
unicode = 00DF;
},
{
glyphname = ae;
lastChange = "2017-12-05 02:44:33 +0000";
layers = (
{
anchors = (
{
name = top;
position = "{364, 547}";
}
);
layerId = "6B6936E6-7670-4A82-900D-EAF583C971AF";
paths = (
{
closed = 1;
nodes = (
"685 352 LINE SMOOTH",
"701 352 OFFCURVE",
"711 361 OFFCURVE",
"708 377 CURVE SMOOTH",
"696 442 OFFCURVE",
"642 510 OFFCURVE",
"563 510 CURVE SMOOTH",
"475 510 OFFCURVE",
"415 445 OFFCURVE",
"396 377 CURVE SMOOTH",
"392 361 OFFCURVE",
"401 351 OFFCURVE",
"418 351 CURVE SMOOTH"
);
},
{
closed = 1;
nodes = (
"422 536 OFFCURVE",
"485 560 OFFCURVE",
"562 560 CURVE SMOOTH",
"708 560 OFFCURVE",
"801 449 OFFCURVE",
"801 325 CURVE SMOOTH",
"801 281 LINE",
"415 281 LINE SMOOTH",
"397 281 OFFCURVE",
"388 271 OFFCURVE",
"392 255 CURVE SMOOTH",
"410 181 OFFCURVE",
"476 120 OFFCURVE",
"583 120 CURVE SMOOTH",
"650 120 OFFCURVE",
"715 137 OFFCURVE",
"780 171 CURVE",
"780 42 LINE",
"715 15 OFFCURVE",
"646 -14 OFFCURVE",
"578 -14 CURVE SMOOTH",
"480 -14 OFFCURVE",
"405 18 OFFCURVE",
"354 80 CURVE SMOOTH",
"343 94 OFFCURVE",
"332 94 OFFCURVE",
"321 80 CURVE SMOOTH",
"275 17 OFFCURVE",
"210 -14 OFFCURVE",
"126 -14 CURVE SMOOTH",
"3 -14 OFFCURVE",
"-69 50 OFFCURVE",
"-69 159 CURVE SMOOTH",
"-69 321 OFFCURVE",
"14 375 OFFCURVE",
"178 375 CURVE SMOOTH",
"279 375 LINE SMOOTH",
"295 375 OFFCURVE",
"304 377 OFFCURVE",
"304 383 CURVE SMOOTH",
"304 427 OFFCURVE",
"247 503 OFFCURVE",
"148 503 CURVE SMOOTH",
"86 503 OFFCURVE",
"26 488 OFFCURVE",
"-29 458 CURVE",
"-29 522 LINE",
"38 547 OFFCURVE",
"99 560 OFFCURVE",
"158 560 CURVE SMOOTH",
"238 560 OFFCURVE",
"303 535 OFFCURVE",
"342 491 CURVE SMOOTH",
"353 479 OFFCURVE",
"363 478 OFFCURVE",
"375 489 CURVE SMOOTH"
);
},
{
closed = 1;
nodes = (
"214 304 LINE SMOOTH",
"69 304 OFFCURVE",
"21 288 OFFCURVE",
"21 193 CURVE SMOOTH",
"21 142 OFFCURVE",
"66 110 OFFCURVE",
"139 110 CURVE SMOOTH",
"238 110 OFFCURVE",
"304 163 OFFCURVE",
"304 288 CURVE SMOOTH",
"304 280 LINE SMOOTH",
"304 296 OFFCURVE",
"295 304 OFFCURVE",
"279 304 CURVE SMOOTH"
);
}
);
width = 732;
}
);
unicode = 00E6;
},
{
glyphname = igrave;
lastChange = "2017-12-05 02:44:33 +0000";
layers = (
{
layerId = "6B6936E6-7670-4A82-900D-EAF583C971AF";
paths = (
{
closed = 1;
nodes = (
"388 522 LINE SMOOTH",
"389 539 OFFCURVE",
"396 547 OFFCURVE",
"412 547 CURVE SMOOTH",
"453 547 LINE SMOOTH",
"469 547 OFFCURVE",
"478 538 OFFCURVE",
"478 522 CURVE SMOOTH",
"478 24 LINE SMOOTH",
"478 9 OFFCURVE",
"469 0 OFFCURVE",
"453 0 CURVE SMOOTH",
"376 0 LINE SMOOTH",
"361 0 OFFCURVE",
"351 9 OFFCURVE",
"352 24 CURVE SMOOTH"
);
},
{
closed = 1;
nodes = (
"318 800 LINE SMOOTH",
"332 800 OFFCURVE",
"340 795 OFFCURVE",
"348 785 CURVE SMOOTH",
"452 647 LINE SMOOTH",
"464 630 OFFCURVE",
"458 617 OFFCURVE",
"437 617 CURVE SMOOTH",
"361 617 LINE SMOOTH",
"347 617 OFFCURVE",
"338 623 OFFCURVE",
"332 634 CURVE SMOOTH",
"257 771 LINE SMOOTH",
"248 788 OFFCURVE",
"255 800 OFFCURVE",
"274 800 CURVE SMOOTH"
);
}
);
width = 732;
}
);
unicode = 00EC;
},
{
glyphname = iacute;
lastChange = "2017-12-05 02:44:33 +0000";
layers = (
{
layerId = "6B6936E6-7670-4A82-900D-EAF583C971AF";
paths = (
{
closed = 1;
nodes = (
"291 522 LINE SMOOTH",
"291 539 OFFCURVE",
"299 547 OFFCURVE",
"315 547 CURVE SMOOTH",
"356 547 LINE SMOOTH",
"372 547 OFFCURVE",
"379 538 OFFCURVE",
"380 522 CURVE SMOOTH",
"414 24 LINE SMOOTH",
"415 9 OFFCURVE",
"405 0 OFFCURVE",
"389 0 CURVE SMOOTH",
"315 0 LINE SMOOTH",
"299 0 OFFCURVE",
"291 9 OFFCURVE",
"291 24 CURVE SMOOTH"
);
},
{
closed = 1;
nodes = (
"378 785 LINE SMOOTH",
"386 795 OFFCURVE",
"395 800 OFFCURVE",
"408 800 CURVE SMOOTH",
"458 800 LINE SMOOTH",
"479 800 OFFCURVE",
"485 786 OFFCURVE",
"472 770 CURVE SMOOTH",
"332 609 LINE SMOOTH",
"324 600 OFFCURVE",
"315 596 OFFCURVE",
"302 596 CURVE SMOOTH",
"274 596 LINE SMOOTH",
"254 596 OFFCURVE",
"247 609 OFFCURVE",
"260 625 CURVE SMOOTH"
);
}
);
width = 732;
}
);
unicode = 00ED;
},
{
glyphname = icircumflex;
lastChange = "2017-12-05 02:44:33 +0000";
layers = (
{
layerId = "6B6936E6-7670-4A82-900D-EAF583C971AF";
paths = (
{
closed = 1;
nodes = (
"333 522 LINE SMOOTH",
"334 539 OFFCURVE",
"342 547 OFFCURVE",
"358 547 CURVE SMOOTH",
"399 547 LINE SMOOTH",
"415 547 OFFCURVE",
"423 538 OFFCURVE",
"423 522 CURVE SMOOTH",
"433 24 LINE SMOOTH",
"434 9 OFFCURVE",
"425 0 OFFCURVE",
"409 0 CURVE SMOOTH",
"348 0 LINE SMOOTH",
"333 0 OFFCURVE",
"323 9 OFFCURVE",
"324 24 CURVE SMOOTH"
);
},
{
closed = 1;
nodes = (
"320 784 LINE SMOOTH",
"327 795 OFFCURVE",
"336 800 OFFCURVE",
"349 800 CURVE SMOOTH",
"383 800 LINE SMOOTH",
"396 800 OFFCURVE",
"405 795 OFFCURVE",
"413 784 CURVE SMOOTH",
"503 646 LINE SMOOTH",
"514 629 OFFCURVE",
"507 616 OFFCURVE",
"487 616 CURVE SMOOTH",
"473 616 LINE SMOOTH",
"459 616 OFFCURVE",
"451 621 OFFCURVE",
"443 631 CURVE SMOOTH",
"383 712 LINE SMOOTH",
"373 727 OFFCURVE",
"359 727 OFFCURVE",
"349 712 CURVE SMOOTH",
"290 631 LINE SMOOTH",
"282 621 OFFCURVE",
"273 616 OFFCURVE",
"260 616 CURVE SMOOTH",
"245 616 LINE SMOOTH",
"225 616 OFFCURVE",
"219 629 OFFCURVE",
"229 646 CURVE SMOOTH"
);
}
);
width = 732;
}
);
unicode = 00EE;
},
{
glyphname = idieresis;
lastChange = "2017-12-05 02:44:33 +0000";
layers = (
{
layerId = "6B6936E6-7670-4A82-900D-EAF583C971AF";
paths = (
{
closed = 1;
nodes = (
"320 522 LINE SMOOTH",
"320 539 OFFCURVE",
"328 547 OFFCURVE",
"344 547 CURVE SMOOTH",
"385 547 LINE SMOOTH",
"401 547 OFFCURVE",
"410 538 OFFCURVE",
"410 522 CURVE SMOOTH",
"410 24 LINE SMOOTH",
"410 9 OFFCURVE",
"401 0 OFFCURVE",
"385 0 CURVE SMOOTH",
"334 0 LINE SMOOTH",
"319 0 OFFCURVE",
"310 9 OFFCURVE",
"310 24 CURVE SMOOTH"
);
},
{
closed = 1;
nodes = (
"415 741 LINE SMOOTH",
"415 757 OFFCURVE",
"423 765 OFFCURVE",
"439 765 CURVE SMOOTH",
"497 765 LINE SMOOTH",
"513 765 OFFCURVE",
"521 757 OFFCURVE",
"521 741 CURVE SMOOTH",
"521 684 LINE SMOOTH",
"521 668 OFFCURVE",
"513 659 OFFCURVE",
"497 659 CURVE SMOOTH",
"439 659 LINE SMOOTH",
"423 659 OFFCURVE",
"415 668 OFFCURVE",
"415 684 CURVE SMOOTH"
);
},
{
closed = 1;
nodes = (
"210 741 LINE SMOOTH",
"210 757 OFFCURVE",
"218 765 OFFCURVE",
"234 765 CURVE SMOOTH",
"292 765 LINE SMOOTH",
"308 765 OFFCURVE",
"316 757 OFFCURVE",
"316 741 CURVE SMOOTH",
"316 684 LINE SMOOTH",
"316 668 OFFCURVE",
"308 659 OFFCURVE",
"292 659 CURVE SMOOTH",
"234 659 LINE SMOOTH",
"219 659 OFFCURVE",
"210 668 OFFCURVE",
"210 684 CURVE SMOOTH"
);
}
);
width = 732;
}
);
unicode = 00EF;
},
{
glyphname = eth;
lastChange = "2017-12-05 02:44:33 +0000";
layers = (
{
layerId = "6B6936E6-7670-4A82-900D-EAF583C971AF";
paths = (
{
closed = 1;
nodes = (
"427 459 OFFCURVE",
"404 463 OFFCURVE",
"382 463 CURVE SMOOTH",
"273 463 OFFCURVE",
"210 389 OFFCURVE",
"210 262 CURVE SMOOTH",
"210 140 OFFCURVE",
"271 134 OFFCURVE",
"366 134 CURVE SMOOTH",
"460 134 OFFCURVE",
"522 140 OFFCURVE",
"522 262 CURVE SMOOTH",
"522 334 OFFCURVE",
"508 391 OFFCURVE",
"479 434 CURVE SMOOTH",
"472 443 OFFCURVE",
"465 448 OFFCURVE",
"453 452 CURVE SMOOTH"
);
},
{
closed = 1;
nodes = (
"500 557 LINE SMOOTH",
"582 464 OFFCURVE",
"617 375 OFFCURVE",
"617 262 CURVE SMOOTH",
"617 96 OFFCURVE",
"516 -14 OFFCURVE",
"366 -14 CURVE SMOOTH",
"216 -14 OFFCURVE",
"115 96 OFFCURVE",
"115 262 CURVE SMOOTH",
"115 425 OFFCURVE",
"214 536 OFFCURVE",
"358 536 CURVE SMOOTH",
"365 536 OFFCURVE",
"373 536 OFFCURVE",
"385 535 CURVE SMOOTH",
"399 533 OFFCURVE",
"398 547 OFFCURVE",
"384 564 CURVE SMOOTH",
"349 604 LINE SMOOTH",
"339 614 OFFCURVE",
"329 617 OFFCURVE",
"315 613 CURVE SMOOTH",
"202 575 LINE SMOOTH",
"188 570 OFFCURVE",
"176 575 OFFCURVE",
"171 590 CURVE SMOOTH",
"171 592 LINE SMOOTH",
"166 607 OFFCURVE",
"171 618 OFFCURVE",
"187 623 CURVE SMOOTH",
"271 650 LINE SMOOTH",
"289 656 OFFCURVE",
"292 669 OFFCURVE",
"280 684 CURVE SMOOTH",
"239 730 LINE SMOOTH",
"225 746 OFFCURVE",
"231 760 OFFCURVE",
"252 760 CURVE SMOOTH",
"305 760 LINE SMOOTH",
"318 760 OFFCURVE",
"327 756 OFFCURVE",
"335 746 CURVE SMOOTH",
"372 704 LINE SMOOTH",
"381 694 OFFCURVE",
"391 691 OFFCURVE",
"405 695 CURVE SMOOTH",
"525 735 LINE SMOOTH",
"540 740 OFFCURVE",
"551 735 OFFCURVE",
"556 720 CURVE SMOOTH",
"556 719 LINE SMOOTH",
"561 704 OFFCURVE",
"556 693 OFFCURVE",
"541 688 CURVE SMOOTH",
"449 658 LINE SMOOTH",
"432 652 OFFCURVE",
"428 639 OFFCURVE",
"440 625 CURVE SMOOTH"
);
}
);
width = 732;
}
);
unicode = 00F0;
},
{
glyphname = divide;
lastChange = "2017-12-05 02:44:33 +0000";
layers = (
{
layerId = "6B6936E6-7670-4A82-900D-EAF583C971AF";
paths = (
{
closed = 1;
nodes = (
"294 559 LINE SMOOTH",
"294 575 OFFCURVE",
"302 579 OFFCURVE",
"318 579 CURVE SMOOTH",
"414 579 LINE SMOOTH",
"430 579 OFFCURVE",
"438 575 OFFCURVE",
"438 559 CURVE SMOOTH",
"438 463 LINE SMOOTH",
"438 448 OFFCURVE",
"430 439 OFFCURVE",
"414 439 CURVE SMOOTH",
"318 439 LINE SMOOTH",
"303 439 OFFCURVE",
"294 448 OFFCURVE",
"294 463 CURVE SMOOTH"
);
},
{
closed = 1;
nodes = (
"294 144 LINE SMOOTH",
"294 160 OFFCURVE",
"302 168 OFFCURVE",
"318 168 CURVE SMOOTH",
"414 168 LINE SMOOTH",
"430 168 OFFCURVE",
"438 160 OFFCURVE",
"438 144 CURVE SMOOTH",
"438 49 LINE SMOOTH",
"438 33 OFFCURVE",
"430 24 OFFCURVE",
"414 24 CURVE SMOOTH",
"318 24 LINE SMOOTH",
"303 24 OFFCURVE",
"294 33 OFFCURVE",
"294 49 CURVE SMOOTH"
);
},
{
closed = 1;
nodes = (
"41 335 LINE SMOOTH",
"41 352 OFFCURVE",
"50 360 OFFCURVE",
"65 360 CURVE SMOOTH",
"667 360 LINE SMOOTH",
"683 360 OFFCURVE",
"691 351 OFFCURVE",
"691 335 CURVE SMOOTH",
"691 277 LINE SMOOTH",
"691 261 OFFCURVE",
"683 252 OFFCURVE",
"667 252 CURVE SMOOTH",
"65 252 LINE SMOOTH",
"50 252 OFFCURVE",
"41 261 OFFCURVE",
"41 277 CURVE SMOOTH"
);
}
);
width = 732;
}
);
unicode = 00F7;
},
{
glyphname = thorn;
lastChange = "2017-12-05 02:44:33 +0000";
layers = (
{
layerId = "6B6936E6-7670-4A82-900D-EAF583C971AF";
paths = (
{
closed = 1;
nodes = (
"216 -228 LINE SMOOTH",
"216 -244 OFFCURVE",
"207 -252 OFFCURVE",
"191 -252 CURVE SMOOTH",
"150 -252 LINE SMOOTH",
"134 -252 OFFCURVE",
"125 -243 OFFCURVE",
"125 -228 CURVE SMOOTH",
"121 735 LINE SMOOTH",
"121 751 OFFCURVE",
"129 760 OFFCURVE",
"145 760 CURVE SMOOTH",
"187 760 LINE SMOOTH",
"203 760 OFFCURVE",
"211 751 OFFCURVE",
"211 735 CURVE SMOOTH",
"211 508 LINE SMOOTH",
"211 486 OFFCURVE",
"222 483 OFFCURVE",
"237 500 CURVE SMOOTH",
"273 541 OFFCURVE",
"322 560 OFFCURVE",
"386 560 CURVE SMOOTH",
"519 560 OFFCURVE",
"610 445 OFFCURVE",
"610 273 CURVE SMOOTH",
"610 101 OFFCURVE",
"519 -14 OFFCURVE",
"386 -14 CURVE SMOOTH",
"322 -14 OFFCURVE",
"273 5 OFFCURVE",
"237 46 CURVE SMOOTH",
"222 63 OFFCURVE",
"210 60 OFFCURVE",
"211 38 CURVE SMOOTH"
);
},
{
closed = 1;
nodes = (
"517 405 OFFCURVE",
"459 485 OFFCURVE",
"364 485 CURVE SMOOTH",
"269 485 OFFCURVE",
"211 405 OFFCURVE",
"211 273 CURVE SMOOTH",
"211 141 OFFCURVE",
"269 117 OFFCURVE",
"364 117 CURVE SMOOTH",
"459 117 OFFCURVE",
"517 141 OFFCURVE",
"517 273 CURVE SMOOTH"
);
}
);
width = 732;
}
);
unicode = 00FE;
},
{
glyphname = dotlessi;
lastChange = "2017-12-05 02:44:33 +0000";
layers = (
{
anchors = (
{
name = ogonek;
position = "{367, 15}";
},
{
name = top;
position = "{352, 547}";
}
);
layerId = "6B6936E6-7670-4A82-900D-EAF583C971AF";
paths = (
{
closed = 1;
nodes = (
"322 200 OFFCURVE",
"325 367 OFFCURVE",
"323 525 CURVE SMOOTH",
"323 539 OFFCURVE",
"332 547 OFFCURVE",
"348 547 CURVE SMOOTH",
"378 547 LINE SMOOTH",
"395 547 OFFCURVE",
"403 538 OFFCURVE",
"402 522 CURVE SMOOTH",
"398 372 OFFCURVE",
"403 206 OFFCURVE",
"420 26 CURVE SMOOTH",
"422 9 OFFCURVE",
"414 0 OFFCURVE",
"397 0 CURVE SMOOTH",
"334 0 LINE SMOOTH",
"317 0 OFFCURVE",
"309 9 OFFCURVE",
"310 25 CURVE SMOOTH"
);
}
);
width = 732;
}
);
unicode = 0131;
},
{
glyphname = Lslash;
lastChange = "2017-12-05 02:44:33 +0000";
layers = (
{
layerId = "6B6936E6-7670-4A82-900D-EAF583C971AF";
paths = (
{
closed = 1;
nodes = (
"190 705 LINE SMOOTH",
"190 721 OFFCURVE",
"199 729 OFFCURVE",
"214 729 CURVE SMOOTH",
"265 729 LINE SMOOTH",
"281 729 OFFCURVE",
"289 721 OFFCURVE",
"289 705 CURVE SMOOTH",
"289 464 LINE SMOOTH",
"289 444 OFFCURVE",
"302 438 OFFCURVE",
"319 449 CURVE SMOOTH",
"422 521 LINE SMOOTH",
"435 530 OFFCURVE",
"447 528 OFFCURVE",
"456 516 CURVE SMOOTH",
"467 501 LINE SMOOTH",
"476 488 OFFCURVE",
"474 476 OFFCURVE",
"461 467 CURVE SMOOTH",
"305 358 LINE SMOOTH",
"293 351 OFFCURVE",
"289 341 OFFCURVE",
"289 329 CURVE SMOOTH",
"289 107 LINE SMOOTH",
"289 92 OFFCURVE",
"297 83 OFFCURVE",
"313 83 CURVE SMOOTH",
"620 83 LINE SMOOTH",
"635 83 OFFCURVE",
"644 75 OFFCURVE",
"644 59 CURVE SMOOTH",
"644 24 LINE SMOOTH",
"644 9 OFFCURVE",
"635 0 OFFCURVE",
"620 0 CURVE SMOOTH",
"214 0 LINE SMOOTH",
"199 0 OFFCURVE",
"190 9 OFFCURVE",
"190 24 CURVE SMOOTH",
"190 242 LINE SMOOTH",
"190 263 OFFCURVE",
"177 270 OFFCURVE",
"160 257 CURVE SMOOTH",
"138 241 LINE SMOOTH",
"125 232 OFFCURVE",
"113 234 OFFCURVE",
"104 247 CURVE SMOOTH",
"94 261 LINE SMOOTH",
"85 274 OFFCURVE",
"87 286 OFFCURVE",
"100 295 CURVE SMOOTH",
"175 347 LINE SMOOTH",
"186 354 OFFCURVE",
"190 364 OFFCURVE",
"190 376 CURVE SMOOTH"
);
}
);
width = 732;
}
);
unicode = 0141;
},
{
glyphname = lslash;
lastChange = "2017-12-05 02:44:33 +0000";
layers = (
{
layerId = "6B6936E6-7670-4A82-900D-EAF583C971AF";
paths = (
{
closed = 1;
nodes = (
"320 735 LINE SMOOTH",
"320 751 OFFCURVE",
"329 760 OFFCURVE",
"345 760 CURVE SMOOTH",
"386 760 LINE SMOOTH",
"402 760 OFFCURVE",
"410 751 OFFCURVE",
"410 735 CURVE SMOOTH",
"410 502 LINE SMOOTH",
"410 482 OFFCURVE",
"423 475 OFFCURVE",
"440 487 CURVE SMOOTH",
"456 499 LINE SMOOTH",
"466 506 OFFCURVE",
"476 503 OFFCURVE",
"485 490 CURVE SMOOTH",
"494 478 LINE SMOOTH",
"503 465 OFFCURVE",
"501 453 OFFCURVE",
"488 444 CURVE SMOOTH",
"425 400 LINE SMOOTH",
"415 393 OFFCURVE",
"410 383 OFFCURVE",
"410 371 CURVE SMOOTH",
"410 24 LINE SMOOTH",
"410 9 OFFCURVE",
"402 0 OFFCURVE",
"386 0 CURVE SMOOTH",
"345 0 LINE SMOOTH",
"329 0 OFFCURVE",
"320 9 OFFCURVE",
"320 24 CURVE SMOOTH",
"320 289 LINE SMOOTH",
"320 309 OFFCURVE",
"307 316 OFFCURVE",
"291 304 CURVE SMOOTH",
"275 293 LINE SMOOTH",
"266 286 OFFCURVE",
"255 289 OFFCURVE",
"246 302 CURVE SMOOTH",
"238 314 LINE SMOOTH",
"229 327 OFFCURVE",
"231 339 OFFCURVE",
"244 348 CURVE SMOOTH",
"305 392 LINE SMOOTH",
"316 399 OFFCURVE",
"320 408 OFFCURVE",
"320 421 CURVE SMOOTH"
);
}
);
width = 732;
}
);
unicode = 0142;
},
{
glyphname = OE;
lastChange = "2017-12-05 02:44:33 +0000";
layers = (
{
anchors = (
{
name = top;
position = "{424, 729}";
}
);
layerId = "6B6936E6-7670-4A82-900D-EAF583C971AF";
paths = (
{
closed = 1;
nodes = (
"750 729 LINE SMOOTH",
"767 729 OFFCURVE",
"775 721 OFFCURVE",
"775 705 CURVE SMOOTH",
"775 690 LINE SMOOTH",
"775 674 OFFCURVE",
"766 666 OFFCURVE",
"750 666 CURVE SMOOTH",
"552 666 LINE SMOOTH",
"537 666 OFFCURVE",
"528 657 OFFCURVE",
"528 641 CURVE SMOOTH",
"528 489 LINE SMOOTH",
"528 473 OFFCURVE",
"536 464 OFFCURVE",
"552 464 CURVE SMOOTH",
"745 464 LINE SMOOTH",
"761 464 OFFCURVE",
"770 456 OFFCURVE",
"770 440 CURVE SMOOTH",
"770 406 LINE SMOOTH",
"770 390 OFFCURVE",
"761 381 OFFCURVE",
"745 381 CURVE SMOOTH",
"552 381 LINE SMOOTH",
"537 381 OFFCURVE",
"528 373 OFFCURVE",
"528 357 CURVE SMOOTH",
"528 161 LINE SMOOTH",
"528 146 OFFCURVE",
"537 137 OFFCURVE",
"552 137 CURVE SMOOTH",
"759 137 LINE SMOOTH",
"775 137 OFFCURVE",
"784 128 OFFCURVE",
"784 112 CURVE SMOOTH",
"784 24 LINE SMOOTH",
"784 9 OFFCURVE",
"775 0 OFFCURVE",
"759 0 CURVE SMOOTH",
"379 0 LINE SMOOTH",
"97 0 OFFCURVE",
"-52 125 OFFCURVE",
"-52 365 CURVE SMOOTH",
"-52 603 OFFCURVE",
"97 729 OFFCURVE",
"379 729 CURVE SMOOTH"
);
},
{
closed = 1;
nodes = (
"429 641 LINE SMOOTH",
"429 657 OFFCURVE",
"420 666 OFFCURVE",
"405 666 CURVE SMOOTH",
"366 666 LINE SMOOTH",
"157 666 OFFCURVE",
"53 579 OFFCURVE",
"53 365 CURVE SMOOTH",
"53 249 OFFCURVE",
"157 137 OFFCURVE",
"366 137 CURVE SMOOTH",
"405 137 LINE SMOOTH",
"421 137 OFFCURVE",
"429 145 OFFCURVE",
"429 161 CURVE SMOOTH"
);
}
);
width = 732;
}
);
unicode = 0152;
},
{
glyphname = oe;
lastChange = "2017-12-05 02:44:33 +0000";
layers = (
{
anchors = (
{
name = top;
position = "{389, 547}";
}
);
layerId = "6B6936E6-7670-4A82-900D-EAF583C971AF";
paths = (
{
closed = 1;
nodes = (
"642 391 LINE SMOOTH",
"660 391 OFFCURVE",
"670 401 OFFCURVE",
"663 417 CURVE SMOOTH",
"646 458 OFFCURVE",
"594 508 OFFCURVE",
"556 508 CURVE SMOOTH",
"480 508 OFFCURVE",
"453 460 OFFCURVE",
"430 418 CURVE SMOOTH",
"420 402 OFFCURVE",
"431 390 OFFCURVE",
"449 390 CURVE SMOOTH"
);
},
{
closed = 1;
nodes = (
"731 350 LINE SMOOTH",
"731 334 OFFCURVE",
"722 325 OFFCURVE",
"707 325 CURVE SMOOTH",
"445 325 LINE SMOOTH",
"429 325 OFFCURVE",
"420 316 OFFCURVE",
"422 299 CURVE SMOOTH",
"434 156 OFFCURVE",
"477 125 OFFCURVE",
"576 125 CURVE SMOOTH",
"630 125 OFFCURVE",
"646 135 OFFCURVE",
"701 160 CURVE SMOOTH",
"718 167 OFFCURVE",
"729 161 OFFCURVE",
"729 142 CURVE SMOOTH",
"729 46 LINE SMOOTH",
"729 32 OFFCURVE",
"724 23 OFFCURVE",
"710 18 CURVE SMOOTH",
"651 -5 OFFCURVE",
"628 -14 OFFCURVE",
"571 -14 CURVE SMOOTH",
"517 -14 OFFCURVE",
"439 15 OFFCURVE",
"396 72 CURVE SMOOTH",
"386 85 OFFCURVE",
"371 85 OFFCURVE",
"363 71 CURVE SMOOTH",
"333 14 OFFCURVE",
"271 -14 OFFCURVE",
"204 -14 CURVE SMOOTH",
"96 -14 OFFCURVE",
"1 94 OFFCURVE",
"1 273 CURVE SMOOTH",
"1 453 OFFCURVE",
"110 560 OFFCURVE",
"204 560 CURVE SMOOTH",
"270 560 OFFCURVE",
"333 531 OFFCURVE",
"362 476 CURVE SMOOTH",
"370 460 OFFCURVE",
"385 461 OFFCURVE",
"395 475 CURVE SMOOTH",
"436 530 OFFCURVE",
"477 560 OFFCURVE",
"555 560 CURVE SMOOTH",
"668 560 OFFCURVE",
"731 434 OFFCURVE",
"731 369 CURVE SMOOTH"
);
},
{
closed = 1;
nodes = (
"153 496 OFFCURVE",
"95 425 OFFCURVE",
"95 304 CURVE SMOOTH",
"95 184 OFFCURVE",
"155 129 OFFCURVE",
"204 129 CURVE SMOOTH",
"285 129 OFFCURVE",
"345 185 OFFCURVE",
"345 304 CURVE SMOOTH",
"345 423 OFFCURVE",
"285 496 OFFCURVE",
"204 496 CURVE SMOOTH"
);
}
);
width = 732;
}
);
unicode = 0153;
},
{
glyphname = florin;
lastChange = "2017-12-05 02:44:33 +0000";
layers = (
{
layerId = "6B6936E6-7670-4A82-900D-EAF583C971AF";
paths = (
{
closed = 1;
nodes = (
"669 705 LINE SMOOTH",
"669 686 OFFCURVE",
"658 681 OFFCURVE",
"641 689 CURVE SMOOTH",
"625 696 OFFCURVE",
"608 700 OFFCURVE",
"590 700 CURVE SMOOTH",
"527 700 OFFCURVE",
"491 662 OFFCURVE",
"475 576 CURVE SMOOTH",
"451 441 LINE SMOOTH",
"448 424 OFFCURVE",
"457 415 OFFCURVE",
"474 416 CURVE SMOOTH",
"561 422 LINE SMOOTH",
"577 423 OFFCURVE",
"586 415 OFFCURVE",
"586 398 CURVE SMOOTH",
"586 377 LINE SMOOTH",
"586 362 OFFCURVE",
"578 354 OFFCURVE",
"562 353 CURVE SMOOTH",
"453 346 LINE SMOOTH",
"438 345 OFFCURVE",
"430 337 OFFCURVE",
"428 322 CURVE SMOOTH",
"398 107 LINE SMOOTH",
"355 -202 OFFCURVE",
"279 -208 OFFCURVE",
"158 -208 CURVE SMOOTH",
"129 -208 OFFCURVE",
"103 -204 OFFCURVE",
"79 -195 CURVE SMOOTH",
"64 -190 OFFCURVE",
"60 -180 OFFCURVE",
"62 -165 CURVE SMOOTH",
"82 -62 LINE SMOOTH",
"85 -44 OFFCURVE",
"97 -39 OFFCURVE",
"113 -47 CURVE SMOOTH",
"137 -59 OFFCURVE",
"160 -65 OFFCURVE",
"183 -65 CURVE SMOOTH",
"246 -65 OFFCURVE",
"278 -25 OFFCURVE",
"300 83 CURVE",
"334 317 LINE SMOOTH",
"336 334 OFFCURVE",
"328 343 OFFCURVE",
"311 342 CURVE SMOOTH",
"242 336 LINE SMOOTH",
"226 335 OFFCURVE",
"217 344 OFFCURVE",
"217 360 CURVE SMOOTH",
"217 381 LINE SMOOTH",
"217 396 OFFCURVE",
"225 405 OFFCURVE",
"240 406 CURVE SMOOTH",
"332 413 LINE SMOOTH",
"346 414 OFFCURVE",
"354 421 OFFCURVE",
"357 435 CURVE SMOOTH",
"384 575 LINE SMOOTH",
"407 694 OFFCURVE",
"474 760 OFFCURVE",
"572 760 CURVE SMOOTH",
"599 760 OFFCURVE",
"625 756 OFFCURVE",
"649 749 CURVE SMOOTH",
"663 745 OFFCURVE",
"669 735 OFFCURVE",
"669 721 CURVE SMOOTH"
);
}
);
width = 732;
}
);
unicode = 0192;
},
{
glyphname = circumflex;
lastChange = "2017-12-05 02:44:33 +0000";
layers = (
{
anchors = (
{
name = _top;
position = "{366, 564}";
}
);
layerId = "6B6936E6-7670-4A82-900D-EAF583C971AF";
paths = (
{
closed = 1;
nodes = (
"330 800 LINE",
"402 800 LINE",
"522 616 LINE",
"454 616 LINE",
"383 712 LINE SMOOTH",
"373 727 OFFCURVE",
"359 727 OFFCURVE",
"349 712 CURVE SMOOTH",
"278 616 LINE",
"210 616 LINE"
);
}
);
width = 732;
}
);
unicode = 02C6;
},
{
glyphname = caron;
lastChange = "2017-12-05 02:44:33 +0000";
layers = (
{
anchors = (
{
name = _top;
position = "{366, 547}";
}
);
layerId = "6B6936E6-7670-4A82-900D-EAF583C971AF";
paths = (
{
closed = 1;
nodes = (
"349 616 LINE SMOOTH",
"336 616 OFFCURVE",
"327 621 OFFCURVE",
"320 632 CURVE SMOOTH",
"229 771 LINE SMOOTH",
"219 787 OFFCURVE",
"226 800 OFFCURVE",
"246 800 CURVE SMOOTH",
"260 800 LINE SMOOTH",
"273 800 OFFCURVE",
"282 795 OFFCURVE",
"290 785 CURVE SMOOTH",
"349 704 LINE SMOOTH",
"359 689 OFFCURVE",
"373 689 OFFCURVE",
"383 704 CURVE SMOOTH",
"443 785 LINE SMOOTH",
"451 795 OFFCURVE",
"459 800 OFFCURVE",
"473 800 CURVE SMOOTH",
"488 800 LINE SMOOTH",
"507 800 OFFCURVE",
"514 787 OFFCURVE",
"503 771 CURVE SMOOTH",
"413 632 LINE SMOOTH",
"405 621 OFFCURVE",
"396 616 OFFCURVE",
"383 616 CURVE SMOOTH"
);
}
);
width = 732;
}
);
unicode = 02C7;
},
{
glyphname = breve;
lastChange = "2017-12-05 02:44:33 +0000";
layers = (
{
anchors = (
{
name = _top;
position = "{365, 574}";
}
);
layerId = "6B6936E6-7670-4A82-900D-EAF583C971AF";
paths = (
{
closed = 1;
nodes = (
"248 785 LINE SMOOTH",
"263 785 OFFCURVE",
"270 778 OFFCURVE",
"275 764 CURVE SMOOTH",
"288 729 OFFCURVE",
"317 712 OFFCURVE",
"365 712 CURVE SMOOTH",
"413 712 OFFCURVE",
"442 729 OFFCURVE",
"455 764 CURVE SMOOTH",
"460 778 OFFCURVE",
"468 785 OFFCURVE",
"482 785 CURVE SMOOTH",
"492 785 LINE SMOOTH",
"509 785 OFFCURVE",
"518 775 OFFCURVE",
"515 759 CURVE SMOOTH",
"501 683 OFFCURVE",
"450 645 OFFCURVE",
"365 645 CURVE SMOOTH",
"280 645 OFFCURVE",
"229 683 OFFCURVE",
"216 759 CURVE SMOOTH",
"212 775 OFFCURVE",
"222 785 OFFCURVE",
"238 785 CURVE SMOOTH"
);
}
);
width = 732;
}
);
unicode = 02D8;
},
{
glyphname = dotaccent;
lastChange = "2017-12-05 02:44:33 +0000";
layers = (
{
anchors = (
{
name = _top;
position = "{366, 547}";
}
);
layerId = "6B6936E6-7670-4A82-900D-EAF583C971AF";
paths = (
{
closed = 1;
nodes = (
"316 733 LINE SMOOTH",
"316 750 OFFCURVE",
"325 758 OFFCURVE",
"341 758 CURVE SMOOTH",
"392 758 LINE SMOOTH",
"408 758 OFFCURVE",
"416 750 OFFCURVE",
"416 733 CURVE SMOOTH",
"416 683 LINE SMOOTH",
"416 667 OFFCURVE",
"408 658 OFFCURVE",
"392 658 CURVE SMOOTH",
"341 658 LINE SMOOTH",
"325 658 OFFCURVE",
"316 667 OFFCURVE",
"316 683 CURVE SMOOTH"
);
}
);
width = 732;
}
);
unicode = 02D9;
},
{
glyphname = ring;
lastChange = "2017-12-05 02:44:33 +0000";
layers = (
{
anchors = (
{
name = _top;
position = "{366, 547}";
}
);
layerId = "6B6936E6-7670-4A82-900D-EAF583C971AF";
paths = (
{
closed = 1;
nodes = (
"440 785 OFFCURVE",
"408 818 OFFCURVE",
"366 818 CURVE SMOOTH",
"324 818 OFFCURVE",
"292 786 OFFCURVE",
"292 744 CURVE SMOOTH",
"292 702 OFFCURVE",
"324 670 OFFCURVE",
"366 670 CURVE SMOOTH",
"408 670 OFFCURVE",
"440 703 OFFCURVE",
"440 744 CURVE SMOOTH"
);
},
{
closed = 1;
nodes = (
"500 669 OFFCURVE",
"441 610 OFFCURVE",
"366 610 CURVE SMOOTH",
"292 610 OFFCURVE",
"232 669 OFFCURVE",
"232 744 CURVE SMOOTH",
"232 819 OFFCURVE",
"292 878 OFFCURVE",
"366 878 CURVE SMOOTH",
"441 878 OFFCURVE",
"500 819 OFFCURVE",
"500 744 CURVE SMOOTH"
);
}
);
width = 732;
}
);
unicode = 02DA;
},
{
glyphname = ogonek;
lastChange = "2017-12-05 02:44:33 +0000";
layers = (
{
anchors = (
{
name = _ogonek;
position = "{353, 0}";
}
);
layerId = "6B6936E6-7670-4A82-900D-EAF583C971AF";
paths = (
{
closed = 1;
nodes = (
"350 0 LINE SMOOTH",
"370 0 OFFCURVE",
"375 -13 OFFCURVE",
"365 -30 CURVE SMOOTH",
"350 -54 OFFCURVE",
"342 -73 OFFCURVE",
"342 -88 CURVE SMOOTH",
"342 -118 OFFCURVE",
"360 -133 OFFCURVE",
"395 -133 CURVE SMOOTH",
"407 -133 OFFCURVE",
"418 -131 OFFCURVE",
"429 -128 CURVE SMOOTH",
"446 -124 OFFCURVE",
"457 -129 OFFCURVE",
"457 -147 CURVE SMOOTH",
"457 -161 LINE SMOOTH",
"457 -176 OFFCURVE",
"450 -185 OFFCURVE",
"435 -188 CURVE SMOOTH",
"419 -191 OFFCURVE",
"404 -193 OFFCURVE",
"390 -193 CURVE SMOOTH",
"311 -193 OFFCURVE",
"274 -166 OFFCURVE",
"274 -105 CURVE SMOOTH",
"274 -78 OFFCURVE",
"288 -48 OFFCURVE",
"315 -14 CURVE SMOOTH",
"323 -4 OFFCURVE",
"332 0 OFFCURVE",
"345 0 CURVE SMOOTH"
);
}
);
width = 732;
}
);
unicode = 02DB;
},
{
glyphname = tilde;
lastChange = "2017-12-05 02:44:33 +0000";
layers = (
{
anchors = (
{
name = _top;
position = "{365, 400}";
}
);
layerId = "6B6936E6-7670-4A82-900D-EAF583C971AF";
paths = (
{
closed = 1;
nodes = (
"335 696 LINE SMOOTH",
"321 709 OFFCURVE",
"311 715 OFFCURVE",
"302 715 CURVE SMOOTH",
"290 715 OFFCURVE",
"281 709 OFFCURVE",
"275 697 CURVE SMOOTH",
"271 689 OFFCURVE",
"268 678 OFFCURVE",
"267 663 CURVE SMOOTH",
"265 647 OFFCURVE",
"257 639 OFFCURVE",
"241 639 CURVE SMOOTH",
"229 639 LINE SMOOTH",
"213 639 OFFCURVE",
"204 648 OFFCURVE",
"206 665 CURVE SMOOTH",
"213 737 OFFCURVE",
"246 777 OFFCURVE",
"299 777 CURVE SMOOTH",
"324 777 OFFCURVE",
"343 769 OFFCURVE",
"367 747 CURVE",
"395 720 LINE SMOOTH",
"409 707 OFFCURVE",
"420 701 OFFCURVE",
"428 701 CURVE SMOOTH",
"440 701 OFFCURVE",
"450 707 OFFCURVE",
"456 719 CURVE SMOOTH",
"459 727 OFFCURVE",
"462 738 OFFCURVE",
"464 753 CURVE SMOOTH",
"466 769 OFFCURVE",
"474 777 OFFCURVE",
"489 777 CURVE SMOOTH",
"501 777 LINE SMOOTH",
"518 777 OFFCURVE",
"526 768 OFFCURVE",
"525 751 CURVE SMOOTH",
"518 679 OFFCURVE",
"484 639 OFFCURVE",
"431 639 CURVE SMOOTH",
"406 639 OFFCURVE",
"387 647 OFFCURVE",
"363 669 CURVE"
);
}
);
width = 732;
}
);
unicode = 02DC;
},
{
glyphname = hungarumlaut;
lastChange = "2017-12-05 02:44:33 +0000";
layers = (
{
anchors = (
{
name = _top;
position = "{368, 547}";
}
);
layerId = "6B6936E6-7670-4A82-900D-EAF583C971AF";
paths = (
{
closed = 1;
nodes = (
"443 783 LINE SMOOTH",
"449 794 OFFCURVE",
"458 800 OFFCURVE",
"472 800 CURVE SMOOTH",
"504 800 LINE SMOOTH",
"523 800 OFFCURVE",
"531 787 OFFCURVE",
"520 771 CURVE SMOOTH",
"428 632 LINE SMOOTH",
"421 621 OFFCURVE",
"412 616 OFFCURVE",
"399 616 CURVE SMOOTH",
"385 616 LINE SMOOTH",
"366 616 OFFCURVE",
"359 628 OFFCURVE",
"368 646 CURVE SMOOTH"
);
},
{
closed = 1;
nodes = (
"280 782 LINE SMOOTH",
"286 794 OFFCURVE",
"295 800 OFFCURVE",
"309 800 CURVE SMOOTH",
"338 800 LINE SMOOTH",
"357 800 OFFCURVE",
"365 787 OFFCURVE",
"354 771 CURVE SMOOTH",
"273 633 LINE SMOOTH",
"266 621 OFFCURVE",
"257 616 OFFCURVE",
"244 616 CURVE SMOOTH",
"229 616 LINE SMOOTH",
"209 616 OFFCURVE",
"202 628 OFFCURVE",
"211 645 CURVE SMOOTH"
);
}
);
width = 732;
}
);
unicode = 02DD;
},
{
glyphname = pi;
lastChange = "2017-12-05 02:44:33 +0000";
layers = (
{
layerId = "6B6936E6-7670-4A82-900D-EAF583C971AF";
paths = (
{
closed = 1;
nodes = (
"662 514 OFFCURVE",
"655 523 OFFCURVE",
"637 523 CURVE SMOOTH",
"230 523 LINE SMOOTH",
"206 523 OFFCURVE",
"185 521 OFFCURVE",
"168 518 CURVE",
"132 510 OFFCURVE",
"107 492 OFFCURVE",
"91 463 CURVE SMOOTH",
"75 434 OFFCURVE",
"57 381 OFFCURVE",
"94 381 CURVE SMOOTH",
"122 381 LINE SMOOTH",
"136 381 OFFCURVE",
"145 389 OFFCURVE",
"148 404 CURVE",
"157 439 OFFCURVE",
"174 451 OFFCURVE",
"205 451 CURVE SMOOTH",
"217 451 OFFCURVE",
"223 440 OFFCURVE",
"216 423 CURVE",
"99 27 LINE",
"92 11 OFFCURVE",
"102 0 OFFCURVE",
"119 0 CURVE SMOOTH",
"210 0 LINE SMOOTH",
"225 0 OFFCURVE",
"234 7 OFFCURVE",
"236 22 CURVE",
"309 429 LINE",
"311 444 OFFCURVE",
"320 451 OFFCURVE",
"335 451 CURVE SMOOTH",
"443 451 LINE SMOOTH",
"462 451 OFFCURVE",
"469 442 OFFCURVE",
"464 423 CURVE SMOOTH",
"418 262 LINE",
"401 211 OFFCURVE",
"390 173 OFFCURVE",
"387 148 CURVE",
"383 125 OFFCURVE",
"381 106 OFFCURVE",
"381 91 CURVE SMOOTH",
"381 59 OFFCURVE",
"398 25 OFFCURVE",
"423 0 CURVE SMOOTH",
"448 -25 OFFCURVE",
"483 -42 OFFCURVE",
"522 -42 CURVE SMOOTH",
"545 -42 OFFCURVE",
"576 -41 OFFCURVE",
"580 -14 CURVE SMOOTH",
"587 41 LINE",
"590 59 OFFCURVE",
"583 67 OFFCURVE",
"566 65 CURVE",
"561 64 OFFCURVE",
"557 64 OFFCURVE",
"553 64 CURVE SMOOTH",
"549 64 OFFCURVE",
"545 64 OFFCURVE",
"542 64 CURVE SMOOTH",
"507 64 OFFCURVE",
"493 79 OFFCURVE",
"493 116 CURVE SMOOTH",
"493 125 OFFCURVE",
"494 136 OFFCURVE",
"497 149 CURVE",
"498 157 OFFCURVE",
"500 166 OFFCURVE",
"501 176 CURVE SMOOTH",
"502 185 OFFCURVE",
"504 196 OFFCURVE",
"507 208 CURVE",
"554 429 LINE SMOOTH",
"557 444 OFFCURVE",
"566 451 OFFCURVE",
"581 451 CURVE SMOOTH",
"625 451 LINE SMOOTH",
"640 451 OFFCURVE",
"649 458 OFFCURVE",
"652 472 CURVE SMOOTH",
"658 496 LINE SMOOTH"
);
}
);
width = 732;
}
);
note = pi;
unicode = 03C0;
},
{
glyphname = endash;
lastChange = "2017-12-05 02:44:33 +0000";
layers = (
{
layerId = "6B6936E6-7670-4A82-900D-EAF583C971AF";
paths = (
{
closed = 1;
nodes = (
"116 285 LINE SMOOTH",
"116 300 OFFCURVE",
"125 309 OFFCURVE",
"141 309 CURVE SMOOTH",
"592 309 LINE SMOOTH",
"608 309 OFFCURVE",
"616 301 OFFCURVE",
"616 285 CURVE SMOOTH",
"616 263 LINE SMOOTH",
"616 248 OFFCURVE",
"608 239 OFFCURVE",
"592 239 CURVE SMOOTH",
"141 239 LINE SMOOTH",
"125 239 OFFCURVE",
"116 247 OFFCURVE",
"116 263 CURVE SMOOTH"
);
}
);
width = 732;
}
);
unicode = 2013;
},
{
glyphname = emdash;
lastChange = "2017-12-05 02:44:33 +0000";
layers = (
{
layerId = "6B6936E6-7670-4A82-900D-EAF583C971AF";
paths = (
{
closed = 1;
nodes = (
"-134 285 LINE SMOOTH",
"-134 300 OFFCURVE",
"-125 309 OFFCURVE",
"-109 309 CURVE SMOOTH",
"842 309 LINE SMOOTH",
"858 309 OFFCURVE",
"866 301 OFFCURVE",
"866 285 CURVE SMOOTH",
"866 263 LINE SMOOTH",
"866 248 OFFCURVE",
"858 239 OFFCURVE",
"842 239 CURVE SMOOTH",
"-109 239 LINE SMOOTH",
"-125 239 OFFCURVE",
"-134 247 OFFCURVE",
"-134 263 CURVE SMOOTH"
);
}
);
width = 732;
}
);
unicode = 2014;
},
{
glyphname = quoteleft;
lastChange = "2017-12-05 02:44:33 +0000";
layers = (
{
layerId = "6B6936E6-7670-4A82-900D-EAF583C971AF";
paths = (
{
closed = 1;
nodes = (
"407 471 LINE SMOOTH",
"407 455 OFFCURVE",
"398 446 OFFCURVE",
"383 446 CURVE SMOOTH",
"305 446 LINE SMOOTH",
"289 446 OFFCURVE",
"280 455 OFFCURVE",
"280 471 CURVE SMOOTH",
"280 534 LINE SMOOTH",
"280 545 OFFCURVE",
"282 554 OFFCURVE",
"288 564 CURVE SMOOTH",
"370 724 LINE SMOOTH",
"375 736 OFFCURVE",
"385 742 OFFCURVE",
"398 742 CURVE SMOOTH",
"428 742 LINE SMOOTH",
"445 742 OFFCURVE",
"454 731 OFFCURVE",
"449 714 CURVE SMOOTH",
"411 564 LINE SMOOTH",
"408 554 OFFCURVE",
"407 546 OFFCURVE",
"407 535 CURVE SMOOTH"
);
}
);
width = 732;
}
);
unicode = 2018;
},
